G75*
%MOIN*%
%OFA0B0*%
%FSLAX25Y25*%
%IPPOS*%
%LPD*%
%AMOC8*
5,1,8,0,0,1.08239X$1,22.5*
%
%ADD10C,0.05600*%
%ADD11C,0.07382*%
%ADD12C,0.08858*%
%ADD13C,0.07400*%
%ADD14C,0.05943*%
%ADD15OC8,0.05600*%
%ADD16C,0.06337*%
%ADD17C,0.05600*%
%ADD18OC8,0.07400*%
%ADD19C,0.01600*%
%ADD20C,0.03378*%
D10*
X0288450Y0106800D02*
X0294050Y0106800D01*
X0294050Y0116800D02*
X0288450Y0116800D01*
X0288450Y0126800D02*
X0294050Y0126800D01*
X0294050Y0136800D02*
X0288450Y0136800D01*
X0288450Y0146800D02*
X0294050Y0146800D01*
X0294050Y0156800D02*
X0288450Y0156800D01*
X0288450Y0166800D02*
X0294050Y0166800D01*
X0294050Y0176800D02*
X0288450Y0176800D01*
X0288450Y0186800D02*
X0294050Y0186800D01*
X0294050Y0196800D02*
X0288450Y0196800D01*
X0288450Y0206800D02*
X0294050Y0206800D01*
X0294050Y0216800D02*
X0288450Y0216800D01*
X0288450Y0226800D02*
X0294050Y0226800D01*
X0294050Y0236800D02*
X0288450Y0236800D01*
X0318450Y0236800D02*
X0324050Y0236800D01*
X0324050Y0226800D02*
X0318450Y0226800D01*
X0318450Y0216800D02*
X0324050Y0216800D01*
X0324050Y0206800D02*
X0318450Y0206800D01*
X0318450Y0196800D02*
X0324050Y0196800D01*
X0324050Y0186800D02*
X0318450Y0186800D01*
X0318450Y0176800D02*
X0324050Y0176800D01*
X0324050Y0166800D02*
X0318450Y0166800D01*
X0318450Y0156800D02*
X0324050Y0156800D01*
X0324050Y0146800D02*
X0318450Y0146800D01*
X0318450Y0136800D02*
X0324050Y0136800D01*
X0324050Y0126800D02*
X0318450Y0126800D01*
X0318450Y0116800D02*
X0324050Y0116800D01*
X0324050Y0106800D02*
X0318450Y0106800D01*
X0403450Y0136800D02*
X0409050Y0136800D01*
X0409050Y0146800D02*
X0403450Y0146800D01*
X0403450Y0156800D02*
X0409050Y0156800D01*
X0409050Y0166800D02*
X0403450Y0166800D01*
X0403450Y0176800D02*
X0409050Y0176800D01*
X0409050Y0186800D02*
X0403450Y0186800D01*
X0403450Y0196800D02*
X0409050Y0196800D01*
X0409050Y0206800D02*
X0403450Y0206800D01*
X0403450Y0216800D02*
X0409050Y0216800D01*
X0409050Y0226800D02*
X0403450Y0226800D01*
X0403450Y0236800D02*
X0409050Y0236800D01*
X0409050Y0246800D02*
X0403450Y0246800D01*
X0403450Y0256800D02*
X0409050Y0256800D01*
X0409050Y0266800D02*
X0403450Y0266800D01*
X0433450Y0266800D02*
X0439050Y0266800D01*
X0439050Y0256800D02*
X0433450Y0256800D01*
X0433450Y0246800D02*
X0439050Y0246800D01*
X0439050Y0236800D02*
X0433450Y0236800D01*
X0433450Y0226800D02*
X0439050Y0226800D01*
X0439050Y0216800D02*
X0433450Y0216800D01*
X0433450Y0206800D02*
X0439050Y0206800D01*
X0439050Y0196800D02*
X0433450Y0196800D01*
X0433450Y0186800D02*
X0439050Y0186800D01*
X0439050Y0176800D02*
X0433450Y0176800D01*
X0433450Y0166800D02*
X0439050Y0166800D01*
X0439050Y0156800D02*
X0433450Y0156800D01*
X0433450Y0146800D02*
X0439050Y0146800D01*
X0439050Y0136800D02*
X0433450Y0136800D01*
D11*
X0115880Y0261457D03*
X0115880Y0281143D03*
D12*
X0105250Y0285080D03*
X0105250Y0257520D03*
D13*
X0146250Y0221800D03*
X0156250Y0221800D03*
X0166250Y0221800D03*
X0176250Y0221800D03*
X0221250Y0216800D03*
X0221250Y0226800D03*
X0221250Y0236800D03*
X0221250Y0206800D03*
X0221250Y0196800D03*
X0151250Y0121800D03*
X0151250Y0111800D03*
X0151250Y0101800D03*
X0151250Y0091800D03*
X0151250Y0081800D03*
X0151250Y0071800D03*
X0151250Y0061800D03*
X0121250Y0066800D03*
X0121250Y0076800D03*
X0121250Y0086800D03*
X0121250Y0096800D03*
X0121250Y0106800D03*
X0121250Y0116800D03*
X0111250Y0166800D03*
X0111250Y0176800D03*
X0181250Y0101800D03*
X0221250Y0081800D03*
X0221250Y0051800D03*
X0276250Y0051800D03*
X0276250Y0041800D03*
X0286250Y0041800D03*
X0286250Y0051800D03*
X0286250Y0061800D03*
X0276250Y0061800D03*
X0276250Y0071800D03*
X0276250Y0081800D03*
X0286250Y0081800D03*
X0286250Y0071800D03*
X0311250Y0071800D03*
X0311250Y0081800D03*
X0321250Y0081800D03*
X0321250Y0071800D03*
X0331250Y0071800D03*
X0331250Y0081800D03*
X0341250Y0081800D03*
X0341250Y0071800D03*
X0351250Y0071800D03*
X0351250Y0081800D03*
X0361250Y0081800D03*
X0361250Y0071800D03*
X0371250Y0071800D03*
X0371250Y0081800D03*
X0381250Y0081800D03*
X0381250Y0071800D03*
X0391250Y0071800D03*
X0391250Y0081800D03*
X0401250Y0081800D03*
X0401250Y0071800D03*
X0401250Y0061800D03*
X0391250Y0061800D03*
X0381250Y0061800D03*
X0371250Y0061800D03*
X0361250Y0061800D03*
X0351250Y0061800D03*
X0341250Y0061800D03*
X0331250Y0061800D03*
X0321250Y0061800D03*
X0311250Y0061800D03*
X0311250Y0051800D03*
X0311250Y0041800D03*
X0321250Y0041800D03*
X0321250Y0051800D03*
X0331250Y0051800D03*
X0331250Y0041800D03*
X0341250Y0041800D03*
X0341250Y0051800D03*
X0351250Y0051800D03*
X0351250Y0041800D03*
X0361250Y0041800D03*
X0361250Y0051800D03*
X0371250Y0051800D03*
X0371250Y0041800D03*
X0381250Y0041800D03*
X0381250Y0051800D03*
X0391250Y0051800D03*
X0391250Y0041800D03*
X0401250Y0041800D03*
X0401250Y0051800D03*
X0421250Y0051800D03*
X0421250Y0041800D03*
X0431250Y0041800D03*
X0431250Y0051800D03*
X0431250Y0061800D03*
X0421250Y0061800D03*
X0421250Y0071800D03*
X0421250Y0081800D03*
X0431250Y0081800D03*
X0431250Y0071800D03*
X0431250Y0031800D03*
X0431250Y0021800D03*
X0421250Y0021800D03*
X0421250Y0031800D03*
X0401250Y0031800D03*
X0401250Y0021800D03*
X0391250Y0021800D03*
X0391250Y0031800D03*
X0381250Y0031800D03*
X0381250Y0021800D03*
X0371250Y0021800D03*
X0371250Y0031800D03*
X0361250Y0031800D03*
X0361250Y0021800D03*
X0351250Y0021800D03*
X0351250Y0031800D03*
X0341250Y0031800D03*
X0341250Y0021800D03*
X0331250Y0021800D03*
X0331250Y0031800D03*
X0321250Y0031800D03*
X0321250Y0021800D03*
X0311250Y0021800D03*
X0311250Y0031800D03*
X0311250Y0011800D03*
X0321250Y0011800D03*
X0331250Y0011800D03*
X0341250Y0011800D03*
X0351250Y0011800D03*
X0361250Y0011800D03*
X0371250Y0011800D03*
X0381250Y0011800D03*
X0391250Y0011800D03*
X0401250Y0011800D03*
X0421250Y0011800D03*
X0431250Y0011800D03*
X0286250Y0011800D03*
X0276250Y0011800D03*
X0276250Y0021800D03*
X0276250Y0031800D03*
X0286250Y0031800D03*
X0286250Y0021800D03*
X0391250Y0196800D03*
X0391250Y0206800D03*
X0391250Y0216800D03*
X0391250Y0226800D03*
X0391250Y0236800D03*
X0391250Y0246800D03*
X0391250Y0256800D03*
X0451250Y0231800D03*
X0451250Y0221800D03*
X0451250Y0211800D03*
X0316250Y0286800D03*
X0316250Y0296800D03*
X0316250Y0306800D03*
X0316250Y0316800D03*
X0316250Y0326800D03*
X0316250Y0336800D03*
X0316250Y0346800D03*
X0286250Y0346800D03*
X0286250Y0336800D03*
X0286250Y0326800D03*
X0286250Y0316800D03*
X0286250Y0306800D03*
X0286250Y0296800D03*
X0286250Y0286800D03*
X0266250Y0296800D03*
X0266250Y0306800D03*
X0266250Y0321800D03*
X0266250Y0331800D03*
D14*
X0111250Y0226643D03*
X0111250Y0216800D03*
X0111250Y0206957D03*
D15*
X0171250Y0241800D03*
X0191250Y0241800D03*
X0191250Y0281800D03*
X0171250Y0281800D03*
X0146250Y0291800D03*
X0136250Y0291800D03*
X0171250Y0156800D03*
X0171250Y0136800D03*
X0211250Y0136800D03*
X0211250Y0156800D03*
X0261250Y0126800D03*
X0261250Y0116800D03*
X0346250Y0156800D03*
X0366250Y0146800D03*
X0386250Y0146800D03*
X0371250Y0171800D03*
X0371250Y0181800D03*
X0351250Y0226800D03*
X0351250Y0236800D03*
X0331250Y0321800D03*
X0371250Y0321800D03*
X0401250Y0111800D03*
X0386250Y0106800D03*
X0366250Y0106800D03*
X0441250Y0111800D03*
X0441250Y0111800D03*
X0451250Y0111800D03*
D16*
X0231093Y0281800D03*
X0211407Y0281800D03*
X0376407Y0296800D03*
X0396093Y0296800D03*
D17*
X0346250Y0176800D03*
D18*
X0206250Y0111800D03*
X0196250Y0111800D03*
X0196250Y0101800D03*
X0196250Y0091800D03*
X0206250Y0091800D03*
X0206250Y0101800D03*
X0206250Y0081800D03*
X0206250Y0071800D03*
X0196250Y0071800D03*
X0196250Y0081800D03*
X0196250Y0061800D03*
X0206250Y0061800D03*
X0206250Y0051800D03*
X0206250Y0041800D03*
X0196250Y0041800D03*
X0196250Y0051800D03*
X0196250Y0031800D03*
X0196250Y0021800D03*
X0206250Y0021800D03*
X0206250Y0031800D03*
X0206250Y0011800D03*
X0196250Y0011800D03*
D19*
X0097850Y0003400D02*
X0097850Y0393901D01*
X0102880Y0393901D01*
X0101803Y0393455D01*
X0099595Y0391247D01*
X0098400Y0388361D01*
X0098400Y0385239D01*
X0099595Y0382353D01*
X0101803Y0380145D01*
X0104689Y0378950D01*
X0107811Y0378950D01*
X0110697Y0380145D01*
X0112905Y0382353D01*
X0114100Y0385239D01*
X0114100Y0388361D01*
X0112905Y0391247D01*
X0110697Y0393455D01*
X0109620Y0393901D01*
X0472880Y0393901D01*
X0471803Y0393455D01*
X0469595Y0391247D01*
X0468400Y0388361D01*
X0468400Y0385239D01*
X0469595Y0382353D01*
X0471803Y0380145D01*
X0474689Y0378950D01*
X0477811Y0378950D01*
X0480697Y0380145D01*
X0482905Y0382353D01*
X0484100Y0385239D01*
X0484100Y0388361D01*
X0482905Y0391247D01*
X0480697Y0393455D01*
X0479620Y0393901D01*
X0488351Y0393901D01*
X0488351Y0003400D01*
X0097850Y0003400D01*
X0097850Y0004997D02*
X0192446Y0004997D01*
X0192778Y0004665D02*
X0193660Y0004300D01*
X0208840Y0004300D01*
X0209722Y0004665D01*
X0210397Y0005341D01*
X0212709Y0007653D01*
X0213385Y0008328D01*
X0213750Y0009210D01*
X0213750Y0010906D01*
X0216355Y0013511D01*
X0216904Y0013511D01*
X0218113Y0014012D01*
X0219038Y0014937D01*
X0219539Y0016146D01*
X0219539Y0017454D01*
X0219038Y0018663D01*
X0218113Y0019588D01*
X0216904Y0020089D01*
X0215596Y0020089D01*
X0214387Y0019588D01*
X0213462Y0018663D01*
X0212961Y0017454D01*
X0212961Y0016905D01*
X0210801Y0014745D01*
X0208745Y0016800D01*
X0211550Y0019605D01*
X0211550Y0023995D01*
X0208745Y0026800D01*
X0211550Y0029605D01*
X0211550Y0033995D01*
X0208745Y0036800D01*
X0211550Y0039605D01*
X0211550Y0043995D01*
X0208745Y0046800D01*
X0211550Y0049605D01*
X0211550Y0053995D01*
X0208745Y0056800D01*
X0211550Y0059605D01*
X0211550Y0063995D01*
X0208745Y0066800D01*
X0211550Y0069605D01*
X0211550Y0073995D01*
X0208745Y0076800D01*
X0211550Y0079605D01*
X0211550Y0083995D01*
X0208745Y0086800D01*
X0211550Y0089605D01*
X0211550Y0093995D01*
X0208745Y0096800D01*
X0211550Y0099605D01*
X0211550Y0103995D01*
X0208745Y0106800D01*
X0211550Y0109605D01*
X0211550Y0113995D01*
X0208445Y0117100D01*
X0204055Y0117100D01*
X0201391Y0114437D01*
X0198528Y0117300D01*
X0196450Y0117300D01*
X0196450Y0112000D01*
X0196050Y0112000D01*
X0196050Y0117300D01*
X0193972Y0117300D01*
X0192650Y0115978D01*
X0192650Y0143820D01*
X0193113Y0144012D01*
X0194038Y0144937D01*
X0194539Y0146146D01*
X0194539Y0147454D01*
X0194400Y0147789D01*
X0215116Y0147789D01*
X0215998Y0148154D01*
X0216674Y0148829D01*
X0221355Y0153511D01*
X0221904Y0153511D01*
X0223113Y0154012D01*
X0224038Y0154937D01*
X0224238Y0155418D01*
X0233850Y0145806D01*
X0233850Y0103851D01*
X0233650Y0104051D01*
X0233650Y0106621D01*
X0233285Y0107503D01*
X0219539Y0121248D01*
X0219539Y0122454D01*
X0219038Y0123663D01*
X0218113Y0124588D01*
X0216904Y0125089D01*
X0215698Y0125089D01*
X0208650Y0132137D01*
X0208650Y0133177D01*
X0209427Y0132400D01*
X0213073Y0132400D01*
X0215650Y0134977D01*
X0215650Y0138623D01*
X0213073Y0141200D01*
X0209427Y0141200D01*
X0207336Y0139108D01*
X0204539Y0141905D01*
X0204539Y0142454D01*
X0204038Y0143663D01*
X0203113Y0144588D01*
X0201904Y0145089D01*
X0200596Y0145089D01*
X0199387Y0144588D01*
X0198462Y0143663D01*
X0197961Y0142454D01*
X0197961Y0141146D01*
X0198462Y0139937D01*
X0199387Y0139012D01*
X0200596Y0138511D01*
X0201145Y0138511D01*
X0203850Y0135806D01*
X0203850Y0130666D01*
X0204215Y0129784D01*
X0213037Y0120962D01*
X0213462Y0119937D01*
X0213850Y0119549D01*
X0213850Y0114051D01*
X0213462Y0113663D01*
X0212961Y0112454D01*
X0212961Y0111146D01*
X0213462Y0109937D01*
X0214387Y0109012D01*
X0215596Y0108511D01*
X0216904Y0108511D01*
X0218113Y0109012D01*
X0219038Y0109937D01*
X0219539Y0111146D01*
X0219539Y0112454D01*
X0219038Y0113663D01*
X0218650Y0114051D01*
X0218650Y0115349D01*
X0228850Y0105149D01*
X0228850Y0104051D01*
X0228462Y0103663D01*
X0227961Y0102454D01*
X0227961Y0101146D01*
X0228462Y0099937D01*
X0229387Y0099012D01*
X0230596Y0098511D01*
X0231904Y0098511D01*
X0233113Y0099012D01*
X0233850Y0099749D01*
X0233850Y0034051D01*
X0233462Y0033663D01*
X0232961Y0032454D01*
X0232961Y0031146D01*
X0233462Y0029937D01*
X0234387Y0029012D01*
X0235596Y0028511D01*
X0236904Y0028511D01*
X0238113Y0029012D01*
X0239038Y0029937D01*
X0239539Y0031146D01*
X0239539Y0032454D01*
X0239038Y0033663D01*
X0238650Y0034051D01*
X0238650Y0088995D01*
X0239818Y0088511D01*
X0240961Y0088511D01*
X0240961Y0030089D01*
X0240596Y0030089D01*
X0239387Y0029588D01*
X0238462Y0028663D01*
X0237961Y0027454D01*
X0237961Y0026146D01*
X0238462Y0024937D01*
X0239387Y0024012D01*
X0240596Y0023511D01*
X0241904Y0023511D01*
X0243113Y0024012D01*
X0244038Y0024937D01*
X0244539Y0026146D01*
X0244539Y0026695D01*
X0244721Y0026876D01*
X0245396Y0027552D01*
X0245761Y0028434D01*
X0245761Y0093511D01*
X0246904Y0093511D01*
X0248113Y0094012D01*
X0248850Y0094749D01*
X0248850Y0024051D01*
X0248462Y0023663D01*
X0247961Y0022454D01*
X0247961Y0021146D01*
X0248462Y0019937D01*
X0249387Y0019012D01*
X0250596Y0018511D01*
X0251904Y0018511D01*
X0253113Y0019012D01*
X0254038Y0019937D01*
X0254539Y0021146D01*
X0254539Y0022454D01*
X0254038Y0023663D01*
X0253650Y0024051D01*
X0253650Y0039749D01*
X0254387Y0039012D01*
X0255596Y0038511D01*
X0256904Y0038511D01*
X0258113Y0039012D01*
X0259038Y0039937D01*
X0259539Y0041146D01*
X0259539Y0042454D01*
X0259038Y0043663D01*
X0258650Y0044051D01*
X0258650Y0059749D01*
X0259387Y0059012D01*
X0260596Y0058511D01*
X0261145Y0058511D01*
X0268750Y0050906D01*
X0268750Y0009210D01*
X0269115Y0008328D01*
X0269791Y0007653D01*
X0272103Y0005341D01*
X0272103Y0005341D01*
X0272778Y0004665D01*
X0273660Y0004300D01*
X0288840Y0004300D01*
X0289722Y0004665D01*
X0290397Y0005341D01*
X0292709Y0007653D01*
X0292709Y0007653D01*
X0293385Y0008328D01*
X0293750Y0009210D01*
X0293750Y0081853D01*
X0294576Y0081511D01*
X0297924Y0081511D01*
X0298806Y0081876D01*
X0317330Y0100400D01*
X0326813Y0100400D01*
X0327695Y0100765D01*
X0337698Y0110769D01*
X0337995Y0111065D01*
X0338462Y0109937D01*
X0339387Y0109012D01*
X0340596Y0108511D01*
X0341904Y0108511D01*
X0343113Y0109012D01*
X0344038Y0109937D01*
X0344539Y0111146D01*
X0344539Y0112454D01*
X0344038Y0113663D01*
X0343650Y0114051D01*
X0343650Y0129549D01*
X0344038Y0129937D01*
X0344539Y0131146D01*
X0344539Y0132454D01*
X0344038Y0133663D01*
X0343113Y0134588D01*
X0341904Y0135089D01*
X0340596Y0135089D01*
X0339387Y0134588D01*
X0338739Y0133940D01*
X0338739Y0171809D01*
X0342144Y0175214D01*
X0342520Y0174308D01*
X0343758Y0173070D01*
X0345375Y0172400D01*
X0347125Y0172400D01*
X0348742Y0173070D01*
X0349980Y0174308D01*
X0350650Y0175925D01*
X0350650Y0177675D01*
X0349980Y0179292D01*
X0348742Y0180530D01*
X0347836Y0180906D01*
X0353939Y0187009D01*
X0353939Y0150577D01*
X0354304Y0149695D01*
X0354979Y0149020D01*
X0398234Y0105765D01*
X0399116Y0105400D01*
X0404256Y0105400D01*
X0407961Y0101695D01*
X0407961Y0101146D01*
X0408462Y0099937D01*
X0409387Y0099012D01*
X0410596Y0098511D01*
X0411904Y0098511D01*
X0413113Y0099012D01*
X0414038Y0099937D01*
X0414539Y0101146D01*
X0414539Y0102454D01*
X0414038Y0103663D01*
X0413113Y0104588D01*
X0411904Y0105089D01*
X0411355Y0105089D01*
X0407285Y0109159D01*
X0406609Y0109835D01*
X0405850Y0110149D01*
X0405850Y0111800D01*
X0405850Y0113705D01*
X0403155Y0116400D01*
X0401250Y0116400D01*
X0401250Y0111800D01*
X0401250Y0111800D01*
X0405850Y0111800D01*
X0401250Y0111800D01*
X0401250Y0111800D01*
X0401250Y0116400D01*
X0399345Y0116400D01*
X0396866Y0113921D01*
X0377167Y0133620D01*
X0378113Y0134012D01*
X0379038Y0134937D01*
X0379539Y0136146D01*
X0379539Y0137454D01*
X0379038Y0138663D01*
X0378650Y0139051D01*
X0378650Y0154549D01*
X0379038Y0154937D01*
X0379539Y0156146D01*
X0379539Y0157454D01*
X0379038Y0158663D01*
X0378113Y0159588D01*
X0376904Y0160089D01*
X0375596Y0160089D01*
X0374387Y0159588D01*
X0373462Y0158663D01*
X0372961Y0157454D01*
X0372961Y0156146D01*
X0373462Y0154937D01*
X0373850Y0154549D01*
X0373850Y0139051D01*
X0373462Y0138663D01*
X0373070Y0137717D01*
X0368230Y0142557D01*
X0370650Y0144977D01*
X0370650Y0148623D01*
X0368073Y0151200D01*
X0364427Y0151200D01*
X0362007Y0148780D01*
X0358739Y0152048D01*
X0358739Y0209660D01*
X0359387Y0209012D01*
X0360596Y0208511D01*
X0361904Y0208511D01*
X0363113Y0209012D01*
X0364038Y0209937D01*
X0364539Y0211146D01*
X0364539Y0212454D01*
X0364038Y0213663D01*
X0363113Y0214588D01*
X0361904Y0215089D01*
X0361355Y0215089D01*
X0360939Y0215505D01*
X0360939Y0235645D01*
X0360574Y0236527D01*
X0318852Y0278248D01*
X0318177Y0278924D01*
X0317295Y0279289D01*
X0235389Y0279289D01*
X0235697Y0279893D01*
X0235939Y0280637D01*
X0236061Y0281409D01*
X0236061Y0281616D01*
X0231277Y0281616D01*
X0231277Y0281984D01*
X0236061Y0281984D01*
X0236061Y0282191D01*
X0235939Y0282963D01*
X0235697Y0283707D01*
X0235342Y0284404D01*
X0234882Y0285037D01*
X0234329Y0285590D01*
X0233697Y0286049D01*
X0233000Y0286404D01*
X0232256Y0286646D01*
X0231484Y0286768D01*
X0231277Y0286768D01*
X0231277Y0281984D01*
X0230908Y0281984D01*
X0230908Y0281616D01*
X0226124Y0281616D01*
X0226124Y0281409D01*
X0226246Y0280637D01*
X0226488Y0279893D01*
X0226796Y0279289D01*
X0217093Y0279289D01*
X0216211Y0278924D01*
X0215536Y0278248D01*
X0166588Y0229300D01*
X0143660Y0229300D01*
X0142778Y0228935D01*
X0142103Y0228259D01*
X0139791Y0225947D01*
X0139791Y0225947D01*
X0139221Y0225377D01*
X0139539Y0226146D01*
X0139539Y0227454D01*
X0139038Y0228663D01*
X0138113Y0229588D01*
X0136904Y0230089D01*
X0135596Y0230089D01*
X0134387Y0229588D01*
X0133462Y0228663D01*
X0132961Y0227454D01*
X0132961Y0226146D01*
X0133462Y0224937D01*
X0133850Y0224549D01*
X0133850Y0214051D01*
X0133462Y0213663D01*
X0132961Y0212454D01*
X0132961Y0211146D01*
X0133462Y0209937D01*
X0134387Y0209012D01*
X0135596Y0208511D01*
X0136904Y0208511D01*
X0138113Y0209012D01*
X0138750Y0209649D01*
X0138750Y0198780D01*
X0121002Y0181031D01*
X0120326Y0180356D01*
X0119961Y0179474D01*
X0119961Y0171126D01*
X0120326Y0170244D01*
X0128850Y0161720D01*
X0128850Y0130921D01*
X0128256Y0130327D01*
X0127707Y0130327D01*
X0126498Y0129826D01*
X0125573Y0128901D01*
X0125072Y0127692D01*
X0125072Y0126384D01*
X0125573Y0125175D01*
X0126498Y0124250D01*
X0127707Y0123749D01*
X0129015Y0123749D01*
X0130224Y0124250D01*
X0131149Y0125175D01*
X0131650Y0126384D01*
X0131650Y0126933D01*
X0132609Y0127892D01*
X0133285Y0128567D01*
X0133650Y0129449D01*
X0133650Y0163192D01*
X0133285Y0164074D01*
X0133230Y0164129D01*
X0133501Y0164400D01*
X0147642Y0164400D01*
X0148524Y0164765D01*
X0186047Y0202289D01*
X0186453Y0202289D01*
X0198401Y0190341D01*
X0199076Y0189665D01*
X0199958Y0189300D01*
X0279099Y0189300D01*
X0278462Y0188663D01*
X0277961Y0187454D01*
X0277961Y0186905D01*
X0266539Y0175483D01*
X0266539Y0178474D01*
X0266174Y0179356D01*
X0263806Y0181724D01*
X0262924Y0182089D01*
X0234539Y0182089D01*
X0234539Y0182454D01*
X0234038Y0183663D01*
X0233113Y0184588D01*
X0231904Y0185089D01*
X0230596Y0185089D01*
X0229387Y0184588D01*
X0228462Y0183663D01*
X0227961Y0182454D01*
X0227961Y0181146D01*
X0228462Y0179937D01*
X0229199Y0179200D01*
X0188501Y0179200D01*
X0188113Y0179588D01*
X0186904Y0180089D01*
X0185596Y0180089D01*
X0184387Y0179588D01*
X0183462Y0178663D01*
X0182961Y0177454D01*
X0182961Y0176146D01*
X0183462Y0174937D01*
X0184387Y0174012D01*
X0185408Y0173589D01*
X0173393Y0173589D01*
X0172511Y0173224D01*
X0171836Y0172548D01*
X0157002Y0157714D01*
X0156326Y0157039D01*
X0155961Y0156157D01*
X0155961Y0124669D01*
X0155954Y0124683D01*
X0155445Y0125383D01*
X0154833Y0125995D01*
X0154133Y0126504D01*
X0153361Y0126897D01*
X0152538Y0127165D01*
X0151683Y0127300D01*
X0151450Y0127300D01*
X0151450Y0122000D01*
X0151050Y0122000D01*
X0151050Y0127300D01*
X0150817Y0127300D01*
X0149962Y0127165D01*
X0149139Y0126897D01*
X0148367Y0126504D01*
X0147667Y0125995D01*
X0147055Y0125383D01*
X0146546Y0124683D01*
X0146153Y0123911D01*
X0145885Y0123088D01*
X0145750Y0122233D01*
X0145750Y0122000D01*
X0151050Y0122000D01*
X0151050Y0121600D01*
X0145750Y0121600D01*
X0145750Y0121367D01*
X0145885Y0120512D01*
X0146153Y0119689D01*
X0146546Y0118917D01*
X0147055Y0118217D01*
X0147667Y0117605D01*
X0148367Y0117096D01*
X0149139Y0116703D01*
X0149194Y0116685D01*
X0148248Y0116293D01*
X0146757Y0114802D01*
X0145950Y0112854D01*
X0145950Y0110746D01*
X0146757Y0108798D01*
X0148248Y0107307D01*
X0149472Y0106800D01*
X0148248Y0106293D01*
X0146757Y0104802D01*
X0145950Y0102854D01*
X0145950Y0100746D01*
X0146757Y0098798D01*
X0148248Y0097307D01*
X0149472Y0096800D01*
X0148248Y0096293D01*
X0146757Y0094802D01*
X0145950Y0092854D01*
X0145950Y0090746D01*
X0146757Y0088798D01*
X0148248Y0087307D01*
X0149472Y0086800D01*
X0148248Y0086293D01*
X0146757Y0084802D01*
X0145950Y0082854D01*
X0145950Y0080746D01*
X0146757Y0078798D01*
X0148248Y0077307D01*
X0149472Y0076800D01*
X0148248Y0076293D01*
X0146757Y0074802D01*
X0145950Y0072854D01*
X0145950Y0070746D01*
X0146757Y0068798D01*
X0148248Y0067307D01*
X0149472Y0066800D01*
X0148248Y0066293D01*
X0146757Y0064802D01*
X0145950Y0062854D01*
X0145950Y0060746D01*
X0146757Y0058798D01*
X0148248Y0057307D01*
X0150196Y0056500D01*
X0152304Y0056500D01*
X0154252Y0057307D01*
X0155743Y0058798D01*
X0155961Y0059324D01*
X0155961Y0030126D01*
X0156326Y0029244D01*
X0168694Y0016876D01*
X0169576Y0016511D01*
X0172567Y0016511D01*
X0171145Y0015089D01*
X0170596Y0015089D01*
X0169387Y0014588D01*
X0097850Y0014588D01*
X0097850Y0012990D02*
X0168183Y0012990D01*
X0167961Y0012454D02*
X0167961Y0011146D01*
X0168462Y0009937D01*
X0169387Y0009012D01*
X0170596Y0008511D01*
X0171904Y0008511D01*
X0173113Y0009012D01*
X0174038Y0009937D01*
X0174539Y0011146D01*
X0174539Y0011695D01*
X0178262Y0015418D01*
X0178462Y0014937D01*
X0179387Y0014012D01*
X0180596Y0013511D01*
X0181904Y0013511D01*
X0183113Y0014012D01*
X0184038Y0014937D01*
X0184539Y0016146D01*
X0184539Y0017454D01*
X0184038Y0018663D01*
X0183650Y0019051D01*
X0183650Y0039549D01*
X0184038Y0039937D01*
X0184539Y0041146D01*
X0184539Y0042454D01*
X0184038Y0043663D01*
X0183230Y0044471D01*
X0183285Y0044526D01*
X0183650Y0045408D01*
X0183650Y0049400D01*
X0191155Y0049400D01*
X0193755Y0046800D01*
X0190950Y0043995D01*
X0190950Y0039605D01*
X0193755Y0036800D01*
X0190950Y0033995D01*
X0190950Y0029605D01*
X0193755Y0026800D01*
X0190950Y0023995D01*
X0190950Y0019605D01*
X0192199Y0018356D01*
X0189115Y0015272D01*
X0188750Y0014390D01*
X0188750Y0009210D01*
X0189115Y0008328D01*
X0189791Y0007653D01*
X0192103Y0005341D01*
X0192778Y0004665D01*
X0194137Y0006700D02*
X0208362Y0006700D01*
X0211350Y0009688D01*
X0211350Y0011900D01*
X0216250Y0016800D01*
X0218689Y0014588D02*
X0268750Y0014588D01*
X0268750Y0012990D02*
X0215834Y0012990D01*
X0214235Y0011391D02*
X0268750Y0011391D01*
X0268750Y0009793D02*
X0213750Y0009793D01*
X0213251Y0008194D02*
X0269249Y0008194D01*
X0269791Y0007653D02*
X0269791Y0007653D01*
X0270848Y0006596D02*
X0211652Y0006596D01*
X0210054Y0004997D02*
X0272446Y0004997D01*
X0274138Y0006700D02*
X0288363Y0006700D01*
X0291350Y0009688D01*
X0291350Y0083913D01*
X0288363Y0086900D01*
X0284138Y0086900D01*
X0284038Y0086800D01*
X0281250Y0086800D01*
X0277447Y0088911D02*
X0280336Y0091800D01*
X0286250Y0091800D01*
X0281250Y0096800D02*
X0281250Y0111800D01*
X0273850Y0112097D02*
X0258650Y0112097D01*
X0259345Y0112200D02*
X0261250Y0112200D01*
X0263155Y0112200D01*
X0265850Y0114895D01*
X0265850Y0116800D01*
X0265850Y0118705D01*
X0265155Y0119400D01*
X0273850Y0119400D01*
X0273850Y0097594D01*
X0269539Y0101905D01*
X0269539Y0102454D01*
X0269038Y0103663D01*
X0268113Y0104588D01*
X0266904Y0105089D01*
X0265596Y0105089D01*
X0264387Y0104588D01*
X0263462Y0103663D01*
X0262961Y0102454D01*
X0262961Y0101146D01*
X0263462Y0099937D01*
X0264387Y0099012D01*
X0265596Y0098511D01*
X0266145Y0098511D01*
X0270961Y0093695D01*
X0270961Y0090126D01*
X0271326Y0089244D01*
X0273019Y0087552D01*
X0273694Y0086876D01*
X0274175Y0086677D01*
X0273248Y0086293D01*
X0271757Y0084802D01*
X0270950Y0082854D01*
X0270950Y0080746D01*
X0271757Y0078798D01*
X0273248Y0077307D01*
X0274472Y0076800D01*
X0273248Y0076293D01*
X0271772Y0074817D01*
X0271115Y0075089D01*
X0269807Y0075089D01*
X0268598Y0074588D01*
X0267673Y0073663D01*
X0267172Y0072454D01*
X0267172Y0071146D01*
X0267673Y0069937D01*
X0268598Y0069012D01*
X0269807Y0068511D01*
X0271115Y0068511D01*
X0271772Y0068783D01*
X0273248Y0067307D01*
X0274472Y0066800D01*
X0273248Y0066293D01*
X0271757Y0064802D01*
X0270950Y0062854D01*
X0270950Y0060746D01*
X0271757Y0058798D01*
X0273248Y0057307D01*
X0274472Y0056800D01*
X0273248Y0056293D01*
X0271757Y0054802D01*
X0271723Y0054721D01*
X0264539Y0061905D01*
X0264539Y0062454D01*
X0264038Y0063663D01*
X0263113Y0064588D01*
X0261904Y0065089D01*
X0260596Y0065089D01*
X0259387Y0064588D01*
X0258650Y0063851D01*
X0258650Y0112895D01*
X0259345Y0112200D01*
X0258650Y0110499D02*
X0273850Y0110499D01*
X0273850Y0108900D02*
X0258650Y0108900D01*
X0258650Y0107302D02*
X0273850Y0107302D01*
X0273850Y0105703D02*
X0258650Y0105703D01*
X0258650Y0104105D02*
X0263903Y0104105D01*
X0262983Y0102506D02*
X0258650Y0102506D01*
X0258650Y0100908D02*
X0263060Y0100908D01*
X0264089Y0099309D02*
X0258650Y0099309D01*
X0258650Y0097711D02*
X0266945Y0097711D01*
X0268544Y0096112D02*
X0258650Y0096112D01*
X0258650Y0094514D02*
X0270142Y0094514D01*
X0270961Y0092915D02*
X0258650Y0092915D01*
X0258650Y0091317D02*
X0270961Y0091317D01*
X0271130Y0089718D02*
X0258650Y0089718D01*
X0258650Y0088120D02*
X0272451Y0088120D01*
X0273798Y0086521D02*
X0258650Y0086521D01*
X0258650Y0084923D02*
X0271877Y0084923D01*
X0271145Y0083324D02*
X0258650Y0083324D01*
X0258650Y0081726D02*
X0270950Y0081726D01*
X0271206Y0080127D02*
X0258650Y0080127D01*
X0258650Y0078529D02*
X0272026Y0078529D01*
X0274158Y0076930D02*
X0258650Y0076930D01*
X0258650Y0075332D02*
X0272286Y0075332D01*
X0267743Y0073733D02*
X0258650Y0073733D01*
X0258650Y0072134D02*
X0267172Y0072134D01*
X0267425Y0070536D02*
X0258650Y0070536D01*
X0258650Y0068937D02*
X0268777Y0068937D01*
X0273216Y0067339D02*
X0258650Y0067339D01*
X0258650Y0065740D02*
X0272695Y0065740D01*
X0271483Y0064142D02*
X0263559Y0064142D01*
X0264502Y0062543D02*
X0270950Y0062543D01*
X0270950Y0060945D02*
X0265499Y0060945D01*
X0267098Y0059346D02*
X0271530Y0059346D01*
X0272807Y0057748D02*
X0268696Y0057748D01*
X0270295Y0056149D02*
X0273104Y0056149D01*
X0271150Y0051900D02*
X0261250Y0061800D01*
X0258941Y0064142D02*
X0258650Y0064142D01*
X0258650Y0059346D02*
X0259052Y0059346D01*
X0258650Y0057748D02*
X0261908Y0057748D01*
X0263506Y0056149D02*
X0258650Y0056149D01*
X0258650Y0054551D02*
X0265105Y0054551D01*
X0266704Y0052952D02*
X0258650Y0052952D01*
X0258650Y0051354D02*
X0268302Y0051354D01*
X0268750Y0049755D02*
X0258650Y0049755D01*
X0258650Y0048157D02*
X0268750Y0048157D01*
X0268750Y0046558D02*
X0258650Y0046558D01*
X0258650Y0044960D02*
X0268750Y0044960D01*
X0268750Y0043361D02*
X0259163Y0043361D01*
X0259539Y0041763D02*
X0268750Y0041763D01*
X0268750Y0040164D02*
X0259132Y0040164D01*
X0257036Y0038566D02*
X0268750Y0038566D01*
X0268750Y0036967D02*
X0253650Y0036967D01*
X0253650Y0035369D02*
X0268750Y0035369D01*
X0268750Y0033770D02*
X0253650Y0033770D01*
X0253650Y0032172D02*
X0268750Y0032172D01*
X0268750Y0030573D02*
X0253650Y0030573D01*
X0253650Y0028975D02*
X0268750Y0028975D01*
X0268750Y0027376D02*
X0253650Y0027376D01*
X0253650Y0025778D02*
X0268750Y0025778D01*
X0268750Y0024179D02*
X0253650Y0024179D01*
X0254487Y0022581D02*
X0268750Y0022581D01*
X0268750Y0020982D02*
X0254471Y0020982D01*
X0253485Y0019384D02*
X0268750Y0019384D01*
X0268750Y0017785D02*
X0219402Y0017785D01*
X0219539Y0016187D02*
X0268750Y0016187D01*
X0271150Y0009688D02*
X0271150Y0051900D01*
X0256250Y0041800D02*
X0256250Y0128689D01*
X0263450Y0135889D01*
X0263450Y0138757D01*
X0286493Y0161800D01*
X0297007Y0161800D01*
X0299850Y0164643D01*
X0299850Y0180400D01*
X0306250Y0186800D01*
X0302961Y0186905D02*
X0302961Y0187454D01*
X0303462Y0188663D01*
X0304099Y0189300D01*
X0297773Y0189300D01*
X0297780Y0189292D01*
X0298450Y0187675D01*
X0298450Y0185925D01*
X0297780Y0184308D01*
X0296542Y0183070D01*
X0294925Y0182400D01*
X0287575Y0182400D01*
X0285958Y0183070D01*
X0284720Y0184308D01*
X0284249Y0185445D01*
X0284038Y0184937D01*
X0283113Y0184012D01*
X0281904Y0183511D01*
X0281355Y0183511D01*
X0248650Y0150806D01*
X0248650Y0099051D01*
X0248850Y0098851D01*
X0248850Y0127277D01*
X0249215Y0128159D01*
X0258672Y0137616D01*
X0258462Y0137826D01*
X0257961Y0139035D01*
X0257961Y0140343D01*
X0258462Y0141552D01*
X0259387Y0142477D01*
X0260596Y0142978D01*
X0261904Y0142978D01*
X0263113Y0142477D01*
X0263445Y0142146D01*
X0284459Y0163159D01*
X0285022Y0163723D01*
X0284941Y0163803D01*
X0284516Y0164389D01*
X0284187Y0165034D01*
X0283963Y0165723D01*
X0283850Y0166438D01*
X0283850Y0166800D01*
X0291250Y0166800D01*
X0291250Y0166800D01*
X0291250Y0171400D01*
X0294412Y0171400D01*
X0295127Y0171287D01*
X0295816Y0171063D01*
X0296461Y0170734D01*
X0297047Y0170309D01*
X0297450Y0169905D01*
X0297450Y0173977D01*
X0296542Y0173070D01*
X0294925Y0172400D01*
X0287575Y0172400D01*
X0285958Y0173070D01*
X0284720Y0174308D01*
X0284050Y0175925D01*
X0284050Y0177675D01*
X0284720Y0179292D01*
X0285958Y0180530D01*
X0287575Y0181200D01*
X0294925Y0181200D01*
X0296542Y0180530D01*
X0297450Y0179623D01*
X0297450Y0180877D01*
X0297815Y0181759D01*
X0298491Y0182435D01*
X0302961Y0186905D01*
X0302961Y0187227D02*
X0298450Y0187227D01*
X0298327Y0185629D02*
X0301685Y0185629D01*
X0300086Y0184030D02*
X0297503Y0184030D01*
X0298488Y0182432D02*
X0295002Y0182432D01*
X0295811Y0180833D02*
X0297450Y0180833D01*
X0297450Y0172841D02*
X0295989Y0172841D01*
X0295264Y0171242D02*
X0297450Y0171242D01*
X0291250Y0171242D02*
X0291250Y0171242D01*
X0291250Y0171400D02*
X0288088Y0171400D01*
X0287373Y0171287D01*
X0286684Y0171063D01*
X0286039Y0170734D01*
X0285453Y0170309D01*
X0284941Y0169797D01*
X0284516Y0169211D01*
X0284187Y0168566D01*
X0283963Y0167877D01*
X0283850Y0167162D01*
X0283850Y0166800D01*
X0291250Y0166800D01*
X0291250Y0166800D01*
X0291250Y0171400D01*
X0291250Y0169644D02*
X0291250Y0169644D01*
X0291250Y0168045D02*
X0291250Y0168045D01*
X0287236Y0171242D02*
X0269086Y0171242D01*
X0267488Y0169644D02*
X0284830Y0169644D01*
X0284018Y0168045D02*
X0265889Y0168045D01*
X0264291Y0166447D02*
X0283850Y0166447D01*
X0284282Y0164848D02*
X0262692Y0164848D01*
X0261094Y0163250D02*
X0284549Y0163250D01*
X0282950Y0161651D02*
X0259495Y0161651D01*
X0257897Y0160053D02*
X0281352Y0160053D01*
X0279753Y0158454D02*
X0256298Y0158454D01*
X0254700Y0156856D02*
X0278155Y0156856D01*
X0276556Y0155257D02*
X0253101Y0155257D01*
X0251503Y0153659D02*
X0274958Y0153659D01*
X0273359Y0152060D02*
X0249904Y0152060D01*
X0248650Y0150462D02*
X0271761Y0150462D01*
X0270162Y0148863D02*
X0248650Y0148863D01*
X0248650Y0147265D02*
X0268564Y0147265D01*
X0266965Y0145666D02*
X0248650Y0145666D01*
X0248650Y0144068D02*
X0265367Y0144068D01*
X0263768Y0142469D02*
X0263121Y0142469D01*
X0261250Y0139689D02*
X0261250Y0136800D01*
X0251250Y0126800D01*
X0251250Y0021800D01*
X0249015Y0019384D02*
X0218318Y0019384D01*
X0214182Y0019384D02*
X0211329Y0019384D01*
X0211550Y0020982D02*
X0248029Y0020982D01*
X0248013Y0022581D02*
X0211550Y0022581D01*
X0211366Y0024179D02*
X0239220Y0024179D01*
X0238113Y0025778D02*
X0209768Y0025778D01*
X0209322Y0027376D02*
X0237961Y0027376D01*
X0238024Y0028975D02*
X0238773Y0028975D01*
X0239302Y0030573D02*
X0240961Y0030573D01*
X0240961Y0032172D02*
X0239539Y0032172D01*
X0238931Y0033770D02*
X0240961Y0033770D01*
X0240961Y0035369D02*
X0238650Y0035369D01*
X0238650Y0036967D02*
X0240961Y0036967D01*
X0240961Y0038566D02*
X0238650Y0038566D01*
X0238650Y0040164D02*
X0240961Y0040164D01*
X0240961Y0041763D02*
X0238650Y0041763D01*
X0238650Y0043361D02*
X0240961Y0043361D01*
X0240961Y0044960D02*
X0238650Y0044960D01*
X0238650Y0046558D02*
X0240961Y0046558D01*
X0240961Y0048157D02*
X0238650Y0048157D01*
X0238650Y0049755D02*
X0240961Y0049755D01*
X0240961Y0051354D02*
X0238650Y0051354D01*
X0238650Y0052952D02*
X0240961Y0052952D01*
X0240961Y0054551D02*
X0238650Y0054551D01*
X0238650Y0056149D02*
X0240961Y0056149D01*
X0240961Y0057748D02*
X0238650Y0057748D01*
X0238650Y0059346D02*
X0240961Y0059346D01*
X0240961Y0060945D02*
X0238650Y0060945D01*
X0238650Y0062543D02*
X0240961Y0062543D01*
X0240961Y0064142D02*
X0238650Y0064142D01*
X0238650Y0065740D02*
X0240961Y0065740D01*
X0240961Y0067339D02*
X0238650Y0067339D01*
X0238650Y0068937D02*
X0240961Y0068937D01*
X0240961Y0070536D02*
X0238650Y0070536D01*
X0238650Y0072134D02*
X0240961Y0072134D01*
X0240961Y0073733D02*
X0238650Y0073733D01*
X0238650Y0075332D02*
X0240961Y0075332D01*
X0240961Y0076930D02*
X0238650Y0076930D01*
X0238650Y0078529D02*
X0240961Y0078529D01*
X0240961Y0080127D02*
X0238650Y0080127D01*
X0238650Y0081726D02*
X0240961Y0081726D01*
X0240961Y0083324D02*
X0238650Y0083324D01*
X0238650Y0084923D02*
X0240961Y0084923D01*
X0240961Y0086521D02*
X0238650Y0086521D01*
X0238650Y0088120D02*
X0240961Y0088120D01*
X0240472Y0091800D02*
X0239661Y0092611D01*
X0239661Y0142989D01*
X0239972Y0143300D01*
X0236250Y0146800D02*
X0236250Y0031800D01*
X0233198Y0030573D02*
X0211550Y0030573D01*
X0211550Y0032172D02*
X0232961Y0032172D01*
X0233569Y0033770D02*
X0211550Y0033770D01*
X0210177Y0035369D02*
X0233850Y0035369D01*
X0233850Y0036967D02*
X0208913Y0036967D01*
X0210511Y0038566D02*
X0233850Y0038566D01*
X0233850Y0040164D02*
X0211550Y0040164D01*
X0211550Y0041763D02*
X0233850Y0041763D01*
X0233850Y0043361D02*
X0211550Y0043361D01*
X0210586Y0044960D02*
X0233850Y0044960D01*
X0233850Y0046558D02*
X0222445Y0046558D01*
X0222304Y0046500D02*
X0224252Y0047307D01*
X0225743Y0048798D01*
X0226550Y0050746D01*
X0226550Y0052854D01*
X0225743Y0054802D01*
X0224252Y0056293D01*
X0222304Y0057100D01*
X0220196Y0057100D01*
X0218248Y0056293D01*
X0216757Y0054802D01*
X0215950Y0052854D01*
X0215950Y0050746D01*
X0216757Y0048798D01*
X0218248Y0047307D01*
X0220196Y0046500D01*
X0222304Y0046500D01*
X0220055Y0046558D02*
X0208987Y0046558D01*
X0210102Y0048157D02*
X0217398Y0048157D01*
X0216360Y0049755D02*
X0211550Y0049755D01*
X0211550Y0051354D02*
X0215950Y0051354D01*
X0215991Y0052952D02*
X0211550Y0052952D01*
X0210994Y0054551D02*
X0216653Y0054551D01*
X0218104Y0056149D02*
X0209396Y0056149D01*
X0209693Y0057748D02*
X0233850Y0057748D01*
X0233850Y0059346D02*
X0211292Y0059346D01*
X0211550Y0060945D02*
X0233850Y0060945D01*
X0233850Y0062543D02*
X0211550Y0062543D01*
X0211403Y0064142D02*
X0233850Y0064142D01*
X0233850Y0065740D02*
X0209805Y0065740D01*
X0209284Y0067339D02*
X0233850Y0067339D01*
X0233850Y0068937D02*
X0210883Y0068937D01*
X0211550Y0070536D02*
X0233850Y0070536D01*
X0233850Y0072134D02*
X0211550Y0072134D01*
X0211550Y0073733D02*
X0233850Y0073733D01*
X0233850Y0075332D02*
X0210214Y0075332D01*
X0208875Y0076930D02*
X0219158Y0076930D01*
X0218248Y0077307D02*
X0220196Y0076500D01*
X0222304Y0076500D01*
X0224252Y0077307D01*
X0225743Y0078798D01*
X0226550Y0080746D01*
X0226550Y0082854D01*
X0225743Y0084802D01*
X0224252Y0086293D01*
X0222304Y0087100D01*
X0220196Y0087100D01*
X0218248Y0086293D01*
X0216757Y0084802D01*
X0215950Y0082854D01*
X0215950Y0080746D01*
X0216757Y0078798D01*
X0218248Y0077307D01*
X0217026Y0078529D02*
X0210474Y0078529D01*
X0211550Y0080127D02*
X0216206Y0080127D01*
X0215950Y0081726D02*
X0211550Y0081726D01*
X0211550Y0083324D02*
X0216145Y0083324D01*
X0216877Y0084923D02*
X0210623Y0084923D01*
X0209024Y0086521D02*
X0218798Y0086521D01*
X0223702Y0086521D02*
X0233850Y0086521D01*
X0233850Y0084923D02*
X0225623Y0084923D01*
X0226355Y0083324D02*
X0233850Y0083324D01*
X0233850Y0081726D02*
X0226550Y0081726D01*
X0226294Y0080127D02*
X0233850Y0080127D01*
X0233850Y0078529D02*
X0225474Y0078529D01*
X0223342Y0076930D02*
X0233850Y0076930D01*
X0245761Y0076930D02*
X0248850Y0076930D01*
X0248850Y0075332D02*
X0245761Y0075332D01*
X0245761Y0073733D02*
X0248850Y0073733D01*
X0248850Y0072134D02*
X0245761Y0072134D01*
X0245761Y0070536D02*
X0248850Y0070536D01*
X0248850Y0068937D02*
X0245761Y0068937D01*
X0245761Y0067339D02*
X0248850Y0067339D01*
X0248850Y0065740D02*
X0245761Y0065740D01*
X0245761Y0064142D02*
X0248850Y0064142D01*
X0248850Y0062543D02*
X0245761Y0062543D01*
X0245761Y0060945D02*
X0248850Y0060945D01*
X0248850Y0059346D02*
X0245761Y0059346D01*
X0245761Y0057748D02*
X0248850Y0057748D01*
X0248850Y0056149D02*
X0245761Y0056149D01*
X0245761Y0054551D02*
X0248850Y0054551D01*
X0248850Y0052952D02*
X0245761Y0052952D01*
X0245761Y0051354D02*
X0248850Y0051354D01*
X0248850Y0049755D02*
X0245761Y0049755D01*
X0245761Y0048157D02*
X0248850Y0048157D01*
X0248850Y0046558D02*
X0245761Y0046558D01*
X0245761Y0044960D02*
X0248850Y0044960D01*
X0248850Y0043361D02*
X0245761Y0043361D01*
X0245761Y0041763D02*
X0248850Y0041763D01*
X0248850Y0040164D02*
X0245761Y0040164D01*
X0245761Y0038566D02*
X0248850Y0038566D01*
X0248850Y0036967D02*
X0245761Y0036967D01*
X0245761Y0035369D02*
X0248850Y0035369D01*
X0248850Y0033770D02*
X0245761Y0033770D01*
X0245761Y0032172D02*
X0248850Y0032172D01*
X0248850Y0030573D02*
X0245761Y0030573D01*
X0245761Y0028975D02*
X0248850Y0028975D01*
X0248850Y0027376D02*
X0245220Y0027376D01*
X0244386Y0025778D02*
X0248850Y0025778D01*
X0248850Y0024179D02*
X0243280Y0024179D01*
X0241250Y0026800D02*
X0243361Y0028911D01*
X0243361Y0152022D01*
X0246250Y0154911D01*
X0246250Y0161800D01*
X0246250Y0151800D02*
X0281250Y0186800D01*
X0278625Y0188826D02*
X0172584Y0188826D01*
X0170986Y0187227D02*
X0277961Y0187227D01*
X0276685Y0185629D02*
X0169387Y0185629D01*
X0167789Y0184030D02*
X0228829Y0184030D01*
X0227961Y0182432D02*
X0166190Y0182432D01*
X0164592Y0180833D02*
X0228090Y0180833D01*
X0229164Y0179235D02*
X0188467Y0179235D01*
X0186250Y0176800D02*
X0261250Y0176800D01*
X0262447Y0179689D02*
X0233361Y0179689D01*
X0231250Y0181800D01*
X0233671Y0184030D02*
X0275086Y0184030D01*
X0273488Y0182432D02*
X0234539Y0182432D01*
X0225993Y0199200D02*
X0225743Y0199802D01*
X0224252Y0201293D01*
X0223028Y0201800D01*
X0224252Y0202307D01*
X0225743Y0203798D01*
X0225993Y0204400D01*
X0263999Y0204400D01*
X0264387Y0204012D01*
X0265596Y0203511D01*
X0266904Y0203511D01*
X0268113Y0204012D01*
X0269038Y0204937D01*
X0269539Y0206146D01*
X0269539Y0207454D01*
X0269038Y0208663D01*
X0268113Y0209588D01*
X0266904Y0210089D01*
X0265596Y0210089D01*
X0264387Y0209588D01*
X0263999Y0209200D01*
X0225993Y0209200D01*
X0225743Y0209802D01*
X0224252Y0211293D01*
X0223306Y0211685D01*
X0223361Y0211703D01*
X0224133Y0212096D01*
X0224833Y0212605D01*
X0225445Y0213217D01*
X0225954Y0213917D01*
X0226347Y0214689D01*
X0226615Y0215512D01*
X0226750Y0216367D01*
X0226750Y0216600D01*
X0221450Y0216600D01*
X0221450Y0217000D01*
X0226750Y0217000D01*
X0226750Y0217233D01*
X0226615Y0218088D01*
X0226347Y0218911D01*
X0225954Y0219683D01*
X0225445Y0220383D01*
X0224833Y0220995D01*
X0224133Y0221504D01*
X0223361Y0221897D01*
X0223306Y0221915D01*
X0224252Y0222307D01*
X0225743Y0223798D01*
X0226550Y0225746D01*
X0226550Y0227854D01*
X0225743Y0229802D01*
X0224252Y0231293D01*
X0223028Y0231800D01*
X0224252Y0232307D01*
X0225743Y0233798D01*
X0226425Y0235444D01*
X0242428Y0219441D01*
X0243103Y0218765D01*
X0243985Y0218400D01*
X0284350Y0218400D01*
X0284050Y0217675D01*
X0284050Y0215925D01*
X0284720Y0214308D01*
X0285958Y0213070D01*
X0287575Y0212400D01*
X0294925Y0212400D01*
X0296542Y0213070D01*
X0297780Y0214308D01*
X0298022Y0214891D01*
X0298147Y0214765D01*
X0299029Y0214400D01*
X0314682Y0214400D01*
X0314720Y0214308D01*
X0315958Y0213070D01*
X0317575Y0212400D01*
X0324925Y0212400D01*
X0326542Y0213070D01*
X0327780Y0214308D01*
X0327818Y0214400D01*
X0333999Y0214400D01*
X0334387Y0214012D01*
X0335596Y0213511D01*
X0336739Y0213511D01*
X0336739Y0208434D01*
X0337104Y0207552D01*
X0337779Y0206876D01*
X0337961Y0206695D01*
X0337961Y0206146D01*
X0338462Y0204937D01*
X0339387Y0204012D01*
X0340596Y0203511D01*
X0341739Y0203511D01*
X0341739Y0200089D01*
X0340596Y0200089D01*
X0339387Y0199588D01*
X0338462Y0198663D01*
X0337961Y0197454D01*
X0337961Y0196905D01*
X0335156Y0194100D01*
X0327573Y0194100D01*
X0327780Y0194308D01*
X0328450Y0195925D01*
X0328450Y0197675D01*
X0327780Y0199292D01*
X0326542Y0200530D01*
X0324925Y0201200D01*
X0317575Y0201200D01*
X0315958Y0200530D01*
X0314720Y0199292D01*
X0314050Y0197675D01*
X0314050Y0195925D01*
X0314720Y0194308D01*
X0314927Y0194100D01*
X0297573Y0194100D01*
X0297780Y0194308D01*
X0298450Y0195925D01*
X0298450Y0197675D01*
X0297780Y0199292D01*
X0296542Y0200530D01*
X0294925Y0201200D01*
X0287575Y0201200D01*
X0285958Y0200530D01*
X0284720Y0199292D01*
X0284050Y0197675D01*
X0284050Y0195925D01*
X0284720Y0194308D01*
X0284927Y0194100D01*
X0268201Y0194100D01*
X0269038Y0194937D01*
X0269539Y0196146D01*
X0269539Y0197454D01*
X0269038Y0198663D01*
X0268113Y0199588D01*
X0266904Y0200089D01*
X0265596Y0200089D01*
X0264387Y0199588D01*
X0263999Y0199200D01*
X0225993Y0199200D01*
X0225530Y0200015D02*
X0265418Y0200015D01*
X0267082Y0200015D02*
X0285443Y0200015D01*
X0284357Y0198417D02*
X0269140Y0198417D01*
X0269539Y0196818D02*
X0284050Y0196818D01*
X0284342Y0195220D02*
X0269155Y0195220D01*
X0266250Y0196800D02*
X0211250Y0196800D01*
X0206250Y0206800D02*
X0266250Y0206800D01*
X0269310Y0208008D02*
X0284188Y0208008D01*
X0284050Y0207675D02*
X0284050Y0205925D01*
X0284720Y0204308D01*
X0285958Y0203070D01*
X0287575Y0202400D01*
X0294925Y0202400D01*
X0296542Y0203070D01*
X0297780Y0204308D01*
X0298450Y0205925D01*
X0298450Y0207675D01*
X0297780Y0209292D01*
X0296542Y0210530D01*
X0294925Y0211200D01*
X0287575Y0211200D01*
X0285958Y0210530D01*
X0284720Y0209292D01*
X0284050Y0207675D01*
X0284050Y0206409D02*
X0269539Y0206409D01*
X0268912Y0204811D02*
X0284511Y0204811D01*
X0285815Y0203212D02*
X0225158Y0203212D01*
X0223478Y0201614D02*
X0341739Y0201614D01*
X0341739Y0203212D02*
X0326685Y0203212D01*
X0326542Y0203070D02*
X0327780Y0204308D01*
X0328450Y0205925D01*
X0328450Y0207675D01*
X0327780Y0209292D01*
X0326542Y0210530D01*
X0324925Y0211200D01*
X0317575Y0211200D01*
X0315958Y0210530D01*
X0314720Y0209292D01*
X0314050Y0207675D01*
X0314050Y0205925D01*
X0314720Y0204308D01*
X0315958Y0203070D01*
X0317575Y0202400D01*
X0324925Y0202400D01*
X0326542Y0203070D01*
X0327989Y0204811D02*
X0338588Y0204811D01*
X0337961Y0206409D02*
X0328450Y0206409D01*
X0328312Y0208008D02*
X0336915Y0208008D01*
X0336739Y0209606D02*
X0327466Y0209606D01*
X0325899Y0212803D02*
X0336739Y0212803D01*
X0336739Y0211205D02*
X0224340Y0211205D01*
X0225032Y0212803D02*
X0286601Y0212803D01*
X0284681Y0214402D02*
X0226201Y0214402D01*
X0226692Y0216001D02*
X0284050Y0216001D01*
X0284050Y0217599D02*
X0226692Y0217599D01*
X0226201Y0219198D02*
X0242671Y0219198D01*
X0241072Y0220796D02*
X0225032Y0220796D01*
X0224340Y0222395D02*
X0239474Y0222395D01*
X0237875Y0223993D02*
X0225824Y0223993D01*
X0226486Y0225592D02*
X0236277Y0225592D01*
X0234678Y0227190D02*
X0226550Y0227190D01*
X0226163Y0228789D02*
X0233080Y0228789D01*
X0231481Y0230387D02*
X0225158Y0230387D01*
X0223477Y0231986D02*
X0229883Y0231986D01*
X0228284Y0233584D02*
X0225529Y0233584D01*
X0226317Y0235183D02*
X0226686Y0235183D01*
X0223362Y0241900D02*
X0219137Y0241900D01*
X0216150Y0238912D01*
X0216150Y0226700D01*
X0206250Y0216800D01*
X0208503Y0214402D02*
X0209201Y0214402D01*
X0209387Y0214588D02*
X0208999Y0214200D01*
X0208301Y0214200D01*
X0209038Y0214937D01*
X0209539Y0216146D01*
X0209539Y0216695D01*
X0216723Y0223879D01*
X0216757Y0223798D01*
X0218248Y0222307D01*
X0219194Y0221915D01*
X0219139Y0221897D01*
X0218367Y0221504D01*
X0217667Y0220995D01*
X0217055Y0220383D01*
X0216546Y0219683D01*
X0216153Y0218911D01*
X0215885Y0218088D01*
X0215750Y0217233D01*
X0215750Y0217000D01*
X0221050Y0217000D01*
X0221050Y0216600D01*
X0215750Y0216600D01*
X0215750Y0216367D01*
X0215885Y0215512D01*
X0216153Y0214689D01*
X0216546Y0213917D01*
X0217055Y0213217D01*
X0217667Y0212605D01*
X0218367Y0212096D01*
X0219139Y0211703D01*
X0219194Y0211685D01*
X0218248Y0211293D01*
X0216757Y0209802D01*
X0216507Y0209200D01*
X0213301Y0209200D01*
X0214038Y0209937D01*
X0214539Y0211146D01*
X0214539Y0212454D01*
X0214038Y0213663D01*
X0213113Y0214588D01*
X0211904Y0215089D01*
X0210596Y0215089D01*
X0209387Y0214588D01*
X0209479Y0216001D02*
X0215808Y0216001D01*
X0215808Y0217599D02*
X0210443Y0217599D01*
X0212042Y0219198D02*
X0216299Y0219198D01*
X0217468Y0220796D02*
X0213640Y0220796D01*
X0215239Y0222395D02*
X0218160Y0222395D01*
X0211250Y0226800D02*
X0211250Y0246800D01*
X0221250Y0256800D01*
X0220053Y0259689D02*
X0208361Y0247997D01*
X0208361Y0223911D01*
X0196250Y0211800D01*
X0193361Y0210603D02*
X0193361Y0236108D01*
X0219142Y0261889D01*
X0304418Y0261889D01*
X0344139Y0222168D01*
X0344139Y0198911D01*
X0351250Y0191800D01*
X0354139Y0190603D02*
X0336339Y0172803D01*
X0336339Y0112803D01*
X0326336Y0102800D01*
X0316336Y0102800D01*
X0297447Y0083911D01*
X0295053Y0083911D01*
X0293361Y0085603D01*
X0293361Y0097168D01*
X0306250Y0110057D01*
X0306250Y0121800D01*
X0309139Y0122997D02*
X0309139Y0109835D01*
X0296250Y0096946D01*
X0296250Y0094689D01*
X0296250Y0091800D01*
X0305049Y0088120D02*
X0488351Y0088120D01*
X0488351Y0089718D02*
X0306648Y0089718D01*
X0308246Y0091317D02*
X0488351Y0091317D01*
X0488351Y0092915D02*
X0309845Y0092915D01*
X0311443Y0094514D02*
X0488351Y0094514D01*
X0488351Y0096112D02*
X0313042Y0096112D01*
X0314640Y0097711D02*
X0488351Y0097711D01*
X0488351Y0099309D02*
X0413411Y0099309D01*
X0414440Y0100908D02*
X0488351Y0100908D01*
X0488351Y0102506D02*
X0414517Y0102506D01*
X0413597Y0104105D02*
X0488351Y0104105D01*
X0488351Y0105703D02*
X0410741Y0105703D01*
X0409142Y0107302D02*
X0488351Y0107302D01*
X0488351Y0108900D02*
X0454573Y0108900D01*
X0455650Y0109977D02*
X0453073Y0107400D01*
X0449427Y0107400D01*
X0446850Y0109977D01*
X0446850Y0113623D01*
X0449427Y0116200D01*
X0453073Y0116200D01*
X0455650Y0113623D01*
X0455650Y0109977D01*
X0455650Y0110499D02*
X0488351Y0110499D01*
X0488351Y0112097D02*
X0455650Y0112097D01*
X0455577Y0113696D02*
X0488351Y0113696D01*
X0488351Y0115294D02*
X0453978Y0115294D01*
X0448522Y0115294D02*
X0443978Y0115294D01*
X0443073Y0116200D02*
X0445650Y0113623D01*
X0445650Y0109977D01*
X0443073Y0107400D01*
X0439427Y0107400D01*
X0436850Y0109977D01*
X0436850Y0113623D01*
X0439427Y0116200D01*
X0443073Y0116200D01*
X0445577Y0113696D02*
X0446923Y0113696D01*
X0446850Y0112097D02*
X0445650Y0112097D01*
X0445650Y0110499D02*
X0446850Y0110499D01*
X0447927Y0108900D02*
X0444573Y0108900D01*
X0437927Y0108900D02*
X0407544Y0108900D01*
X0405850Y0110499D02*
X0436850Y0110499D01*
X0436850Y0112097D02*
X0405850Y0112097D01*
X0405850Y0113696D02*
X0436923Y0113696D01*
X0438522Y0115294D02*
X0404261Y0115294D01*
X0401250Y0115294D02*
X0401250Y0115294D01*
X0401250Y0113696D02*
X0401250Y0113696D01*
X0401250Y0112097D02*
X0401250Y0112097D01*
X0398239Y0115294D02*
X0395493Y0115294D01*
X0393894Y0116893D02*
X0488351Y0116893D01*
X0488351Y0118491D02*
X0392296Y0118491D01*
X0390697Y0120090D02*
X0488351Y0120090D01*
X0488351Y0121688D02*
X0389099Y0121688D01*
X0387500Y0123287D02*
X0488351Y0123287D01*
X0488351Y0124885D02*
X0385902Y0124885D01*
X0384303Y0126484D02*
X0488351Y0126484D01*
X0488351Y0128082D02*
X0382705Y0128082D01*
X0381106Y0129681D02*
X0393718Y0129681D01*
X0393462Y0129937D02*
X0394387Y0129012D01*
X0395596Y0128511D01*
X0396904Y0128511D01*
X0398113Y0129012D01*
X0399038Y0129937D01*
X0399539Y0131146D01*
X0399539Y0132454D01*
X0399038Y0133663D01*
X0398650Y0134051D01*
X0398650Y0149549D01*
X0399038Y0149937D01*
X0399539Y0151146D01*
X0399539Y0152454D01*
X0399038Y0153663D01*
X0398113Y0154588D01*
X0396904Y0155089D01*
X0395596Y0155089D01*
X0394387Y0154588D01*
X0393462Y0153663D01*
X0392961Y0152454D01*
X0392961Y0151146D01*
X0393462Y0149937D01*
X0393850Y0149549D01*
X0393850Y0134051D01*
X0393462Y0133663D01*
X0392961Y0132454D01*
X0392961Y0131146D01*
X0393462Y0129937D01*
X0392961Y0131279D02*
X0379508Y0131279D01*
X0377909Y0132878D02*
X0393137Y0132878D01*
X0393850Y0134476D02*
X0378578Y0134476D01*
X0379510Y0136075D02*
X0393850Y0136075D01*
X0393850Y0137673D02*
X0379448Y0137673D01*
X0378650Y0139272D02*
X0393850Y0139272D01*
X0393850Y0140870D02*
X0378650Y0140870D01*
X0378650Y0142469D02*
X0384358Y0142469D01*
X0384427Y0142400D02*
X0388073Y0142400D01*
X0390650Y0144977D01*
X0390650Y0148623D01*
X0388073Y0151200D01*
X0384427Y0151200D01*
X0381850Y0148623D01*
X0381850Y0144977D01*
X0384427Y0142400D01*
X0382760Y0144068D02*
X0378650Y0144068D01*
X0378650Y0145666D02*
X0381850Y0145666D01*
X0381850Y0147265D02*
X0378650Y0147265D01*
X0378650Y0148863D02*
X0382091Y0148863D01*
X0383689Y0150462D02*
X0378650Y0150462D01*
X0378650Y0152060D02*
X0392961Y0152060D01*
X0393244Y0150462D02*
X0388811Y0150462D01*
X0390409Y0148863D02*
X0393850Y0148863D01*
X0393850Y0147265D02*
X0390650Y0147265D01*
X0390650Y0145666D02*
X0393850Y0145666D01*
X0393850Y0144068D02*
X0389740Y0144068D01*
X0388142Y0142469D02*
X0393850Y0142469D01*
X0398650Y0142469D02*
X0402408Y0142469D01*
X0402575Y0142400D02*
X0409925Y0142400D01*
X0411542Y0143070D01*
X0412780Y0144308D01*
X0413450Y0145925D01*
X0413450Y0147675D01*
X0412780Y0149292D01*
X0411542Y0150530D01*
X0409925Y0151200D01*
X0402575Y0151200D01*
X0400958Y0150530D01*
X0399720Y0149292D01*
X0399050Y0147675D01*
X0399050Y0145925D01*
X0399720Y0144308D01*
X0400958Y0143070D01*
X0402575Y0142400D01*
X0402575Y0141200D02*
X0400958Y0140530D01*
X0399720Y0139292D01*
X0399050Y0137675D01*
X0399050Y0135925D01*
X0399720Y0134308D01*
X0400958Y0133070D01*
X0402575Y0132400D01*
X0409925Y0132400D01*
X0411542Y0133070D01*
X0412780Y0134308D01*
X0413450Y0135925D01*
X0413450Y0137675D01*
X0412780Y0139292D01*
X0411542Y0140530D01*
X0409925Y0141200D01*
X0402575Y0141200D01*
X0401779Y0140870D02*
X0398650Y0140870D01*
X0398650Y0139272D02*
X0399711Y0139272D01*
X0399050Y0137673D02*
X0398650Y0137673D01*
X0398650Y0136075D02*
X0399050Y0136075D01*
X0398650Y0134476D02*
X0399650Y0134476D01*
X0399363Y0132878D02*
X0401421Y0132878D01*
X0399539Y0131279D02*
X0488351Y0131279D01*
X0488351Y0129681D02*
X0398782Y0129681D01*
X0396250Y0131800D02*
X0396250Y0151800D01*
X0399256Y0150462D02*
X0400889Y0150462D01*
X0399542Y0148863D02*
X0398650Y0148863D01*
X0398650Y0147265D02*
X0399050Y0147265D01*
X0399157Y0145666D02*
X0398650Y0145666D01*
X0398650Y0144068D02*
X0399960Y0144068D01*
X0399539Y0152060D02*
X0488351Y0152060D01*
X0488351Y0150462D02*
X0441836Y0150462D01*
X0442047Y0150309D02*
X0441461Y0150734D01*
X0440816Y0151063D01*
X0440127Y0151287D01*
X0439412Y0151400D01*
X0436250Y0151400D01*
X0436250Y0146800D01*
X0436250Y0146800D01*
X0443650Y0146800D01*
X0443650Y0147162D01*
X0443537Y0147877D01*
X0443313Y0148566D01*
X0442984Y0149211D01*
X0442559Y0149797D01*
X0442047Y0150309D01*
X0443162Y0148863D02*
X0488351Y0148863D01*
X0488351Y0147265D02*
X0443634Y0147265D01*
X0443650Y0146800D02*
X0436250Y0146800D01*
X0436250Y0146800D01*
X0436250Y0142200D01*
X0439412Y0142200D01*
X0440127Y0142313D01*
X0440816Y0142537D01*
X0441461Y0142866D01*
X0442047Y0143291D01*
X0442559Y0143803D01*
X0442984Y0144389D01*
X0443313Y0145034D01*
X0443537Y0145723D01*
X0443650Y0146438D01*
X0443650Y0146800D01*
X0443518Y0145666D02*
X0488351Y0145666D01*
X0488351Y0144068D02*
X0442751Y0144068D01*
X0440606Y0142469D02*
X0488351Y0142469D01*
X0488351Y0140870D02*
X0441194Y0140870D01*
X0441461Y0140734D02*
X0440816Y0141063D01*
X0440127Y0141287D01*
X0439412Y0141400D01*
X0436250Y0141400D01*
X0436250Y0136800D01*
X0436250Y0136800D01*
X0443650Y0136800D01*
X0443650Y0137162D01*
X0443537Y0137877D01*
X0443313Y0138566D01*
X0442984Y0139211D01*
X0442559Y0139797D01*
X0442047Y0140309D01*
X0441461Y0140734D01*
X0442940Y0139272D02*
X0488351Y0139272D01*
X0488351Y0137673D02*
X0443569Y0137673D01*
X0443650Y0136800D02*
X0436250Y0136800D01*
X0436250Y0136800D01*
X0436250Y0132200D01*
X0439412Y0132200D01*
X0440127Y0132313D01*
X0440816Y0132537D01*
X0441461Y0132866D01*
X0442047Y0133291D01*
X0442559Y0133803D01*
X0442984Y0134389D01*
X0443313Y0135034D01*
X0443537Y0135723D01*
X0443650Y0136438D01*
X0443650Y0136800D01*
X0443592Y0136075D02*
X0488351Y0136075D01*
X0488351Y0134476D02*
X0443029Y0134476D01*
X0441478Y0132878D02*
X0488351Y0132878D01*
X0488351Y0153659D02*
X0442414Y0153659D01*
X0442559Y0153803D02*
X0442984Y0154389D01*
X0443313Y0155034D01*
X0443537Y0155723D01*
X0443650Y0156438D01*
X0443650Y0156800D01*
X0443650Y0157162D01*
X0443537Y0157877D01*
X0443313Y0158566D01*
X0442984Y0159211D01*
X0442559Y0159797D01*
X0442047Y0160309D01*
X0441461Y0160734D01*
X0440816Y0161063D01*
X0440127Y0161287D01*
X0439412Y0161400D01*
X0436250Y0161400D01*
X0436250Y0156800D01*
X0436250Y0156800D01*
X0443650Y0156800D01*
X0436250Y0156800D01*
X0436250Y0156800D01*
X0436250Y0152200D01*
X0439412Y0152200D01*
X0440127Y0152313D01*
X0440816Y0152537D01*
X0441461Y0152866D01*
X0442047Y0153291D01*
X0442559Y0153803D01*
X0443385Y0155257D02*
X0488351Y0155257D01*
X0488351Y0156856D02*
X0443650Y0156856D01*
X0443349Y0158454D02*
X0488351Y0158454D01*
X0488351Y0160053D02*
X0442303Y0160053D01*
X0441542Y0163070D02*
X0442780Y0164308D01*
X0443450Y0165925D01*
X0443450Y0167675D01*
X0442780Y0169292D01*
X0441542Y0170530D01*
X0439925Y0171200D01*
X0432575Y0171200D01*
X0430958Y0170530D01*
X0429720Y0169292D01*
X0429050Y0167675D01*
X0429050Y0165925D01*
X0429720Y0164308D01*
X0430958Y0163070D01*
X0432575Y0162400D01*
X0439925Y0162400D01*
X0441542Y0163070D01*
X0441722Y0163250D02*
X0488351Y0163250D01*
X0488351Y0164848D02*
X0443004Y0164848D01*
X0443450Y0166447D02*
X0488351Y0166447D01*
X0488351Y0168045D02*
X0443297Y0168045D01*
X0442429Y0169644D02*
X0488351Y0169644D01*
X0488351Y0171242D02*
X0375650Y0171242D01*
X0375650Y0169977D02*
X0373073Y0167400D01*
X0369427Y0167400D01*
X0366850Y0169977D01*
X0366850Y0173623D01*
X0369427Y0176200D01*
X0373073Y0176200D01*
X0375650Y0173623D01*
X0375650Y0169977D01*
X0375316Y0169644D02*
X0400071Y0169644D01*
X0399720Y0169292D02*
X0399050Y0167675D01*
X0399050Y0165925D01*
X0399720Y0164308D01*
X0400958Y0163070D01*
X0402575Y0162400D01*
X0409925Y0162400D01*
X0411542Y0163070D01*
X0412780Y0164308D01*
X0413450Y0165925D01*
X0413450Y0167675D01*
X0412780Y0169292D01*
X0411542Y0170530D01*
X0409925Y0171200D01*
X0402575Y0171200D01*
X0400958Y0170530D01*
X0399720Y0169292D01*
X0399203Y0168045D02*
X0373718Y0168045D01*
X0368782Y0168045D02*
X0358739Y0168045D01*
X0358739Y0166447D02*
X0399050Y0166447D01*
X0399496Y0164848D02*
X0358739Y0164848D01*
X0358739Y0163250D02*
X0400778Y0163250D01*
X0400958Y0160530D02*
X0399720Y0159292D01*
X0399050Y0157675D01*
X0399050Y0155925D01*
X0399720Y0154308D01*
X0400958Y0153070D01*
X0402575Y0152400D01*
X0409925Y0152400D01*
X0411542Y0153070D01*
X0412780Y0154308D01*
X0413450Y0155925D01*
X0413450Y0157675D01*
X0412780Y0159292D01*
X0411542Y0160530D01*
X0409925Y0161200D01*
X0402575Y0161200D01*
X0400958Y0160530D01*
X0400480Y0160053D02*
X0376992Y0160053D01*
X0375508Y0160053D02*
X0358739Y0160053D01*
X0358739Y0161651D02*
X0488351Y0161651D01*
X0488351Y0172841D02*
X0440989Y0172841D01*
X0441542Y0173070D02*
X0442780Y0174308D01*
X0443450Y0175925D01*
X0443450Y0177675D01*
X0442780Y0179292D01*
X0441542Y0180530D01*
X0439925Y0181200D01*
X0432575Y0181200D01*
X0430958Y0180530D01*
X0429720Y0179292D01*
X0429050Y0177675D01*
X0429050Y0175925D01*
X0429720Y0174308D01*
X0430958Y0173070D01*
X0432575Y0172400D01*
X0439925Y0172400D01*
X0441542Y0173070D01*
X0442835Y0174439D02*
X0488351Y0174439D01*
X0488351Y0176038D02*
X0443450Y0176038D01*
X0443450Y0177636D02*
X0488351Y0177636D01*
X0488351Y0179235D02*
X0442804Y0179235D01*
X0440811Y0180833D02*
X0488351Y0180833D01*
X0488351Y0182432D02*
X0440002Y0182432D01*
X0439925Y0182400D02*
X0441542Y0183070D01*
X0442780Y0184308D01*
X0443450Y0185925D01*
X0443450Y0187675D01*
X0442780Y0189292D01*
X0441542Y0190530D01*
X0439925Y0191200D01*
X0432575Y0191200D01*
X0430958Y0190530D01*
X0429720Y0189292D01*
X0429050Y0187675D01*
X0429050Y0185925D01*
X0429720Y0184308D01*
X0430958Y0183070D01*
X0432575Y0182400D01*
X0439925Y0182400D01*
X0442503Y0184030D02*
X0488351Y0184030D01*
X0488351Y0185629D02*
X0443327Y0185629D01*
X0443450Y0187227D02*
X0488351Y0187227D01*
X0488351Y0188826D02*
X0442973Y0188826D01*
X0441648Y0190424D02*
X0488351Y0190424D01*
X0488351Y0192023D02*
X0393566Y0192023D01*
X0394252Y0192307D02*
X0395743Y0193798D01*
X0396550Y0195746D01*
X0396550Y0197854D01*
X0395743Y0199802D01*
X0394252Y0201293D01*
X0393028Y0201800D01*
X0394252Y0202307D01*
X0395743Y0203798D01*
X0396550Y0205746D01*
X0396550Y0207854D01*
X0395743Y0209802D01*
X0394252Y0211293D01*
X0393028Y0211800D01*
X0394252Y0212307D01*
X0395743Y0213798D01*
X0396550Y0215746D01*
X0396550Y0217854D01*
X0395743Y0219802D01*
X0394252Y0221293D01*
X0393028Y0221800D01*
X0394252Y0222307D01*
X0395743Y0223798D01*
X0396550Y0225746D01*
X0396550Y0227854D01*
X0395743Y0229802D01*
X0394252Y0231293D01*
X0393028Y0231800D01*
X0394252Y0232307D01*
X0395743Y0233798D01*
X0396550Y0235746D01*
X0396550Y0237854D01*
X0395743Y0239802D01*
X0394252Y0241293D01*
X0393028Y0241800D01*
X0394252Y0242307D01*
X0395743Y0243798D01*
X0396550Y0245746D01*
X0396550Y0247854D01*
X0395743Y0249802D01*
X0394252Y0251293D01*
X0393028Y0251800D01*
X0394252Y0252307D01*
X0395743Y0253798D01*
X0396550Y0255746D01*
X0396550Y0257854D01*
X0395743Y0259802D01*
X0394252Y0261293D01*
X0392304Y0262100D01*
X0390196Y0262100D01*
X0388248Y0261293D01*
X0386757Y0259802D01*
X0385950Y0257854D01*
X0385950Y0255746D01*
X0386757Y0253798D01*
X0388248Y0252307D01*
X0389472Y0251800D01*
X0388248Y0251293D01*
X0386757Y0249802D01*
X0385950Y0247854D01*
X0385950Y0245746D01*
X0386757Y0243798D01*
X0388248Y0242307D01*
X0389472Y0241800D01*
X0388248Y0241293D01*
X0386757Y0239802D01*
X0385950Y0237854D01*
X0385950Y0235746D01*
X0386757Y0233798D01*
X0388248Y0232307D01*
X0389472Y0231800D01*
X0388248Y0231293D01*
X0386757Y0229802D01*
X0385950Y0227854D01*
X0385950Y0225746D01*
X0386757Y0223798D01*
X0388248Y0222307D01*
X0389472Y0221800D01*
X0388248Y0221293D01*
X0386757Y0219802D01*
X0385950Y0217854D01*
X0385950Y0215746D01*
X0386757Y0213798D01*
X0388248Y0212307D01*
X0389472Y0211800D01*
X0388248Y0211293D01*
X0386757Y0209802D01*
X0385950Y0207854D01*
X0385950Y0205746D01*
X0386757Y0203798D01*
X0388248Y0202307D01*
X0389472Y0201800D01*
X0388248Y0201293D01*
X0386757Y0199802D01*
X0385950Y0197854D01*
X0385950Y0195746D01*
X0386757Y0193798D01*
X0388248Y0192307D01*
X0390196Y0191500D01*
X0392304Y0191500D01*
X0394252Y0192307D01*
X0395567Y0193621D02*
X0400406Y0193621D01*
X0400958Y0193070D02*
X0402575Y0192400D01*
X0409925Y0192400D01*
X0411542Y0193070D01*
X0412780Y0194308D01*
X0413450Y0195925D01*
X0413450Y0197675D01*
X0412780Y0199292D01*
X0411542Y0200530D01*
X0409925Y0201200D01*
X0402575Y0201200D01*
X0400958Y0200530D01*
X0399720Y0199292D01*
X0399050Y0197675D01*
X0399050Y0195925D01*
X0399720Y0194308D01*
X0400958Y0193070D01*
X0402575Y0191200D02*
X0400958Y0190530D01*
X0399720Y0189292D01*
X0399050Y0187675D01*
X0399050Y0185925D01*
X0399720Y0184308D01*
X0400958Y0183070D01*
X0402575Y0182400D01*
X0409925Y0182400D01*
X0411542Y0183070D01*
X0412780Y0184308D01*
X0413450Y0185925D01*
X0413450Y0187675D01*
X0412780Y0189292D01*
X0411542Y0190530D01*
X0409925Y0191200D01*
X0402575Y0191200D01*
X0400852Y0190424D02*
X0358739Y0190424D01*
X0358739Y0188826D02*
X0399527Y0188826D01*
X0399050Y0187227D02*
X0358739Y0187227D01*
X0358739Y0185629D02*
X0368573Y0185629D01*
X0369345Y0186400D02*
X0366650Y0183705D01*
X0366650Y0181800D01*
X0371250Y0181800D01*
X0371250Y0181800D01*
X0371250Y0186400D01*
X0373155Y0186400D01*
X0375850Y0183705D01*
X0375850Y0181800D01*
X0371250Y0181800D01*
X0371250Y0181800D01*
X0371250Y0181800D01*
X0371250Y0186400D01*
X0369345Y0186400D01*
X0371250Y0185629D02*
X0371250Y0185629D01*
X0371250Y0184030D02*
X0371250Y0184030D01*
X0371250Y0182432D02*
X0371250Y0182432D01*
X0371250Y0181800D02*
X0366650Y0181800D01*
X0366650Y0179895D01*
X0369345Y0177200D01*
X0371250Y0177200D01*
X0373155Y0177200D01*
X0375850Y0179895D01*
X0375850Y0181800D01*
X0371250Y0181800D01*
X0371250Y0177200D01*
X0371250Y0181800D01*
X0371250Y0181800D01*
X0371250Y0180833D02*
X0371250Y0180833D01*
X0371250Y0179235D02*
X0371250Y0179235D01*
X0371250Y0177636D02*
X0371250Y0177636D01*
X0373592Y0177636D02*
X0398925Y0177636D01*
X0398963Y0177877D02*
X0398850Y0177162D01*
X0398850Y0176800D01*
X0406250Y0176800D01*
X0406250Y0176800D01*
X0406250Y0181400D01*
X0409412Y0181400D01*
X0410127Y0181287D01*
X0410816Y0181063D01*
X0411461Y0180734D01*
X0412047Y0180309D01*
X0412559Y0179797D01*
X0412984Y0179211D01*
X0413313Y0178566D01*
X0413537Y0177877D01*
X0413650Y0177162D01*
X0413650Y0176800D01*
X0406250Y0176800D01*
X0406250Y0176800D01*
X0406250Y0172200D01*
X0409412Y0172200D01*
X0410127Y0172313D01*
X0410816Y0172537D01*
X0411461Y0172866D01*
X0412047Y0173291D01*
X0412559Y0173803D01*
X0412984Y0174389D01*
X0413313Y0175034D01*
X0413537Y0175723D01*
X0413650Y0176438D01*
X0413650Y0176800D01*
X0406250Y0176800D01*
X0406250Y0176800D01*
X0406250Y0176800D01*
X0406250Y0181400D01*
X0403088Y0181400D01*
X0402373Y0181287D01*
X0401684Y0181063D01*
X0401039Y0180734D01*
X0400453Y0180309D01*
X0399941Y0179797D01*
X0399516Y0179211D01*
X0399187Y0178566D01*
X0398963Y0177877D01*
X0398850Y0176800D02*
X0398850Y0176438D01*
X0398963Y0175723D01*
X0399187Y0175034D01*
X0399516Y0174389D01*
X0399941Y0173803D01*
X0400453Y0173291D01*
X0401039Y0172866D01*
X0401684Y0172537D01*
X0402373Y0172313D01*
X0403088Y0172200D01*
X0406250Y0172200D01*
X0406250Y0176800D01*
X0398850Y0176800D01*
X0398913Y0176038D02*
X0373235Y0176038D01*
X0374833Y0174439D02*
X0399490Y0174439D01*
X0401088Y0172841D02*
X0375650Y0172841D01*
X0375190Y0179235D02*
X0399533Y0179235D01*
X0401233Y0180833D02*
X0375850Y0180833D01*
X0375850Y0182432D02*
X0402498Y0182432D01*
X0399997Y0184030D02*
X0375525Y0184030D01*
X0373927Y0185629D02*
X0399173Y0185629D01*
X0406250Y0180833D02*
X0406250Y0180833D01*
X0406250Y0179235D02*
X0406250Y0179235D01*
X0406250Y0177636D02*
X0406250Y0177636D01*
X0406250Y0176038D02*
X0406250Y0176038D01*
X0406250Y0174439D02*
X0406250Y0174439D01*
X0406250Y0172841D02*
X0406250Y0172841D01*
X0411412Y0172841D02*
X0431511Y0172841D01*
X0429665Y0174439D02*
X0413010Y0174439D01*
X0413587Y0176038D02*
X0429050Y0176038D01*
X0429050Y0177636D02*
X0413575Y0177636D01*
X0412967Y0179235D02*
X0429696Y0179235D01*
X0431689Y0180833D02*
X0411267Y0180833D01*
X0410002Y0182432D02*
X0432498Y0182432D01*
X0429997Y0184030D02*
X0412503Y0184030D01*
X0413327Y0185629D02*
X0429173Y0185629D01*
X0429050Y0187227D02*
X0413450Y0187227D01*
X0412973Y0188826D02*
X0429527Y0188826D01*
X0430852Y0190424D02*
X0411648Y0190424D01*
X0412094Y0193621D02*
X0430406Y0193621D01*
X0430958Y0193070D02*
X0432575Y0192400D01*
X0439925Y0192400D01*
X0441542Y0193070D01*
X0442780Y0194308D01*
X0443450Y0195925D01*
X0443450Y0197675D01*
X0442780Y0199292D01*
X0441542Y0200530D01*
X0439925Y0201200D01*
X0432575Y0201200D01*
X0430958Y0200530D01*
X0429720Y0199292D01*
X0429050Y0197675D01*
X0429050Y0195925D01*
X0429720Y0194308D01*
X0430958Y0193070D01*
X0429342Y0195220D02*
X0413158Y0195220D01*
X0413450Y0196818D02*
X0429050Y0196818D01*
X0429357Y0198417D02*
X0413143Y0198417D01*
X0412057Y0200015D02*
X0430443Y0200015D01*
X0430958Y0203070D02*
X0432575Y0202400D01*
X0439925Y0202400D01*
X0441542Y0203070D01*
X0442780Y0204308D01*
X0443450Y0205925D01*
X0443450Y0207675D01*
X0442780Y0209292D01*
X0441542Y0210530D01*
X0439925Y0211200D01*
X0432575Y0211200D01*
X0430958Y0210530D01*
X0429720Y0209292D01*
X0429249Y0208155D01*
X0429038Y0208663D01*
X0428113Y0209588D01*
X0426904Y0210089D01*
X0426355Y0210089D01*
X0420761Y0215683D01*
X0420761Y0303511D01*
X0421145Y0303511D01*
X0423850Y0300806D01*
X0423850Y0234051D01*
X0423462Y0233663D01*
X0422961Y0232454D01*
X0422961Y0231146D01*
X0423462Y0229937D01*
X0424270Y0229129D01*
X0424215Y0229074D01*
X0423850Y0228192D01*
X0423850Y0224051D01*
X0423462Y0223663D01*
X0422961Y0222454D01*
X0422961Y0221146D01*
X0423462Y0219937D01*
X0424387Y0219012D01*
X0425596Y0218511D01*
X0426904Y0218511D01*
X0428113Y0219012D01*
X0429038Y0219937D01*
X0429539Y0221146D01*
X0429539Y0222454D01*
X0429038Y0223663D01*
X0428650Y0224051D01*
X0428650Y0226720D01*
X0429050Y0227120D01*
X0429050Y0225925D01*
X0429720Y0224308D01*
X0430958Y0223070D01*
X0432575Y0222400D01*
X0439925Y0222400D01*
X0441542Y0223070D01*
X0442780Y0224308D01*
X0443450Y0225925D01*
X0443450Y0227675D01*
X0442780Y0229292D01*
X0441542Y0230530D01*
X0439925Y0231200D01*
X0432575Y0231200D01*
X0431539Y0230771D01*
X0431539Y0232829D01*
X0432575Y0232400D01*
X0439925Y0232400D01*
X0441542Y0233070D01*
X0442780Y0234308D01*
X0443450Y0235925D01*
X0443450Y0237675D01*
X0442780Y0239292D01*
X0441542Y0240530D01*
X0439925Y0241200D01*
X0432575Y0241200D01*
X0431539Y0240771D01*
X0431539Y0242829D01*
X0432575Y0242400D01*
X0439925Y0242400D01*
X0441542Y0243070D01*
X0442780Y0244308D01*
X0443450Y0245925D01*
X0443450Y0247675D01*
X0442780Y0249292D01*
X0441542Y0250530D01*
X0439925Y0251200D01*
X0432575Y0251200D01*
X0431539Y0250771D01*
X0431539Y0252829D01*
X0432575Y0252400D01*
X0439925Y0252400D01*
X0441542Y0253070D01*
X0442780Y0254308D01*
X0443450Y0255925D01*
X0443450Y0257675D01*
X0442780Y0259292D01*
X0441542Y0260530D01*
X0439925Y0261200D01*
X0432575Y0261200D01*
X0431539Y0260771D01*
X0431539Y0262829D01*
X0432575Y0262400D01*
X0439925Y0262400D01*
X0441542Y0263070D01*
X0442780Y0264308D01*
X0443450Y0265925D01*
X0443450Y0267675D01*
X0442780Y0269292D01*
X0441542Y0270530D01*
X0439925Y0271200D01*
X0432575Y0271200D01*
X0431539Y0270771D01*
X0431539Y0304388D01*
X0431174Y0305271D01*
X0430498Y0305946D01*
X0424539Y0311905D01*
X0424539Y0312454D01*
X0424038Y0313663D01*
X0423401Y0314300D01*
X0424038Y0314937D01*
X0424539Y0316146D01*
X0424539Y0317454D01*
X0424038Y0318663D01*
X0423113Y0319588D01*
X0421904Y0320089D01*
X0420596Y0320089D01*
X0419387Y0319588D01*
X0418462Y0318663D01*
X0417961Y0317454D01*
X0417961Y0316146D01*
X0418006Y0316036D01*
X0417002Y0315031D01*
X0416326Y0314356D01*
X0415961Y0313474D01*
X0415961Y0214212D01*
X0416326Y0213329D01*
X0422961Y0206695D01*
X0422961Y0206146D01*
X0423462Y0204937D01*
X0424387Y0204012D01*
X0425596Y0203511D01*
X0426904Y0203511D01*
X0428113Y0204012D01*
X0429038Y0204937D01*
X0429249Y0205445D01*
X0429720Y0204308D01*
X0430958Y0203070D01*
X0430815Y0203212D02*
X0411685Y0203212D01*
X0411542Y0203070D02*
X0412780Y0204308D01*
X0413450Y0205925D01*
X0413450Y0207675D01*
X0412780Y0209292D01*
X0411542Y0210530D01*
X0409925Y0211200D01*
X0402575Y0211200D01*
X0400958Y0210530D01*
X0399720Y0209292D01*
X0399050Y0207675D01*
X0399050Y0205925D01*
X0399720Y0204308D01*
X0400958Y0203070D01*
X0402575Y0202400D01*
X0409925Y0202400D01*
X0411542Y0203070D01*
X0412989Y0204811D02*
X0423588Y0204811D01*
X0422961Y0206409D02*
X0413450Y0206409D01*
X0413312Y0208008D02*
X0421648Y0208008D01*
X0420049Y0209606D02*
X0412466Y0209606D01*
X0410899Y0212803D02*
X0416852Y0212803D01*
X0415961Y0214402D02*
X0412819Y0214402D01*
X0412780Y0214308D02*
X0413450Y0215925D01*
X0413450Y0217675D01*
X0412780Y0219292D01*
X0411542Y0220530D01*
X0409925Y0221200D01*
X0402575Y0221200D01*
X0400958Y0220530D01*
X0399720Y0219292D01*
X0399050Y0217675D01*
X0399050Y0215925D01*
X0399720Y0214308D01*
X0400958Y0213070D01*
X0402575Y0212400D01*
X0409925Y0212400D01*
X0411542Y0213070D01*
X0412780Y0214308D01*
X0413450Y0216001D02*
X0415961Y0216001D01*
X0415961Y0217599D02*
X0413450Y0217599D01*
X0412819Y0219198D02*
X0415961Y0219198D01*
X0415961Y0220796D02*
X0410900Y0220796D01*
X0409925Y0222400D02*
X0411542Y0223070D01*
X0412780Y0224308D01*
X0413450Y0225925D01*
X0413450Y0227675D01*
X0412780Y0229292D01*
X0411542Y0230530D01*
X0409925Y0231200D01*
X0402575Y0231200D01*
X0400958Y0230530D01*
X0399720Y0229292D01*
X0399050Y0227675D01*
X0399050Y0225925D01*
X0399720Y0224308D01*
X0400958Y0223070D01*
X0402575Y0222400D01*
X0409925Y0222400D01*
X0412466Y0223993D02*
X0415961Y0223993D01*
X0415961Y0222395D02*
X0394340Y0222395D01*
X0394749Y0220796D02*
X0401600Y0220796D01*
X0399681Y0219198D02*
X0395994Y0219198D01*
X0396550Y0217599D02*
X0399050Y0217599D01*
X0399050Y0216001D02*
X0396550Y0216001D01*
X0395993Y0214402D02*
X0399681Y0214402D01*
X0401601Y0212803D02*
X0394749Y0212803D01*
X0394340Y0211205D02*
X0418451Y0211205D01*
X0418361Y0214689D02*
X0426250Y0206800D01*
X0428912Y0204811D02*
X0429511Y0204811D01*
X0430034Y0209606D02*
X0428069Y0209606D01*
X0425239Y0211205D02*
X0445950Y0211205D01*
X0445950Y0210746D02*
X0446757Y0208798D01*
X0448248Y0207307D01*
X0450196Y0206500D01*
X0452304Y0206500D01*
X0454252Y0207307D01*
X0455743Y0208798D01*
X0456550Y0210746D01*
X0456550Y0212854D01*
X0455743Y0214802D01*
X0454252Y0216293D01*
X0453028Y0216800D01*
X0454252Y0217307D01*
X0455743Y0218798D01*
X0456550Y0220746D01*
X0456550Y0222854D01*
X0455743Y0224802D01*
X0454252Y0226293D01*
X0453028Y0226800D01*
X0454252Y0227307D01*
X0455743Y0228798D01*
X0456550Y0230746D01*
X0456550Y0232854D01*
X0455743Y0234802D01*
X0454252Y0236293D01*
X0452304Y0237100D01*
X0450196Y0237100D01*
X0448248Y0236293D01*
X0446757Y0234802D01*
X0445950Y0232854D01*
X0445950Y0230746D01*
X0446757Y0228798D01*
X0448248Y0227307D01*
X0449472Y0226800D01*
X0448248Y0226293D01*
X0446757Y0224802D01*
X0445950Y0222854D01*
X0445950Y0220746D01*
X0446757Y0218798D01*
X0448248Y0217307D01*
X0449472Y0216800D01*
X0448248Y0216293D01*
X0446757Y0214802D01*
X0445950Y0212854D01*
X0445950Y0210746D01*
X0446422Y0209606D02*
X0442466Y0209606D01*
X0443312Y0208008D02*
X0447547Y0208008D01*
X0443450Y0206409D02*
X0488351Y0206409D01*
X0488351Y0204811D02*
X0442989Y0204811D01*
X0441685Y0203212D02*
X0488351Y0203212D01*
X0488351Y0201614D02*
X0393478Y0201614D01*
X0395158Y0203212D02*
X0400815Y0203212D01*
X0399511Y0204811D02*
X0396163Y0204811D01*
X0396550Y0206409D02*
X0399050Y0206409D01*
X0399188Y0208008D02*
X0396486Y0208008D01*
X0395824Y0209606D02*
X0400034Y0209606D01*
X0400443Y0200015D02*
X0395530Y0200015D01*
X0396317Y0198417D02*
X0399357Y0198417D01*
X0399050Y0196818D02*
X0396550Y0196818D01*
X0396332Y0195220D02*
X0399342Y0195220D01*
X0388933Y0192023D02*
X0358739Y0192023D01*
X0358739Y0193621D02*
X0386933Y0193621D01*
X0386168Y0195220D02*
X0358739Y0195220D01*
X0358739Y0196818D02*
X0385950Y0196818D01*
X0386183Y0198417D02*
X0358739Y0198417D01*
X0358739Y0200015D02*
X0386970Y0200015D01*
X0389022Y0201614D02*
X0358739Y0201614D01*
X0358739Y0203212D02*
X0387342Y0203212D01*
X0386337Y0204811D02*
X0358739Y0204811D01*
X0358739Y0206409D02*
X0385950Y0206409D01*
X0386014Y0208008D02*
X0358739Y0208008D01*
X0358739Y0209606D02*
X0358792Y0209606D01*
X0361250Y0211800D02*
X0358539Y0214511D01*
X0358539Y0235168D01*
X0316818Y0276889D01*
X0217571Y0276889D01*
X0167582Y0226900D01*
X0144138Y0226900D01*
X0141150Y0223912D01*
X0141150Y0197786D01*
X0122361Y0178997D01*
X0122361Y0171603D01*
X0131250Y0162714D01*
X0131250Y0129927D01*
X0128361Y0127038D01*
X0125234Y0128082D02*
X0097850Y0128082D01*
X0097850Y0126484D02*
X0125072Y0126484D01*
X0125862Y0124885D02*
X0097850Y0124885D01*
X0097850Y0123287D02*
X0138850Y0123287D01*
X0138850Y0124885D02*
X0130860Y0124885D01*
X0131650Y0126484D02*
X0138850Y0126484D01*
X0138850Y0128082D02*
X0132800Y0128082D01*
X0133650Y0129681D02*
X0138850Y0129681D01*
X0138850Y0131279D02*
X0133650Y0131279D01*
X0133650Y0132878D02*
X0138850Y0132878D01*
X0138850Y0134476D02*
X0133650Y0134476D01*
X0133650Y0136075D02*
X0138850Y0136075D01*
X0138850Y0137673D02*
X0133650Y0137673D01*
X0133650Y0139272D02*
X0138850Y0139272D01*
X0138850Y0140870D02*
X0133650Y0140870D01*
X0133650Y0142469D02*
X0138850Y0142469D01*
X0138850Y0144068D02*
X0133650Y0144068D01*
X0133650Y0145666D02*
X0138850Y0145666D01*
X0138850Y0147265D02*
X0133650Y0147265D01*
X0133650Y0148863D02*
X0138850Y0148863D01*
X0138850Y0150462D02*
X0133650Y0150462D01*
X0133650Y0152060D02*
X0138850Y0152060D01*
X0138850Y0153659D02*
X0133650Y0153659D01*
X0133650Y0155257D02*
X0138329Y0155257D01*
X0138462Y0154937D02*
X0138850Y0154549D01*
X0138850Y0114051D01*
X0138462Y0113663D01*
X0137961Y0112454D01*
X0137961Y0111146D01*
X0138462Y0109937D01*
X0139387Y0109012D01*
X0140596Y0108511D01*
X0141904Y0108511D01*
X0143113Y0109012D01*
X0144038Y0109937D01*
X0144539Y0111146D01*
X0144539Y0112454D01*
X0144038Y0113663D01*
X0143650Y0114051D01*
X0143650Y0154549D01*
X0144038Y0154937D01*
X0144539Y0156146D01*
X0144539Y0157454D01*
X0144038Y0158663D01*
X0143113Y0159588D01*
X0141904Y0160089D01*
X0140596Y0160089D01*
X0139387Y0159588D01*
X0138462Y0158663D01*
X0137961Y0157454D01*
X0137961Y0156146D01*
X0138462Y0154937D01*
X0137961Y0156856D02*
X0133650Y0156856D01*
X0133650Y0158454D02*
X0138375Y0158454D01*
X0140508Y0160053D02*
X0133650Y0160053D01*
X0133650Y0161651D02*
X0160939Y0161651D01*
X0159340Y0160053D02*
X0141992Y0160053D01*
X0144125Y0158454D02*
X0157742Y0158454D01*
X0156251Y0156856D02*
X0144539Y0156856D01*
X0144171Y0155257D02*
X0155961Y0155257D01*
X0155961Y0153659D02*
X0143650Y0153659D01*
X0143650Y0152060D02*
X0155961Y0152060D01*
X0155961Y0150462D02*
X0143650Y0150462D01*
X0143650Y0148863D02*
X0155961Y0148863D01*
X0155961Y0147265D02*
X0143650Y0147265D01*
X0143650Y0145666D02*
X0155961Y0145666D01*
X0155961Y0144068D02*
X0143650Y0144068D01*
X0143650Y0142469D02*
X0155961Y0142469D01*
X0155961Y0140870D02*
X0143650Y0140870D01*
X0143650Y0139272D02*
X0155961Y0139272D01*
X0155961Y0137673D02*
X0143650Y0137673D01*
X0143650Y0136075D02*
X0155961Y0136075D01*
X0155961Y0134476D02*
X0143650Y0134476D01*
X0143650Y0132878D02*
X0155961Y0132878D01*
X0155961Y0131279D02*
X0143650Y0131279D01*
X0143650Y0129681D02*
X0155961Y0129681D01*
X0155961Y0128082D02*
X0143650Y0128082D01*
X0143650Y0126484D02*
X0148340Y0126484D01*
X0146693Y0124885D02*
X0143650Y0124885D01*
X0143650Y0123287D02*
X0145950Y0123287D01*
X0143650Y0121688D02*
X0151050Y0121688D01*
X0151050Y0123287D02*
X0151450Y0123287D01*
X0151450Y0124885D02*
X0151050Y0124885D01*
X0151050Y0126484D02*
X0151450Y0126484D01*
X0154160Y0126484D02*
X0155961Y0126484D01*
X0155961Y0124885D02*
X0155807Y0124885D01*
X0148766Y0116893D02*
X0143650Y0116893D01*
X0143650Y0118491D02*
X0146856Y0118491D01*
X0146023Y0120090D02*
X0143650Y0120090D01*
X0138850Y0120090D02*
X0125455Y0120090D01*
X0125743Y0119802D02*
X0124252Y0121293D01*
X0122304Y0122100D01*
X0120196Y0122100D01*
X0118248Y0121293D01*
X0116757Y0119802D01*
X0115950Y0117854D01*
X0115950Y0115746D01*
X0116757Y0113798D01*
X0118248Y0112307D01*
X0119472Y0111800D01*
X0118248Y0111293D01*
X0116757Y0109802D01*
X0115950Y0107854D01*
X0115950Y0105746D01*
X0116757Y0103798D01*
X0118248Y0102307D01*
X0119472Y0101800D01*
X0118248Y0101293D01*
X0116757Y0099802D01*
X0115950Y0097854D01*
X0115950Y0095746D01*
X0116757Y0093798D01*
X0118248Y0092307D01*
X0119472Y0091800D01*
X0118248Y0091293D01*
X0116757Y0089802D01*
X0115950Y0087854D01*
X0115950Y0085746D01*
X0116757Y0083798D01*
X0118248Y0082307D01*
X0119472Y0081800D01*
X0118248Y0081293D01*
X0116757Y0079802D01*
X0115950Y0077854D01*
X0115950Y0075746D01*
X0116757Y0073798D01*
X0118248Y0072307D01*
X0119194Y0071915D01*
X0119139Y0071897D01*
X0118367Y0071504D01*
X0117667Y0070995D01*
X0117055Y0070383D01*
X0116546Y0069683D01*
X0116153Y0068911D01*
X0115885Y0068088D01*
X0115750Y0067233D01*
X0115750Y0067000D01*
X0121050Y0067000D01*
X0121050Y0066600D01*
X0115750Y0066600D01*
X0115750Y0066367D01*
X0115885Y0065512D01*
X0116153Y0064689D01*
X0116546Y0063917D01*
X0117055Y0063217D01*
X0117667Y0062605D01*
X0118367Y0062096D01*
X0119139Y0061703D01*
X0119962Y0061435D01*
X0120817Y0061300D01*
X0121050Y0061300D01*
X0121050Y0066600D01*
X0121450Y0066600D01*
X0121450Y0067000D01*
X0126750Y0067000D01*
X0126750Y0067233D01*
X0126623Y0068033D01*
X0147961Y0046695D01*
X0147961Y0046146D01*
X0148462Y0044937D01*
X0149387Y0044012D01*
X0150596Y0043511D01*
X0151904Y0043511D01*
X0153113Y0044012D01*
X0154038Y0044937D01*
X0154539Y0046146D01*
X0154539Y0047454D01*
X0154038Y0048663D01*
X0153113Y0049588D01*
X0151904Y0050089D01*
X0151355Y0050089D01*
X0130761Y0070683D01*
X0130761Y0114549D01*
X0131149Y0114937D01*
X0131650Y0116146D01*
X0131650Y0117454D01*
X0131149Y0118663D01*
X0130224Y0119588D01*
X0129015Y0120089D01*
X0127707Y0120089D01*
X0126498Y0119588D01*
X0126027Y0119117D01*
X0125743Y0119802D01*
X0123298Y0121688D02*
X0138850Y0121688D01*
X0138850Y0118491D02*
X0131220Y0118491D01*
X0131650Y0116893D02*
X0138850Y0116893D01*
X0138850Y0115294D02*
X0131297Y0115294D01*
X0130761Y0113696D02*
X0138494Y0113696D01*
X0137961Y0112097D02*
X0130761Y0112097D01*
X0130761Y0110499D02*
X0138229Y0110499D01*
X0139656Y0108900D02*
X0130761Y0108900D01*
X0130761Y0107302D02*
X0148260Y0107302D01*
X0147658Y0105703D02*
X0130761Y0105703D01*
X0130761Y0104105D02*
X0146468Y0104105D01*
X0145950Y0102506D02*
X0130761Y0102506D01*
X0130761Y0100908D02*
X0145950Y0100908D01*
X0146545Y0099309D02*
X0130761Y0099309D01*
X0130761Y0097711D02*
X0147844Y0097711D01*
X0148067Y0096112D02*
X0130761Y0096112D01*
X0130761Y0094514D02*
X0146637Y0094514D01*
X0145975Y0092915D02*
X0130761Y0092915D01*
X0130761Y0091317D02*
X0145950Y0091317D01*
X0146376Y0089718D02*
X0130761Y0089718D01*
X0130761Y0088120D02*
X0147435Y0088120D01*
X0148798Y0086521D02*
X0130761Y0086521D01*
X0130761Y0084923D02*
X0146877Y0084923D01*
X0146145Y0083324D02*
X0130761Y0083324D01*
X0130761Y0081726D02*
X0145950Y0081726D01*
X0146206Y0080127D02*
X0130761Y0080127D01*
X0130761Y0078529D02*
X0147026Y0078529D01*
X0149158Y0076930D02*
X0130761Y0076930D01*
X0130761Y0075332D02*
X0147286Y0075332D01*
X0146314Y0073733D02*
X0130761Y0073733D01*
X0130761Y0072134D02*
X0145950Y0072134D01*
X0146037Y0070536D02*
X0130908Y0070536D01*
X0132507Y0068937D02*
X0146699Y0068937D01*
X0148216Y0067339D02*
X0134105Y0067339D01*
X0135704Y0065740D02*
X0147695Y0065740D01*
X0146483Y0064142D02*
X0137302Y0064142D01*
X0138901Y0062543D02*
X0145950Y0062543D01*
X0145950Y0060945D02*
X0140499Y0060945D01*
X0142098Y0059346D02*
X0146530Y0059346D01*
X0147807Y0057748D02*
X0143696Y0057748D01*
X0145295Y0056149D02*
X0155961Y0056149D01*
X0155961Y0054551D02*
X0146893Y0054551D01*
X0148492Y0052952D02*
X0155961Y0052952D01*
X0155961Y0051354D02*
X0150090Y0051354D01*
X0152710Y0049755D02*
X0155961Y0049755D01*
X0155961Y0048157D02*
X0154248Y0048157D01*
X0154539Y0046558D02*
X0155961Y0046558D01*
X0155961Y0044960D02*
X0154048Y0044960D01*
X0155961Y0043361D02*
X0097850Y0043361D01*
X0097850Y0041763D02*
X0155961Y0041763D01*
X0155961Y0040164D02*
X0097850Y0040164D01*
X0097850Y0038566D02*
X0155961Y0038566D01*
X0155961Y0036967D02*
X0097850Y0036967D01*
X0097850Y0035369D02*
X0155961Y0035369D01*
X0155961Y0033770D02*
X0097850Y0033770D01*
X0097850Y0032172D02*
X0155961Y0032172D01*
X0155961Y0030573D02*
X0097850Y0030573D01*
X0097850Y0028975D02*
X0156596Y0028975D01*
X0158194Y0027376D02*
X0097850Y0027376D01*
X0097850Y0025778D02*
X0159793Y0025778D01*
X0161391Y0024179D02*
X0097850Y0024179D01*
X0097850Y0022581D02*
X0162990Y0022581D01*
X0164588Y0020982D02*
X0097850Y0020982D01*
X0097850Y0019384D02*
X0166187Y0019384D01*
X0167785Y0017785D02*
X0097850Y0017785D01*
X0097850Y0016187D02*
X0172243Y0016187D01*
X0172447Y0018911D02*
X0174139Y0020603D01*
X0174139Y0049689D01*
X0186250Y0061800D01*
X0181250Y0051800D02*
X0196250Y0051800D01*
X0192398Y0048157D02*
X0183650Y0048157D01*
X0183650Y0046558D02*
X0193513Y0046558D01*
X0191914Y0044960D02*
X0183464Y0044960D01*
X0184163Y0043361D02*
X0190950Y0043361D01*
X0190950Y0041763D02*
X0184539Y0041763D01*
X0184132Y0040164D02*
X0190950Y0040164D01*
X0191989Y0038566D02*
X0183650Y0038566D01*
X0183650Y0036967D02*
X0193587Y0036967D01*
X0192323Y0035369D02*
X0183650Y0035369D01*
X0183650Y0033770D02*
X0190950Y0033770D01*
X0190950Y0032172D02*
X0183650Y0032172D01*
X0183650Y0030573D02*
X0190950Y0030573D01*
X0191580Y0028975D02*
X0183650Y0028975D01*
X0183650Y0027376D02*
X0193178Y0027376D01*
X0192732Y0025778D02*
X0183650Y0025778D01*
X0183650Y0024179D02*
X0191134Y0024179D01*
X0190950Y0022581D02*
X0183650Y0022581D01*
X0183650Y0020982D02*
X0190950Y0020982D01*
X0191171Y0019384D02*
X0183650Y0019384D01*
X0184402Y0017785D02*
X0191629Y0017785D01*
X0190030Y0016187D02*
X0184539Y0016187D01*
X0183689Y0014588D02*
X0188832Y0014588D01*
X0188750Y0012990D02*
X0175834Y0012990D01*
X0174539Y0011391D02*
X0188750Y0011391D01*
X0188750Y0009793D02*
X0173894Y0009793D01*
X0171250Y0011800D02*
X0178361Y0018911D01*
X0178361Y0042997D01*
X0181250Y0045886D01*
X0181250Y0051800D01*
X0181250Y0041800D02*
X0181250Y0016800D01*
X0178811Y0014588D02*
X0177432Y0014588D01*
X0172447Y0018911D02*
X0170053Y0018911D01*
X0158361Y0030603D01*
X0158361Y0155679D01*
X0173871Y0171189D01*
X0259725Y0171189D01*
X0264139Y0175603D01*
X0264139Y0177997D01*
X0262447Y0179689D01*
X0264696Y0180833D02*
X0271889Y0180833D01*
X0270291Y0179235D02*
X0266224Y0179235D01*
X0266539Y0177636D02*
X0268692Y0177636D01*
X0267094Y0176038D02*
X0266539Y0176038D01*
X0270685Y0172841D02*
X0286511Y0172841D01*
X0284665Y0174439D02*
X0272283Y0174439D01*
X0273882Y0176038D02*
X0284050Y0176038D01*
X0284050Y0177636D02*
X0275480Y0177636D01*
X0277079Y0179235D02*
X0284696Y0179235D01*
X0286689Y0180833D02*
X0278677Y0180833D01*
X0280276Y0182432D02*
X0287498Y0182432D01*
X0284997Y0184030D02*
X0283132Y0184030D01*
X0297973Y0188826D02*
X0303625Y0188826D01*
X0298158Y0195220D02*
X0314342Y0195220D01*
X0314050Y0196818D02*
X0298450Y0196818D01*
X0298143Y0198417D02*
X0314357Y0198417D01*
X0315443Y0200015D02*
X0297057Y0200015D01*
X0296685Y0203212D02*
X0315815Y0203212D01*
X0314511Y0204811D02*
X0297989Y0204811D01*
X0298450Y0206409D02*
X0314050Y0206409D01*
X0314188Y0208008D02*
X0298312Y0208008D01*
X0297466Y0209606D02*
X0315034Y0209606D01*
X0316601Y0212803D02*
X0295899Y0212803D01*
X0297819Y0214402D02*
X0299025Y0214402D01*
X0299507Y0216800D02*
X0295507Y0220800D01*
X0244462Y0220800D01*
X0223362Y0241900D01*
X0222447Y0259689D02*
X0220053Y0259689D01*
X0222447Y0259689D02*
X0251336Y0230800D01*
X0326336Y0230800D01*
X0339139Y0217997D01*
X0339139Y0208911D01*
X0341250Y0206800D01*
X0340418Y0200015D02*
X0327057Y0200015D01*
X0328143Y0198417D02*
X0338360Y0198417D01*
X0337874Y0196818D02*
X0328450Y0196818D01*
X0328158Y0195220D02*
X0336276Y0195220D01*
X0336150Y0191700D02*
X0341250Y0196800D01*
X0336150Y0191700D02*
X0200436Y0191700D01*
X0187447Y0204689D01*
X0185053Y0204689D01*
X0147164Y0166800D01*
X0131250Y0166800D01*
X0133626Y0163250D02*
X0162537Y0163250D01*
X0164136Y0164848D02*
X0148607Y0164848D01*
X0150205Y0166447D02*
X0165734Y0166447D01*
X0167333Y0168045D02*
X0151804Y0168045D01*
X0153402Y0169644D02*
X0168931Y0169644D01*
X0170530Y0171242D02*
X0155001Y0171242D01*
X0156599Y0172841D02*
X0172128Y0172841D01*
X0171836Y0172548D02*
X0171836Y0172548D01*
X0162993Y0179235D02*
X0184033Y0179235D01*
X0183036Y0177636D02*
X0161395Y0177636D01*
X0159796Y0176038D02*
X0183006Y0176038D01*
X0183959Y0174439D02*
X0158198Y0174439D01*
X0168593Y0161800D02*
X0166250Y0159457D01*
X0166250Y0071800D01*
X0171250Y0081800D02*
X0171250Y0106800D01*
X0182361Y0117911D01*
X0182361Y0150189D01*
X0214639Y0150189D01*
X0221250Y0156800D01*
X0222260Y0153659D02*
X0225997Y0153659D01*
X0224399Y0155257D02*
X0224171Y0155257D01*
X0227596Y0152060D02*
X0219904Y0152060D01*
X0218306Y0150462D02*
X0229194Y0150462D01*
X0230793Y0148863D02*
X0216707Y0148863D01*
X0213402Y0140870D02*
X0233850Y0140870D01*
X0233850Y0139272D02*
X0215001Y0139272D01*
X0215650Y0137673D02*
X0233850Y0137673D01*
X0233850Y0136075D02*
X0215650Y0136075D01*
X0215149Y0134476D02*
X0233850Y0134476D01*
X0233850Y0132878D02*
X0213550Y0132878D01*
X0211106Y0129681D02*
X0233850Y0129681D01*
X0233850Y0131279D02*
X0209508Y0131279D01*
X0208950Y0132878D02*
X0208650Y0132878D01*
X0206250Y0131143D02*
X0231250Y0106143D01*
X0231250Y0101800D01*
X0233410Y0099309D02*
X0233850Y0099309D01*
X0233850Y0097711D02*
X0209656Y0097711D01*
X0209433Y0096112D02*
X0233850Y0096112D01*
X0233850Y0094514D02*
X0211032Y0094514D01*
X0211550Y0092915D02*
X0233850Y0092915D01*
X0233850Y0091317D02*
X0211550Y0091317D01*
X0211550Y0089718D02*
X0233850Y0089718D01*
X0233850Y0088120D02*
X0210065Y0088120D01*
X0211255Y0099309D02*
X0229089Y0099309D01*
X0228060Y0100908D02*
X0211550Y0100908D01*
X0211550Y0102506D02*
X0227983Y0102506D01*
X0228850Y0104105D02*
X0211441Y0104105D01*
X0209842Y0105703D02*
X0228296Y0105703D01*
X0226697Y0107302D02*
X0209247Y0107302D01*
X0210846Y0108900D02*
X0214656Y0108900D01*
X0213229Y0110499D02*
X0211550Y0110499D01*
X0211550Y0112097D02*
X0212961Y0112097D01*
X0213494Y0113696D02*
X0211550Y0113696D01*
X0210251Y0115294D02*
X0213850Y0115294D01*
X0213850Y0116893D02*
X0208652Y0116893D01*
X0203848Y0116893D02*
X0198935Y0116893D01*
X0200534Y0115294D02*
X0202249Y0115294D01*
X0196450Y0115294D02*
X0196050Y0115294D01*
X0196050Y0113696D02*
X0196450Y0113696D01*
X0196450Y0112097D02*
X0196050Y0112097D01*
X0196050Y0116893D02*
X0196450Y0116893D01*
X0193565Y0116893D02*
X0192650Y0116893D01*
X0192650Y0118491D02*
X0213850Y0118491D01*
X0213398Y0120090D02*
X0192650Y0120090D01*
X0192650Y0121688D02*
X0212311Y0121688D01*
X0210712Y0123287D02*
X0192650Y0123287D01*
X0192650Y0124885D02*
X0209114Y0124885D01*
X0207515Y0126484D02*
X0192650Y0126484D01*
X0192650Y0128082D02*
X0205917Y0128082D01*
X0204318Y0129681D02*
X0192650Y0129681D01*
X0192650Y0131279D02*
X0203850Y0131279D01*
X0203850Y0132878D02*
X0192650Y0132878D01*
X0192650Y0134476D02*
X0203850Y0134476D01*
X0203581Y0136075D02*
X0192650Y0136075D01*
X0192650Y0137673D02*
X0201982Y0137673D01*
X0199127Y0139272D02*
X0192650Y0139272D01*
X0192650Y0140870D02*
X0198075Y0140870D01*
X0197967Y0142469D02*
X0192650Y0142469D01*
X0193169Y0144068D02*
X0198866Y0144068D01*
X0201250Y0141800D02*
X0206250Y0136800D01*
X0206250Y0131143D01*
X0212705Y0128082D02*
X0233850Y0128082D01*
X0233850Y0126484D02*
X0214303Y0126484D01*
X0217396Y0124885D02*
X0233850Y0124885D01*
X0233850Y0123287D02*
X0219194Y0123287D01*
X0219539Y0121688D02*
X0233850Y0121688D01*
X0233850Y0120090D02*
X0220697Y0120090D01*
X0222296Y0118491D02*
X0233850Y0118491D01*
X0233850Y0116893D02*
X0223894Y0116893D01*
X0225493Y0115294D02*
X0233850Y0115294D01*
X0233850Y0113696D02*
X0227091Y0113696D01*
X0228690Y0112097D02*
X0233850Y0112097D01*
X0233850Y0110499D02*
X0230288Y0110499D01*
X0231887Y0108900D02*
X0233850Y0108900D01*
X0233850Y0107302D02*
X0233368Y0107302D01*
X0233650Y0105703D02*
X0233850Y0105703D01*
X0233850Y0104105D02*
X0233650Y0104105D01*
X0225099Y0108900D02*
X0217844Y0108900D01*
X0219271Y0110499D02*
X0223500Y0110499D01*
X0221902Y0112097D02*
X0219539Y0112097D01*
X0219006Y0113696D02*
X0220303Y0113696D01*
X0218705Y0115294D02*
X0218650Y0115294D01*
X0216250Y0111800D02*
X0216250Y0121800D01*
X0207499Y0139272D02*
X0207172Y0139272D01*
X0205574Y0140870D02*
X0209098Y0140870D01*
X0204533Y0142469D02*
X0233850Y0142469D01*
X0233850Y0144068D02*
X0203634Y0144068D01*
X0194340Y0145666D02*
X0233850Y0145666D01*
X0232391Y0147265D02*
X0194539Y0147265D01*
X0191250Y0146800D02*
X0190250Y0145800D01*
X0190250Y0113012D01*
X0190150Y0112912D01*
X0190150Y0100700D01*
X0181250Y0091800D01*
X0186250Y0121800D02*
X0186250Y0146800D01*
X0176250Y0161800D02*
X0168593Y0161800D01*
X0176250Y0161800D02*
X0181250Y0166800D01*
X0174183Y0190424D02*
X0198317Y0190424D01*
X0196719Y0192023D02*
X0175781Y0192023D01*
X0177380Y0193621D02*
X0195120Y0193621D01*
X0193522Y0195220D02*
X0178978Y0195220D01*
X0180577Y0196818D02*
X0191923Y0196818D01*
X0190325Y0198417D02*
X0182175Y0198417D01*
X0183774Y0200015D02*
X0188726Y0200015D01*
X0187128Y0201614D02*
X0185372Y0201614D01*
X0193361Y0210603D02*
X0195053Y0208911D01*
X0202447Y0208911D01*
X0205336Y0211800D01*
X0211250Y0211800D01*
X0213708Y0209606D02*
X0216676Y0209606D01*
X0218160Y0211205D02*
X0214539Y0211205D01*
X0214394Y0212803D02*
X0217468Y0212803D01*
X0216299Y0214402D02*
X0213299Y0214402D01*
X0225824Y0209606D02*
X0264431Y0209606D01*
X0268069Y0209606D02*
X0285034Y0209606D01*
X0299507Y0216800D02*
X0336250Y0216800D01*
X0333999Y0219200D02*
X0334270Y0219471D01*
X0328410Y0225332D01*
X0328313Y0225034D01*
X0327984Y0224389D01*
X0327559Y0223803D01*
X0327047Y0223291D01*
X0326461Y0222866D01*
X0325816Y0222537D01*
X0325127Y0222313D01*
X0324412Y0222200D01*
X0321250Y0222200D01*
X0321250Y0226800D01*
X0321250Y0226800D01*
X0321250Y0226800D01*
X0313850Y0226800D01*
X0313850Y0227162D01*
X0313963Y0227877D01*
X0314133Y0228400D01*
X0298150Y0228400D01*
X0298450Y0227675D01*
X0298450Y0225925D01*
X0297780Y0224308D01*
X0296542Y0223070D01*
X0296420Y0223019D01*
X0296866Y0222835D01*
X0297541Y0222159D01*
X0300501Y0219200D01*
X0314682Y0219200D01*
X0314720Y0219292D01*
X0315958Y0220530D01*
X0317575Y0221200D01*
X0324925Y0221200D01*
X0326542Y0220530D01*
X0327780Y0219292D01*
X0327818Y0219200D01*
X0333999Y0219200D01*
X0332945Y0220796D02*
X0325900Y0220796D01*
X0325377Y0222395D02*
X0331347Y0222395D01*
X0329748Y0223993D02*
X0327697Y0223993D01*
X0321250Y0223993D02*
X0321250Y0223993D01*
X0321250Y0222395D02*
X0321250Y0222395D01*
X0321250Y0222200D02*
X0321250Y0226800D01*
X0313850Y0226800D01*
X0313850Y0226438D01*
X0313963Y0225723D01*
X0314187Y0225034D01*
X0314516Y0224389D01*
X0314941Y0223803D01*
X0315453Y0223291D01*
X0316039Y0222866D01*
X0316684Y0222537D01*
X0317373Y0222313D01*
X0318088Y0222200D01*
X0321250Y0222200D01*
X0321250Y0225592D02*
X0321250Y0225592D01*
X0317123Y0222395D02*
X0297306Y0222395D01*
X0297466Y0223993D02*
X0314803Y0223993D01*
X0314006Y0225592D02*
X0298312Y0225592D01*
X0298450Y0227190D02*
X0313854Y0227190D01*
X0316600Y0220796D02*
X0298905Y0220796D01*
X0326440Y0246372D02*
X0332369Y0246372D01*
X0330771Y0247971D02*
X0324842Y0247971D01*
X0323243Y0249569D02*
X0329172Y0249569D01*
X0327574Y0251168D02*
X0321644Y0251168D01*
X0320046Y0252766D02*
X0325975Y0252766D01*
X0324377Y0254365D02*
X0318447Y0254365D01*
X0316849Y0255963D02*
X0322778Y0255963D01*
X0321180Y0257562D02*
X0315250Y0257562D01*
X0313652Y0259160D02*
X0319581Y0259160D01*
X0317983Y0260759D02*
X0312053Y0260759D01*
X0310455Y0262357D02*
X0316384Y0262357D01*
X0314786Y0263956D02*
X0308856Y0263956D01*
X0308650Y0264162D02*
X0308650Y0269549D01*
X0308921Y0269820D01*
X0348343Y0230398D01*
X0346650Y0228705D01*
X0346650Y0226800D01*
X0351250Y0226800D01*
X0351250Y0226800D01*
X0351250Y0222200D01*
X0353155Y0222200D01*
X0353939Y0222984D01*
X0353939Y0218873D01*
X0350612Y0222200D01*
X0351250Y0222200D01*
X0351250Y0226800D01*
X0351250Y0226800D01*
X0346650Y0226800D01*
X0346650Y0226162D01*
X0308650Y0264162D01*
X0308650Y0265554D02*
X0313187Y0265554D01*
X0311589Y0267153D02*
X0308650Y0267153D01*
X0308650Y0268751D02*
X0309990Y0268751D01*
X0306250Y0271800D02*
X0306250Y0263168D01*
X0354139Y0215279D01*
X0354139Y0190603D01*
X0353939Y0185629D02*
X0352559Y0185629D01*
X0353939Y0184030D02*
X0350960Y0184030D01*
X0349362Y0182432D02*
X0353939Y0182432D01*
X0353939Y0180833D02*
X0348011Y0180833D01*
X0350004Y0179235D02*
X0353939Y0179235D01*
X0353939Y0177636D02*
X0350650Y0177636D01*
X0350650Y0176038D02*
X0353939Y0176038D01*
X0353939Y0174439D02*
X0350035Y0174439D01*
X0348189Y0172841D02*
X0353939Y0172841D01*
X0353939Y0171242D02*
X0338739Y0171242D01*
X0338739Y0169644D02*
X0353939Y0169644D01*
X0353939Y0168045D02*
X0338739Y0168045D01*
X0338739Y0166447D02*
X0353939Y0166447D01*
X0353939Y0164848D02*
X0338739Y0164848D01*
X0338739Y0163250D02*
X0353939Y0163250D01*
X0353939Y0161651D02*
X0338739Y0161651D01*
X0338739Y0160053D02*
X0342997Y0160053D01*
X0344345Y0161400D02*
X0341650Y0158705D01*
X0341650Y0156800D01*
X0346250Y0156800D01*
X0346250Y0156800D01*
X0346250Y0161400D01*
X0348155Y0161400D01*
X0350850Y0158705D01*
X0350850Y0156800D01*
X0346250Y0156800D01*
X0346250Y0156800D01*
X0346250Y0156800D01*
X0346250Y0161400D01*
X0344345Y0161400D01*
X0346250Y0160053D02*
X0346250Y0160053D01*
X0346250Y0158454D02*
X0346250Y0158454D01*
X0346250Y0156856D02*
X0346250Y0156856D01*
X0346250Y0156800D02*
X0341650Y0156800D01*
X0341650Y0154895D01*
X0344345Y0152200D01*
X0346250Y0152200D01*
X0348155Y0152200D01*
X0350850Y0154895D01*
X0350850Y0156800D01*
X0346250Y0156800D01*
X0346250Y0152200D01*
X0346250Y0156800D01*
X0346250Y0156800D01*
X0346250Y0155257D02*
X0346250Y0155257D01*
X0346250Y0153659D02*
X0346250Y0153659D01*
X0349614Y0153659D02*
X0353939Y0153659D01*
X0353939Y0155257D02*
X0350850Y0155257D01*
X0350850Y0156856D02*
X0353939Y0156856D01*
X0353939Y0158454D02*
X0350850Y0158454D01*
X0349503Y0160053D02*
X0353939Y0160053D01*
X0358739Y0158454D02*
X0373375Y0158454D01*
X0372961Y0156856D02*
X0358739Y0156856D01*
X0358739Y0155257D02*
X0373329Y0155257D01*
X0373850Y0153659D02*
X0358739Y0153659D01*
X0358739Y0152060D02*
X0373850Y0152060D01*
X0373850Y0150462D02*
X0368811Y0150462D01*
X0370409Y0148863D02*
X0373850Y0148863D01*
X0373850Y0147265D02*
X0370650Y0147265D01*
X0370650Y0145666D02*
X0373850Y0145666D01*
X0373850Y0144068D02*
X0369740Y0144068D01*
X0368318Y0142469D02*
X0373850Y0142469D01*
X0373850Y0140870D02*
X0369917Y0140870D01*
X0371515Y0139272D02*
X0373850Y0139272D01*
X0376250Y0136800D02*
X0376250Y0156800D01*
X0379539Y0156856D02*
X0399050Y0156856D01*
X0399327Y0155257D02*
X0379171Y0155257D01*
X0378650Y0153659D02*
X0393460Y0153659D01*
X0399040Y0153659D02*
X0400369Y0153659D01*
X0399373Y0158454D02*
X0379125Y0158454D01*
X0367184Y0169644D02*
X0358739Y0169644D01*
X0358739Y0171242D02*
X0366850Y0171242D01*
X0366850Y0172841D02*
X0358739Y0172841D01*
X0358739Y0174439D02*
X0367667Y0174439D01*
X0369265Y0176038D02*
X0358739Y0176038D01*
X0358739Y0177636D02*
X0368908Y0177636D01*
X0367310Y0179235D02*
X0358739Y0179235D01*
X0358739Y0180833D02*
X0366650Y0180833D01*
X0366650Y0182432D02*
X0358739Y0182432D01*
X0358739Y0184030D02*
X0366975Y0184030D01*
X0344311Y0172841D02*
X0339770Y0172841D01*
X0341369Y0174439D02*
X0342465Y0174439D01*
X0334139Y0177997D02*
X0332447Y0179689D01*
X0330053Y0179689D01*
X0327164Y0176800D01*
X0321250Y0176800D01*
X0327850Y0173400D02*
X0327850Y0165143D01*
X0325507Y0162800D01*
X0317250Y0162800D01*
X0301250Y0146800D01*
X0291250Y0146800D01*
X0287575Y0142400D02*
X0294925Y0142400D01*
X0296542Y0143070D01*
X0297780Y0144308D01*
X0297818Y0144400D01*
X0298999Y0144400D01*
X0299387Y0144012D01*
X0300596Y0143511D01*
X0301904Y0143511D01*
X0303113Y0144012D01*
X0304038Y0144937D01*
X0304539Y0146146D01*
X0304539Y0146695D01*
X0314050Y0156206D01*
X0314050Y0155925D01*
X0314720Y0154308D01*
X0315958Y0153070D01*
X0317575Y0152400D01*
X0324925Y0152400D01*
X0325450Y0152617D01*
X0325450Y0151182D01*
X0325127Y0151287D01*
X0324412Y0151400D01*
X0321250Y0151400D01*
X0321250Y0146800D01*
X0321250Y0146800D01*
X0321250Y0146800D01*
X0313850Y0146800D01*
X0313850Y0147162D01*
X0313963Y0147877D01*
X0314187Y0148566D01*
X0314516Y0149211D01*
X0314941Y0149797D01*
X0315453Y0150309D01*
X0316039Y0150734D01*
X0316684Y0151063D01*
X0317373Y0151287D01*
X0318088Y0151400D01*
X0321250Y0151400D01*
X0321250Y0146800D01*
X0313850Y0146800D01*
X0313850Y0146438D01*
X0313963Y0145723D01*
X0314187Y0145034D01*
X0314516Y0144389D01*
X0314653Y0144200D01*
X0305773Y0144200D01*
X0304891Y0143835D01*
X0304215Y0143159D01*
X0298450Y0137394D01*
X0298450Y0137675D01*
X0297780Y0139292D01*
X0296542Y0140530D01*
X0294925Y0141200D01*
X0287575Y0141200D01*
X0285958Y0140530D01*
X0284720Y0139292D01*
X0284050Y0137675D01*
X0284050Y0135925D01*
X0284720Y0134308D01*
X0285958Y0133070D01*
X0287575Y0132400D01*
X0293456Y0132400D01*
X0292256Y0131200D01*
X0287575Y0131200D01*
X0285958Y0130530D01*
X0284720Y0129292D01*
X0284050Y0127675D01*
X0284050Y0125925D01*
X0284720Y0124308D01*
X0284827Y0124200D01*
X0264873Y0124200D01*
X0265650Y0124977D01*
X0265650Y0128623D01*
X0263073Y0131200D01*
X0262155Y0131200D01*
X0264809Y0133854D01*
X0265485Y0134529D01*
X0265850Y0135411D01*
X0265850Y0137763D01*
X0284050Y0155963D01*
X0284050Y0155925D01*
X0284720Y0154308D01*
X0285913Y0153114D01*
X0282615Y0149816D01*
X0282250Y0148934D01*
X0282250Y0146194D01*
X0271145Y0135089D01*
X0270596Y0135089D01*
X0269387Y0134588D01*
X0268462Y0133663D01*
X0267961Y0132454D01*
X0267961Y0131146D01*
X0268462Y0129937D01*
X0269387Y0129012D01*
X0270596Y0128511D01*
X0271904Y0128511D01*
X0273113Y0129012D01*
X0274038Y0129937D01*
X0274539Y0131146D01*
X0274539Y0131695D01*
X0285936Y0143092D01*
X0285958Y0143070D01*
X0287575Y0142400D01*
X0287408Y0142469D02*
X0285313Y0142469D01*
X0286779Y0140870D02*
X0283715Y0140870D01*
X0284711Y0139272D02*
X0282116Y0139272D01*
X0280518Y0137673D02*
X0284050Y0137673D01*
X0284050Y0136075D02*
X0278919Y0136075D01*
X0277321Y0134476D02*
X0284650Y0134476D01*
X0286421Y0132878D02*
X0275722Y0132878D01*
X0274539Y0131279D02*
X0292335Y0131279D01*
X0291250Y0126800D02*
X0306250Y0141800D01*
X0321250Y0141800D01*
X0321250Y0147265D02*
X0321250Y0147265D01*
X0321250Y0148863D02*
X0321250Y0148863D01*
X0321250Y0150462D02*
X0321250Y0150462D01*
X0325450Y0152060D02*
X0309904Y0152060D01*
X0308306Y0150462D02*
X0315664Y0150462D01*
X0314338Y0148863D02*
X0306707Y0148863D01*
X0305109Y0147265D02*
X0313866Y0147265D01*
X0313982Y0145666D02*
X0304340Y0145666D01*
X0305453Y0144068D02*
X0303169Y0144068D01*
X0303525Y0142469D02*
X0295092Y0142469D01*
X0295721Y0140870D02*
X0301926Y0140870D01*
X0300328Y0139272D02*
X0297789Y0139272D01*
X0298450Y0137673D02*
X0298729Y0137673D01*
X0299331Y0144068D02*
X0297540Y0144068D01*
X0301664Y0151386D02*
X0301250Y0151800D01*
X0303139Y0151800D01*
X0316339Y0165000D01*
X0319450Y0165000D01*
X0321250Y0166800D01*
X0314650Y0171943D02*
X0314650Y0178457D01*
X0322993Y0186800D01*
X0341250Y0186800D01*
X0334139Y0177997D02*
X0334139Y0161432D01*
X0327850Y0155143D01*
X0327850Y0115143D01*
X0323507Y0110800D01*
X0316993Y0110800D01*
X0314650Y0108457D01*
X0314650Y0105200D01*
X0296250Y0086800D01*
X0300254Y0083324D02*
X0306145Y0083324D01*
X0305950Y0082854D02*
X0305950Y0080746D01*
X0306757Y0078798D01*
X0308248Y0077307D01*
X0309472Y0076800D01*
X0308248Y0076293D01*
X0306757Y0074802D01*
X0305950Y0072854D01*
X0305950Y0070746D01*
X0306757Y0068798D01*
X0308248Y0067307D01*
X0309472Y0066800D01*
X0308248Y0066293D01*
X0306757Y0064802D01*
X0305950Y0062854D01*
X0305950Y0060746D01*
X0306757Y0058798D01*
X0308248Y0057307D01*
X0309472Y0056800D01*
X0308248Y0056293D01*
X0306757Y0054802D01*
X0305950Y0052854D01*
X0305950Y0050746D01*
X0306757Y0048798D01*
X0308248Y0047307D01*
X0309472Y0046800D01*
X0308248Y0046293D01*
X0306757Y0044802D01*
X0305950Y0042854D01*
X0305950Y0040746D01*
X0306757Y0038798D01*
X0308248Y0037307D01*
X0309472Y0036800D01*
X0308248Y0036293D01*
X0306757Y0034802D01*
X0305950Y0032854D01*
X0305950Y0030746D01*
X0306757Y0028798D01*
X0308248Y0027307D01*
X0309472Y0026800D01*
X0308248Y0026293D01*
X0306757Y0024802D01*
X0305950Y0022854D01*
X0305950Y0020746D01*
X0306757Y0018798D01*
X0308248Y0017307D01*
X0309472Y0016800D01*
X0308248Y0016293D01*
X0306757Y0014802D01*
X0305950Y0012854D01*
X0305950Y0010746D01*
X0306757Y0008798D01*
X0308248Y0007307D01*
X0310196Y0006500D01*
X0312304Y0006500D01*
X0314252Y0007307D01*
X0315743Y0008798D01*
X0316250Y0010022D01*
X0316757Y0008798D01*
X0318248Y0007307D01*
X0320196Y0006500D01*
X0322304Y0006500D01*
X0324252Y0007307D01*
X0325743Y0008798D01*
X0326250Y0010022D01*
X0326757Y0008798D01*
X0328248Y0007307D01*
X0330196Y0006500D01*
X0332304Y0006500D01*
X0334252Y0007307D01*
X0335743Y0008798D01*
X0336250Y0010022D01*
X0336757Y0008798D01*
X0338248Y0007307D01*
X0340196Y0006500D01*
X0342304Y0006500D01*
X0344252Y0007307D01*
X0345743Y0008798D01*
X0346250Y0010022D01*
X0346757Y0008798D01*
X0348248Y0007307D01*
X0350196Y0006500D01*
X0352304Y0006500D01*
X0354252Y0007307D01*
X0355743Y0008798D01*
X0356250Y0010022D01*
X0356757Y0008798D01*
X0358248Y0007307D01*
X0360196Y0006500D01*
X0362304Y0006500D01*
X0364252Y0007307D01*
X0365743Y0008798D01*
X0366250Y0010022D01*
X0366757Y0008798D01*
X0368248Y0007307D01*
X0370196Y0006500D01*
X0372304Y0006500D01*
X0374252Y0007307D01*
X0375743Y0008798D01*
X0376250Y0010022D01*
X0376757Y0008798D01*
X0378248Y0007307D01*
X0380196Y0006500D01*
X0382304Y0006500D01*
X0384252Y0007307D01*
X0385743Y0008798D01*
X0386250Y0010022D01*
X0386757Y0008798D01*
X0388248Y0007307D01*
X0390196Y0006500D01*
X0392304Y0006500D01*
X0394252Y0007307D01*
X0395743Y0008798D01*
X0396250Y0010022D01*
X0396757Y0008798D01*
X0398248Y0007307D01*
X0400196Y0006500D01*
X0402304Y0006500D01*
X0404252Y0007307D01*
X0405743Y0008798D01*
X0406550Y0010746D01*
X0406550Y0012854D01*
X0405743Y0014802D01*
X0404252Y0016293D01*
X0403028Y0016800D01*
X0404252Y0017307D01*
X0405743Y0018798D01*
X0406550Y0020746D01*
X0406550Y0022854D01*
X0405743Y0024802D01*
X0404252Y0026293D01*
X0403028Y0026800D01*
X0404252Y0027307D01*
X0405743Y0028798D01*
X0406550Y0030746D01*
X0406550Y0032854D01*
X0405743Y0034802D01*
X0404252Y0036293D01*
X0403028Y0036800D01*
X0404252Y0037307D01*
X0405743Y0038798D01*
X0406550Y0040746D01*
X0406550Y0042854D01*
X0405743Y0044802D01*
X0404252Y0046293D01*
X0403028Y0046800D01*
X0404252Y0047307D01*
X0405743Y0048798D01*
X0406550Y0050746D01*
X0406550Y0052854D01*
X0405743Y0054802D01*
X0404252Y0056293D01*
X0403028Y0056800D01*
X0404252Y0057307D01*
X0405743Y0058798D01*
X0406550Y0060746D01*
X0406550Y0062854D01*
X0405743Y0064802D01*
X0404252Y0066293D01*
X0403028Y0066800D01*
X0404252Y0067307D01*
X0405743Y0068798D01*
X0406550Y0070746D01*
X0406550Y0072854D01*
X0405743Y0074802D01*
X0404252Y0076293D01*
X0403028Y0076800D01*
X0404252Y0077307D01*
X0405743Y0078798D01*
X0406550Y0080746D01*
X0406550Y0082854D01*
X0405743Y0084802D01*
X0404252Y0086293D01*
X0402304Y0087100D01*
X0400196Y0087100D01*
X0398248Y0086293D01*
X0396757Y0084802D01*
X0396250Y0083578D01*
X0395743Y0084802D01*
X0394252Y0086293D01*
X0392304Y0087100D01*
X0390196Y0087100D01*
X0388248Y0086293D01*
X0386757Y0084802D01*
X0386250Y0083578D01*
X0385743Y0084802D01*
X0384252Y0086293D01*
X0382304Y0087100D01*
X0380196Y0087100D01*
X0378248Y0086293D01*
X0376757Y0084802D01*
X0376250Y0083578D01*
X0375743Y0084802D01*
X0374252Y0086293D01*
X0372304Y0087100D01*
X0370196Y0087100D01*
X0368248Y0086293D01*
X0366757Y0084802D01*
X0366250Y0083578D01*
X0365743Y0084802D01*
X0364252Y0086293D01*
X0362304Y0087100D01*
X0360196Y0087100D01*
X0358248Y0086293D01*
X0356757Y0084802D01*
X0356250Y0083578D01*
X0355743Y0084802D01*
X0354252Y0086293D01*
X0352304Y0087100D01*
X0350196Y0087100D01*
X0348248Y0086293D01*
X0346757Y0084802D01*
X0346250Y0083578D01*
X0345743Y0084802D01*
X0344252Y0086293D01*
X0342304Y0087100D01*
X0340196Y0087100D01*
X0338248Y0086293D01*
X0336757Y0084802D01*
X0336250Y0083578D01*
X0335743Y0084802D01*
X0334252Y0086293D01*
X0332304Y0087100D01*
X0330196Y0087100D01*
X0328248Y0086293D01*
X0326757Y0084802D01*
X0326250Y0083578D01*
X0325743Y0084802D01*
X0324252Y0086293D01*
X0322304Y0087100D01*
X0320196Y0087100D01*
X0318248Y0086293D01*
X0316757Y0084802D01*
X0316250Y0083578D01*
X0315743Y0084802D01*
X0314252Y0086293D01*
X0312304Y0087100D01*
X0310196Y0087100D01*
X0308248Y0086293D01*
X0306757Y0084802D01*
X0305950Y0082854D01*
X0305950Y0081726D02*
X0298442Y0081726D01*
X0294058Y0081726D02*
X0293750Y0081726D01*
X0293750Y0080127D02*
X0306206Y0080127D01*
X0307026Y0078529D02*
X0293750Y0078529D01*
X0293750Y0076930D02*
X0309158Y0076930D01*
X0307286Y0075332D02*
X0293750Y0075332D01*
X0293750Y0073733D02*
X0306314Y0073733D01*
X0305950Y0072134D02*
X0293750Y0072134D01*
X0293750Y0070536D02*
X0306037Y0070536D01*
X0306699Y0068937D02*
X0293750Y0068937D01*
X0293750Y0067339D02*
X0308216Y0067339D01*
X0307695Y0065740D02*
X0293750Y0065740D01*
X0293750Y0064142D02*
X0306483Y0064142D01*
X0305950Y0062543D02*
X0293750Y0062543D01*
X0293750Y0060945D02*
X0305950Y0060945D01*
X0306530Y0059346D02*
X0293750Y0059346D01*
X0293750Y0057748D02*
X0307807Y0057748D01*
X0308104Y0056149D02*
X0293750Y0056149D01*
X0293750Y0054551D02*
X0306653Y0054551D01*
X0305991Y0052952D02*
X0293750Y0052952D01*
X0293750Y0051354D02*
X0305950Y0051354D01*
X0306360Y0049755D02*
X0293750Y0049755D01*
X0293750Y0048157D02*
X0307398Y0048157D01*
X0308888Y0046558D02*
X0293750Y0046558D01*
X0293750Y0044960D02*
X0306914Y0044960D01*
X0306160Y0043361D02*
X0293750Y0043361D01*
X0293750Y0041763D02*
X0305950Y0041763D01*
X0306191Y0040164D02*
X0293750Y0040164D01*
X0293750Y0038566D02*
X0306989Y0038566D01*
X0309068Y0036967D02*
X0293750Y0036967D01*
X0293750Y0035369D02*
X0307323Y0035369D01*
X0306329Y0033770D02*
X0293750Y0033770D01*
X0293750Y0032172D02*
X0305950Y0032172D01*
X0306021Y0030573D02*
X0293750Y0030573D01*
X0293750Y0028975D02*
X0306684Y0028975D01*
X0308178Y0027376D02*
X0293750Y0027376D01*
X0293750Y0025778D02*
X0307732Y0025778D01*
X0306499Y0024179D02*
X0293750Y0024179D01*
X0293750Y0022581D02*
X0305950Y0022581D01*
X0305950Y0020982D02*
X0293750Y0020982D01*
X0293750Y0019384D02*
X0306514Y0019384D01*
X0307770Y0017785D02*
X0293750Y0017785D01*
X0293750Y0016187D02*
X0308141Y0016187D01*
X0306668Y0014588D02*
X0293750Y0014588D01*
X0293750Y0012990D02*
X0306006Y0012990D01*
X0305950Y0011391D02*
X0293750Y0011391D01*
X0293750Y0009793D02*
X0306345Y0009793D01*
X0307361Y0008194D02*
X0293251Y0008194D01*
X0291652Y0006596D02*
X0309965Y0006596D01*
X0312535Y0006596D02*
X0319965Y0006596D01*
X0322535Y0006596D02*
X0329965Y0006596D01*
X0332535Y0006596D02*
X0339965Y0006596D01*
X0342535Y0006596D02*
X0349965Y0006596D01*
X0352535Y0006596D02*
X0359965Y0006596D01*
X0362535Y0006596D02*
X0369965Y0006596D01*
X0372535Y0006596D02*
X0379965Y0006596D01*
X0382535Y0006596D02*
X0389965Y0006596D01*
X0392535Y0006596D02*
X0399965Y0006596D01*
X0402535Y0006596D02*
X0419469Y0006596D01*
X0419139Y0006703D02*
X0419962Y0006435D01*
X0420817Y0006300D01*
X0421050Y0006300D01*
X0421050Y0011600D01*
X0421450Y0011600D01*
X0421450Y0006300D01*
X0421683Y0006300D01*
X0422538Y0006435D01*
X0423361Y0006703D01*
X0424133Y0007096D01*
X0424833Y0007605D01*
X0425445Y0008217D01*
X0425954Y0008917D01*
X0426347Y0009689D01*
X0426365Y0009744D01*
X0426757Y0008798D01*
X0428248Y0007307D01*
X0430196Y0006500D01*
X0432304Y0006500D01*
X0434252Y0007307D01*
X0435743Y0008798D01*
X0436550Y0010746D01*
X0436550Y0012854D01*
X0435743Y0014802D01*
X0434252Y0016293D01*
X0433028Y0016800D01*
X0434252Y0017307D01*
X0435743Y0018798D01*
X0436550Y0020746D01*
X0436550Y0022854D01*
X0435743Y0024802D01*
X0434252Y0026293D01*
X0433028Y0026800D01*
X0434252Y0027307D01*
X0435743Y0028798D01*
X0436550Y0030746D01*
X0436550Y0032854D01*
X0435743Y0034802D01*
X0434252Y0036293D01*
X0433028Y0036800D01*
X0434252Y0037307D01*
X0435743Y0038798D01*
X0436550Y0040746D01*
X0436550Y0042854D01*
X0435743Y0044802D01*
X0434252Y0046293D01*
X0433028Y0046800D01*
X0434252Y0047307D01*
X0435743Y0048798D01*
X0436550Y0050746D01*
X0436550Y0052854D01*
X0435743Y0054802D01*
X0434252Y0056293D01*
X0433028Y0056800D01*
X0434252Y0057307D01*
X0435743Y0058798D01*
X0436550Y0060746D01*
X0436550Y0062854D01*
X0435743Y0064802D01*
X0434252Y0066293D01*
X0433028Y0066800D01*
X0434252Y0067307D01*
X0435743Y0068798D01*
X0436550Y0070746D01*
X0436550Y0072854D01*
X0435743Y0074802D01*
X0434252Y0076293D01*
X0433028Y0076800D01*
X0434252Y0077307D01*
X0435743Y0078798D01*
X0436550Y0080746D01*
X0436550Y0082854D01*
X0435743Y0084802D01*
X0434252Y0086293D01*
X0432304Y0087100D01*
X0430196Y0087100D01*
X0428248Y0086293D01*
X0426757Y0084802D01*
X0426365Y0083856D01*
X0426347Y0083911D01*
X0425954Y0084683D01*
X0425445Y0085383D01*
X0424833Y0085995D01*
X0424133Y0086504D01*
X0423361Y0086897D01*
X0422538Y0087165D01*
X0421683Y0087300D01*
X0421450Y0087300D01*
X0421450Y0082000D01*
X0421050Y0082000D01*
X0421050Y0087300D01*
X0420817Y0087300D01*
X0419962Y0087165D01*
X0419139Y0086897D01*
X0418367Y0086504D01*
X0417667Y0085995D01*
X0417055Y0085383D01*
X0416546Y0084683D01*
X0416153Y0083911D01*
X0415885Y0083088D01*
X0415750Y0082233D01*
X0415750Y0082000D01*
X0421050Y0082000D01*
X0421050Y0081600D01*
X0415750Y0081600D01*
X0415750Y0081367D01*
X0415885Y0080512D01*
X0416153Y0079689D01*
X0416546Y0078917D01*
X0417055Y0078217D01*
X0417667Y0077605D01*
X0418367Y0077096D01*
X0418948Y0076800D01*
X0418367Y0076504D01*
X0417667Y0075995D01*
X0417055Y0075383D01*
X0416546Y0074683D01*
X0416153Y0073911D01*
X0415885Y0073088D01*
X0415750Y0072233D01*
X0415750Y0072000D01*
X0421050Y0072000D01*
X0421050Y0081600D01*
X0421450Y0081600D01*
X0421450Y0076300D01*
X0421450Y0072000D01*
X0421050Y0072000D01*
X0421050Y0071600D01*
X0415750Y0071600D01*
X0415750Y0071367D01*
X0415885Y0070512D01*
X0416153Y0069689D01*
X0416546Y0068917D01*
X0417055Y0068217D01*
X0417667Y0067605D01*
X0418367Y0067096D01*
X0418948Y0066800D01*
X0418367Y0066504D01*
X0417667Y0065995D01*
X0417055Y0065383D01*
X0416546Y0064683D01*
X0416153Y0063911D01*
X0415885Y0063088D01*
X0415750Y0062233D01*
X0415750Y0062000D01*
X0421050Y0062000D01*
X0421050Y0071600D01*
X0421450Y0071600D01*
X0421450Y0066300D01*
X0421450Y0062000D01*
X0421050Y0062000D01*
X0421050Y0061600D01*
X0415750Y0061600D01*
X0415750Y0061367D01*
X0415885Y0060512D01*
X0416153Y0059689D01*
X0416546Y0058917D01*
X0417055Y0058217D01*
X0417667Y0057605D01*
X0418367Y0057096D01*
X0418948Y0056800D01*
X0418367Y0056504D01*
X0417667Y0055995D01*
X0417055Y0055383D01*
X0416546Y0054683D01*
X0416153Y0053911D01*
X0415885Y0053088D01*
X0415750Y0052233D01*
X0415750Y0052000D01*
X0421050Y0052000D01*
X0421050Y0061600D01*
X0421450Y0061600D01*
X0421450Y0056300D01*
X0421450Y0052000D01*
X0421050Y0052000D01*
X0421050Y0051600D01*
X0415750Y0051600D01*
X0415750Y0051367D01*
X0415885Y0050512D01*
X0416153Y0049689D01*
X0416546Y0048917D01*
X0417055Y0048217D01*
X0417667Y0047605D01*
X0418367Y0047096D01*
X0418948Y0046800D01*
X0418367Y0046504D01*
X0417667Y0045995D01*
X0417055Y0045383D01*
X0416546Y0044683D01*
X0416153Y0043911D01*
X0415885Y0043088D01*
X0415750Y0042233D01*
X0415750Y0042000D01*
X0421050Y0042000D01*
X0421050Y0051600D01*
X0421450Y0051600D01*
X0421450Y0046300D01*
X0421450Y0042000D01*
X0421050Y0042000D01*
X0421050Y0041600D01*
X0415750Y0041600D01*
X0415750Y0041367D01*
X0415885Y0040512D01*
X0416153Y0039689D01*
X0416546Y0038917D01*
X0417055Y0038217D01*
X0417667Y0037605D01*
X0418367Y0037096D01*
X0418948Y0036800D01*
X0418367Y0036504D01*
X0417667Y0035995D01*
X0417055Y0035383D01*
X0416546Y0034683D01*
X0416153Y0033911D01*
X0415885Y0033088D01*
X0415750Y0032233D01*
X0415750Y0032000D01*
X0421050Y0032000D01*
X0421050Y0041600D01*
X0421450Y0041600D01*
X0421450Y0036300D01*
X0421450Y0032000D01*
X0421050Y0032000D01*
X0421050Y0031600D01*
X0415750Y0031600D01*
X0415750Y0031367D01*
X0415885Y0030512D01*
X0416153Y0029689D01*
X0416546Y0028917D01*
X0417055Y0028217D01*
X0417667Y0027605D01*
X0418367Y0027096D01*
X0418948Y0026800D01*
X0418367Y0026504D01*
X0417667Y0025995D01*
X0417055Y0025383D01*
X0416546Y0024683D01*
X0416153Y0023911D01*
X0415885Y0023088D01*
X0415750Y0022233D01*
X0415750Y0022000D01*
X0421050Y0022000D01*
X0421050Y0031600D01*
X0421450Y0031600D01*
X0421450Y0026300D01*
X0421450Y0022000D01*
X0421050Y0022000D01*
X0421050Y0021600D01*
X0415750Y0021600D01*
X0415750Y0021367D01*
X0415885Y0020512D01*
X0416153Y0019689D01*
X0416546Y0018917D01*
X0417055Y0018217D01*
X0417667Y0017605D01*
X0418367Y0017096D01*
X0418948Y0016800D01*
X0418367Y0016504D01*
X0417667Y0015995D01*
X0417055Y0015383D01*
X0416546Y0014683D01*
X0416153Y0013911D01*
X0415885Y0013088D01*
X0415750Y0012233D01*
X0415750Y0012000D01*
X0421050Y0012000D01*
X0421050Y0021600D01*
X0421450Y0021600D01*
X0421450Y0016300D01*
X0421450Y0012000D01*
X0421050Y0012000D01*
X0421050Y0011600D01*
X0415750Y0011600D01*
X0415750Y0011367D01*
X0415885Y0010512D01*
X0416153Y0009689D01*
X0416546Y0008917D01*
X0417055Y0008217D01*
X0417667Y0007605D01*
X0418367Y0007096D01*
X0419139Y0006703D01*
X0421050Y0006596D02*
X0421450Y0006596D01*
X0423031Y0006596D02*
X0429965Y0006596D01*
X0432535Y0006596D02*
X0488351Y0006596D01*
X0488351Y0008194D02*
X0435139Y0008194D01*
X0436155Y0009793D02*
X0488351Y0009793D01*
X0488351Y0011391D02*
X0436550Y0011391D01*
X0436494Y0012990D02*
X0488351Y0012990D01*
X0488351Y0014588D02*
X0435832Y0014588D01*
X0434359Y0016187D02*
X0488351Y0016187D01*
X0488351Y0017785D02*
X0434730Y0017785D01*
X0435986Y0019384D02*
X0488351Y0019384D01*
X0488351Y0020982D02*
X0436550Y0020982D01*
X0436550Y0022581D02*
X0488351Y0022581D01*
X0488351Y0024179D02*
X0436001Y0024179D01*
X0434768Y0025778D02*
X0488351Y0025778D01*
X0488351Y0027376D02*
X0434322Y0027376D01*
X0435816Y0028975D02*
X0488351Y0028975D01*
X0488351Y0030573D02*
X0436479Y0030573D01*
X0436550Y0032172D02*
X0488351Y0032172D01*
X0488351Y0033770D02*
X0436171Y0033770D01*
X0435177Y0035369D02*
X0488351Y0035369D01*
X0488351Y0036967D02*
X0433432Y0036967D01*
X0435511Y0038566D02*
X0488351Y0038566D01*
X0488351Y0040164D02*
X0436309Y0040164D01*
X0436550Y0041763D02*
X0488351Y0041763D01*
X0488351Y0043361D02*
X0436340Y0043361D01*
X0435586Y0044960D02*
X0488351Y0044960D01*
X0488351Y0046558D02*
X0433612Y0046558D01*
X0435102Y0048157D02*
X0488351Y0048157D01*
X0488351Y0049755D02*
X0436140Y0049755D01*
X0436550Y0051354D02*
X0488351Y0051354D01*
X0488351Y0052952D02*
X0436509Y0052952D01*
X0435847Y0054551D02*
X0488351Y0054551D01*
X0488351Y0056149D02*
X0434396Y0056149D01*
X0434693Y0057748D02*
X0488351Y0057748D01*
X0488351Y0059346D02*
X0435970Y0059346D01*
X0436550Y0060945D02*
X0488351Y0060945D01*
X0488351Y0062543D02*
X0436550Y0062543D01*
X0436017Y0064142D02*
X0488351Y0064142D01*
X0488351Y0065740D02*
X0434805Y0065740D01*
X0434284Y0067339D02*
X0488351Y0067339D01*
X0488351Y0068937D02*
X0435801Y0068937D01*
X0436463Y0070536D02*
X0488351Y0070536D01*
X0488351Y0072134D02*
X0436550Y0072134D01*
X0436186Y0073733D02*
X0488351Y0073733D01*
X0488351Y0075332D02*
X0435214Y0075332D01*
X0433342Y0076930D02*
X0488351Y0076930D01*
X0488351Y0078529D02*
X0435474Y0078529D01*
X0436294Y0080127D02*
X0488351Y0080127D01*
X0488351Y0081726D02*
X0436550Y0081726D01*
X0436355Y0083324D02*
X0488351Y0083324D01*
X0488351Y0084923D02*
X0435623Y0084923D01*
X0433702Y0086521D02*
X0488351Y0086521D01*
X0436250Y0132200D02*
X0433088Y0132200D01*
X0432373Y0132313D01*
X0431684Y0132537D01*
X0431039Y0132866D01*
X0430453Y0133291D01*
X0429941Y0133803D01*
X0429516Y0134389D01*
X0429187Y0135034D01*
X0428963Y0135723D01*
X0428850Y0136438D01*
X0428850Y0136800D01*
X0436250Y0136800D01*
X0436250Y0136800D01*
X0436250Y0136800D01*
X0436250Y0141400D01*
X0433088Y0141400D01*
X0432373Y0141287D01*
X0431684Y0141063D01*
X0431039Y0140734D01*
X0430453Y0140309D01*
X0429941Y0139797D01*
X0429516Y0139211D01*
X0429187Y0138566D01*
X0428963Y0137877D01*
X0428850Y0137162D01*
X0428850Y0136800D01*
X0436250Y0136800D01*
X0436250Y0132200D01*
X0436250Y0132878D02*
X0436250Y0132878D01*
X0436250Y0134476D02*
X0436250Y0134476D01*
X0436250Y0136075D02*
X0436250Y0136075D01*
X0436250Y0137673D02*
X0436250Y0137673D01*
X0436250Y0139272D02*
X0436250Y0139272D01*
X0436250Y0140870D02*
X0436250Y0140870D01*
X0436250Y0142200D02*
X0436250Y0146800D01*
X0436250Y0146800D01*
X0436250Y0146800D01*
X0428850Y0146800D01*
X0428850Y0147162D01*
X0428963Y0147877D01*
X0429187Y0148566D01*
X0429516Y0149211D01*
X0429941Y0149797D01*
X0430453Y0150309D01*
X0431039Y0150734D01*
X0431684Y0151063D01*
X0432373Y0151287D01*
X0433088Y0151400D01*
X0436250Y0151400D01*
X0436250Y0146800D01*
X0428850Y0146800D01*
X0428850Y0146438D01*
X0428963Y0145723D01*
X0429187Y0145034D01*
X0429516Y0144389D01*
X0429941Y0143803D01*
X0430453Y0143291D01*
X0431039Y0142866D01*
X0431684Y0142537D01*
X0432373Y0142313D01*
X0433088Y0142200D01*
X0436250Y0142200D01*
X0436250Y0142469D02*
X0436250Y0142469D01*
X0436250Y0144068D02*
X0436250Y0144068D01*
X0436250Y0145666D02*
X0436250Y0145666D01*
X0436250Y0147265D02*
X0436250Y0147265D01*
X0436250Y0148863D02*
X0436250Y0148863D01*
X0436250Y0150462D02*
X0436250Y0150462D01*
X0436250Y0152200D02*
X0433088Y0152200D01*
X0432373Y0152313D01*
X0431684Y0152537D01*
X0431039Y0152866D01*
X0430453Y0153291D01*
X0429941Y0153803D01*
X0429516Y0154389D01*
X0429187Y0155034D01*
X0428963Y0155723D01*
X0428850Y0156438D01*
X0428850Y0156800D01*
X0436250Y0156800D01*
X0436250Y0156800D01*
X0436250Y0156800D01*
X0436250Y0161400D01*
X0433088Y0161400D01*
X0432373Y0161287D01*
X0431684Y0161063D01*
X0431039Y0160734D01*
X0430453Y0160309D01*
X0429941Y0159797D01*
X0429516Y0159211D01*
X0429187Y0158566D01*
X0428963Y0157877D01*
X0428850Y0157162D01*
X0428850Y0156800D01*
X0436250Y0156800D01*
X0436250Y0152200D01*
X0436250Y0153659D02*
X0436250Y0153659D01*
X0436250Y0155257D02*
X0436250Y0155257D01*
X0436250Y0156856D02*
X0436250Y0156856D01*
X0436250Y0158454D02*
X0436250Y0158454D01*
X0436250Y0160053D02*
X0436250Y0160053D01*
X0430197Y0160053D02*
X0412020Y0160053D01*
X0413127Y0158454D02*
X0429151Y0158454D01*
X0428850Y0156856D02*
X0413450Y0156856D01*
X0413173Y0155257D02*
X0429115Y0155257D01*
X0430086Y0153659D02*
X0412131Y0153659D01*
X0411611Y0150462D02*
X0430664Y0150462D01*
X0429338Y0148863D02*
X0412958Y0148863D01*
X0413450Y0147265D02*
X0428866Y0147265D01*
X0428982Y0145666D02*
X0413343Y0145666D01*
X0412540Y0144068D02*
X0429749Y0144068D01*
X0431894Y0142469D02*
X0410092Y0142469D01*
X0410721Y0140870D02*
X0431306Y0140870D01*
X0429560Y0139272D02*
X0412789Y0139272D01*
X0413450Y0137673D02*
X0428931Y0137673D01*
X0428907Y0136075D02*
X0413450Y0136075D01*
X0412850Y0134476D02*
X0429471Y0134476D01*
X0431022Y0132878D02*
X0411079Y0132878D01*
X0390303Y0113696D02*
X0344006Y0113696D01*
X0343650Y0115294D02*
X0388705Y0115294D01*
X0387106Y0116893D02*
X0343650Y0116893D01*
X0343650Y0118491D02*
X0385508Y0118491D01*
X0383909Y0120090D02*
X0343650Y0120090D01*
X0343650Y0121688D02*
X0382311Y0121688D01*
X0380712Y0123287D02*
X0343650Y0123287D01*
X0343650Y0124885D02*
X0379114Y0124885D01*
X0377515Y0126484D02*
X0343650Y0126484D01*
X0343650Y0128082D02*
X0375917Y0128082D01*
X0374318Y0129681D02*
X0343782Y0129681D01*
X0344539Y0131279D02*
X0372720Y0131279D01*
X0371121Y0132878D02*
X0344363Y0132878D01*
X0343225Y0134476D02*
X0369523Y0134476D01*
X0367924Y0136075D02*
X0338739Y0136075D01*
X0338739Y0137673D02*
X0366326Y0137673D01*
X0364727Y0139272D02*
X0338739Y0139272D01*
X0338739Y0140870D02*
X0363129Y0140870D01*
X0361530Y0142469D02*
X0338739Y0142469D01*
X0338739Y0144068D02*
X0359932Y0144068D01*
X0358333Y0145666D02*
X0338739Y0145666D01*
X0338739Y0147265D02*
X0356734Y0147265D01*
X0355136Y0148863D02*
X0338739Y0148863D01*
X0338739Y0150462D02*
X0353987Y0150462D01*
X0353939Y0152060D02*
X0338739Y0152060D01*
X0338739Y0153659D02*
X0342886Y0153659D01*
X0341650Y0155257D02*
X0338739Y0155257D01*
X0338739Y0156856D02*
X0341650Y0156856D01*
X0341650Y0158454D02*
X0338739Y0158454D01*
X0327850Y0173400D02*
X0331250Y0176800D01*
X0314650Y0171943D02*
X0295507Y0152800D01*
X0288993Y0152800D01*
X0284650Y0148457D01*
X0284650Y0145200D01*
X0271250Y0131800D01*
X0268137Y0132878D02*
X0263833Y0132878D01*
X0262235Y0131279D02*
X0267961Y0131279D01*
X0268718Y0129681D02*
X0264592Y0129681D01*
X0265650Y0128082D02*
X0284219Y0128082D01*
X0284050Y0126484D02*
X0265650Y0126484D01*
X0265558Y0124885D02*
X0284481Y0124885D01*
X0285108Y0129681D02*
X0273782Y0129681D01*
X0269275Y0134476D02*
X0265432Y0134476D01*
X0265850Y0136075D02*
X0272131Y0136075D01*
X0273729Y0137673D02*
X0265850Y0137673D01*
X0267359Y0139272D02*
X0275328Y0139272D01*
X0276926Y0140870D02*
X0268958Y0140870D01*
X0270556Y0142469D02*
X0278525Y0142469D01*
X0280123Y0144068D02*
X0272155Y0144068D01*
X0273753Y0145666D02*
X0281722Y0145666D01*
X0282250Y0147265D02*
X0275352Y0147265D01*
X0276950Y0148863D02*
X0282250Y0148863D01*
X0283261Y0150462D02*
X0278549Y0150462D01*
X0280147Y0152060D02*
X0284859Y0152060D01*
X0285369Y0153659D02*
X0281746Y0153659D01*
X0283344Y0155257D02*
X0284327Y0155257D01*
X0259379Y0142469D02*
X0248650Y0142469D01*
X0248650Y0140870D02*
X0258179Y0140870D01*
X0257961Y0139272D02*
X0248650Y0139272D01*
X0248650Y0137673D02*
X0258614Y0137673D01*
X0257131Y0136075D02*
X0248650Y0136075D01*
X0248650Y0134476D02*
X0255532Y0134476D01*
X0253934Y0132878D02*
X0248650Y0132878D01*
X0248650Y0131279D02*
X0252335Y0131279D01*
X0250737Y0129681D02*
X0248650Y0129681D01*
X0248650Y0128082D02*
X0249183Y0128082D01*
X0248850Y0126484D02*
X0248650Y0126484D01*
X0248650Y0124885D02*
X0248850Y0124885D01*
X0248850Y0123287D02*
X0248650Y0123287D01*
X0248650Y0121688D02*
X0248850Y0121688D01*
X0248850Y0120090D02*
X0248650Y0120090D01*
X0248650Y0118491D02*
X0248850Y0118491D01*
X0248850Y0116893D02*
X0248650Y0116893D01*
X0248650Y0115294D02*
X0248850Y0115294D01*
X0248850Y0113696D02*
X0248650Y0113696D01*
X0248650Y0112097D02*
X0248850Y0112097D01*
X0248850Y0110499D02*
X0248650Y0110499D01*
X0248650Y0108900D02*
X0248850Y0108900D01*
X0248850Y0107302D02*
X0248650Y0107302D01*
X0248650Y0105703D02*
X0248850Y0105703D01*
X0248850Y0104105D02*
X0248650Y0104105D01*
X0248650Y0102506D02*
X0248850Y0102506D01*
X0248850Y0100908D02*
X0248650Y0100908D01*
X0248650Y0099309D02*
X0248850Y0099309D01*
X0246250Y0096800D02*
X0246250Y0151800D01*
X0236250Y0146800D02*
X0216250Y0166800D01*
X0164678Y0206409D02*
X0143550Y0206409D01*
X0143550Y0204811D02*
X0163079Y0204811D01*
X0161481Y0203212D02*
X0143550Y0203212D01*
X0143550Y0201614D02*
X0159882Y0201614D01*
X0158284Y0200015D02*
X0143550Y0200015D01*
X0143550Y0198417D02*
X0156685Y0198417D01*
X0155087Y0196818D02*
X0143347Y0196818D01*
X0143185Y0196426D02*
X0143550Y0197308D01*
X0143550Y0217182D01*
X0145196Y0216500D01*
X0147304Y0216500D01*
X0149252Y0217307D01*
X0150743Y0218798D01*
X0151135Y0219744D01*
X0151153Y0219689D01*
X0151546Y0218917D01*
X0152055Y0218217D01*
X0152667Y0217605D01*
X0153367Y0217096D01*
X0154139Y0216703D01*
X0154962Y0216435D01*
X0155817Y0216300D01*
X0156050Y0216300D01*
X0156050Y0221600D01*
X0156450Y0221600D01*
X0156450Y0216300D01*
X0156683Y0216300D01*
X0157538Y0216435D01*
X0158361Y0216703D01*
X0159133Y0217096D01*
X0159833Y0217605D01*
X0160445Y0218217D01*
X0160954Y0218917D01*
X0161347Y0219689D01*
X0161365Y0219744D01*
X0161757Y0218798D01*
X0163248Y0217307D01*
X0165196Y0216500D01*
X0167304Y0216500D01*
X0169252Y0217307D01*
X0170743Y0218798D01*
X0171250Y0220022D01*
X0171757Y0218798D01*
X0173248Y0217307D01*
X0174894Y0216625D01*
X0137468Y0179200D01*
X0128501Y0179200D01*
X0128113Y0179588D01*
X0126904Y0180089D01*
X0126847Y0180089D01*
X0142509Y0195751D01*
X0143185Y0196426D01*
X0141978Y0195220D02*
X0153488Y0195220D01*
X0151890Y0193621D02*
X0140380Y0193621D01*
X0138781Y0192023D02*
X0150291Y0192023D01*
X0148693Y0190424D02*
X0137183Y0190424D01*
X0135584Y0188826D02*
X0147094Y0188826D01*
X0145496Y0187227D02*
X0133986Y0187227D01*
X0132387Y0185629D02*
X0143897Y0185629D01*
X0142299Y0184030D02*
X0130789Y0184030D01*
X0129190Y0182432D02*
X0140700Y0182432D01*
X0139102Y0180833D02*
X0127592Y0180833D01*
X0128467Y0179235D02*
X0137503Y0179235D01*
X0138463Y0176800D02*
X0126250Y0176800D01*
X0119961Y0176038D02*
X0116550Y0176038D01*
X0116550Y0175746D02*
X0116550Y0177854D01*
X0115743Y0179802D01*
X0114252Y0181293D01*
X0112304Y0182100D01*
X0110196Y0182100D01*
X0108248Y0181293D01*
X0106757Y0179802D01*
X0105950Y0177854D01*
X0105950Y0175746D01*
X0106757Y0173798D01*
X0108248Y0172307D01*
X0109194Y0171915D01*
X0109139Y0171897D01*
X0108367Y0171504D01*
X0107667Y0170995D01*
X0107055Y0170383D01*
X0106546Y0169683D01*
X0106153Y0168911D01*
X0105885Y0168088D01*
X0105750Y0167233D01*
X0105750Y0167000D01*
X0111050Y0167000D01*
X0111050Y0166600D01*
X0111450Y0166600D01*
X0111450Y0167000D01*
X0116750Y0167000D01*
X0116750Y0167233D01*
X0116615Y0168088D01*
X0116347Y0168911D01*
X0115954Y0169683D01*
X0115445Y0170383D01*
X0114833Y0170995D01*
X0114133Y0171504D01*
X0113361Y0171897D01*
X0113306Y0171915D01*
X0114252Y0172307D01*
X0115743Y0173798D01*
X0116550Y0175746D01*
X0116009Y0174439D02*
X0119961Y0174439D01*
X0119961Y0172841D02*
X0114786Y0172841D01*
X0114493Y0171242D02*
X0119961Y0171242D01*
X0120927Y0169644D02*
X0115974Y0169644D01*
X0116621Y0168045D02*
X0122525Y0168045D01*
X0124124Y0166447D02*
X0116750Y0166447D01*
X0116750Y0166367D02*
X0116750Y0166600D01*
X0111450Y0166600D01*
X0111450Y0161300D01*
X0111683Y0161300D01*
X0112538Y0161435D01*
X0113361Y0161703D01*
X0114133Y0162096D01*
X0114833Y0162605D01*
X0115445Y0163217D01*
X0115954Y0163917D01*
X0116347Y0164689D01*
X0116615Y0165512D01*
X0116750Y0166367D01*
X0116399Y0164848D02*
X0125722Y0164848D01*
X0127321Y0163250D02*
X0115469Y0163250D01*
X0113202Y0161651D02*
X0128850Y0161651D01*
X0128850Y0160053D02*
X0097850Y0160053D01*
X0097850Y0161651D02*
X0109298Y0161651D01*
X0109139Y0161703D02*
X0109962Y0161435D01*
X0110817Y0161300D01*
X0111050Y0161300D01*
X0111050Y0166600D01*
X0105750Y0166600D01*
X0105750Y0166367D01*
X0105885Y0165512D01*
X0106153Y0164689D01*
X0106546Y0163917D01*
X0107055Y0163217D01*
X0107667Y0162605D01*
X0108367Y0162096D01*
X0109139Y0161703D01*
X0111050Y0161651D02*
X0111450Y0161651D01*
X0111450Y0163250D02*
X0111050Y0163250D01*
X0111050Y0164848D02*
X0111450Y0164848D01*
X0111450Y0166447D02*
X0111050Y0166447D01*
X0107031Y0163250D02*
X0097850Y0163250D01*
X0097850Y0164848D02*
X0106101Y0164848D01*
X0105750Y0166447D02*
X0097850Y0166447D01*
X0097850Y0168045D02*
X0105879Y0168045D01*
X0106526Y0169644D02*
X0097850Y0169644D01*
X0097850Y0171242D02*
X0108007Y0171242D01*
X0107714Y0172841D02*
X0097850Y0172841D01*
X0097850Y0174439D02*
X0106491Y0174439D01*
X0105950Y0176038D02*
X0097850Y0176038D01*
X0097850Y0177636D02*
X0105950Y0177636D01*
X0106522Y0179235D02*
X0097850Y0179235D01*
X0097850Y0180833D02*
X0107788Y0180833D01*
X0114712Y0180833D02*
X0120804Y0180833D01*
X0119961Y0179235D02*
X0115978Y0179235D01*
X0116550Y0177636D02*
X0119961Y0177636D01*
X0122402Y0182432D02*
X0097850Y0182432D01*
X0097850Y0184030D02*
X0124001Y0184030D01*
X0125599Y0185629D02*
X0097850Y0185629D01*
X0097850Y0187227D02*
X0127198Y0187227D01*
X0128796Y0188826D02*
X0097850Y0188826D01*
X0097850Y0190424D02*
X0130395Y0190424D01*
X0131993Y0192023D02*
X0097850Y0192023D01*
X0097850Y0193621D02*
X0133592Y0193621D01*
X0135190Y0195220D02*
X0097850Y0195220D01*
X0097850Y0196818D02*
X0136789Y0196818D01*
X0138387Y0198417D02*
X0097850Y0198417D01*
X0097850Y0200015D02*
X0138750Y0200015D01*
X0138750Y0201614D02*
X0097850Y0201614D01*
X0097850Y0203212D02*
X0108530Y0203212D01*
X0108660Y0203082D02*
X0110341Y0202386D01*
X0112159Y0202386D01*
X0113840Y0203082D01*
X0115126Y0204368D01*
X0115822Y0206048D01*
X0115822Y0207867D01*
X0115126Y0209547D01*
X0113840Y0210833D01*
X0112159Y0211529D01*
X0110341Y0211529D01*
X0108660Y0210833D01*
X0107374Y0209547D01*
X0106678Y0207867D01*
X0106678Y0206048D01*
X0107374Y0204368D01*
X0108660Y0203082D01*
X0107191Y0204811D02*
X0097850Y0204811D01*
X0097850Y0206409D02*
X0106678Y0206409D01*
X0106737Y0208008D02*
X0097850Y0208008D01*
X0097850Y0209606D02*
X0107434Y0209606D01*
X0109558Y0211205D02*
X0097850Y0211205D01*
X0097850Y0212803D02*
X0108952Y0212803D01*
X0108660Y0212924D02*
X0110341Y0212228D01*
X0112159Y0212228D01*
X0113840Y0212924D01*
X0115126Y0214210D01*
X0115822Y0215891D01*
X0115822Y0217709D01*
X0115126Y0219390D01*
X0113840Y0220676D01*
X0112159Y0221372D01*
X0110341Y0221372D01*
X0108660Y0220676D01*
X0107374Y0219390D01*
X0106678Y0217709D01*
X0106678Y0215891D01*
X0107374Y0214210D01*
X0108660Y0212924D01*
X0107295Y0214402D02*
X0097850Y0214402D01*
X0097850Y0216001D02*
X0106678Y0216001D01*
X0106678Y0217599D02*
X0097850Y0217599D01*
X0097850Y0219198D02*
X0107295Y0219198D01*
X0108951Y0220796D02*
X0097850Y0220796D01*
X0097850Y0222395D02*
X0109559Y0222395D01*
X0110341Y0222071D02*
X0112159Y0222071D01*
X0113840Y0222767D01*
X0115126Y0224053D01*
X0115822Y0225733D01*
X0115822Y0227552D01*
X0115126Y0229232D01*
X0113840Y0230518D01*
X0112159Y0231214D01*
X0110341Y0231214D01*
X0108660Y0230518D01*
X0107374Y0229232D01*
X0106678Y0227552D01*
X0106678Y0225733D01*
X0107374Y0224053D01*
X0108660Y0222767D01*
X0110341Y0222071D01*
X0112941Y0222395D02*
X0133850Y0222395D01*
X0133850Y0223993D02*
X0115066Y0223993D01*
X0115763Y0225592D02*
X0133191Y0225592D01*
X0132961Y0227190D02*
X0115822Y0227190D01*
X0115309Y0228789D02*
X0133587Y0228789D01*
X0136250Y0226800D02*
X0136250Y0211800D01*
X0138708Y0209606D02*
X0138750Y0209606D01*
X0138750Y0208008D02*
X0115763Y0208008D01*
X0115822Y0206409D02*
X0138750Y0206409D01*
X0138750Y0204811D02*
X0115309Y0204811D01*
X0113970Y0203212D02*
X0138750Y0203212D01*
X0143550Y0208008D02*
X0166276Y0208008D01*
X0167875Y0209606D02*
X0143550Y0209606D01*
X0143550Y0211205D02*
X0169473Y0211205D01*
X0171072Y0212803D02*
X0143550Y0212803D01*
X0143550Y0214402D02*
X0172670Y0214402D01*
X0174269Y0216001D02*
X0143550Y0216001D01*
X0149544Y0217599D02*
X0152675Y0217599D01*
X0151403Y0219198D02*
X0150909Y0219198D01*
X0156050Y0219198D02*
X0156450Y0219198D01*
X0156450Y0220796D02*
X0156050Y0220796D01*
X0156050Y0217599D02*
X0156450Y0217599D01*
X0159825Y0217599D02*
X0162956Y0217599D01*
X0161591Y0219198D02*
X0161097Y0219198D01*
X0169544Y0217599D02*
X0172956Y0217599D01*
X0171591Y0219198D02*
X0170909Y0219198D01*
X0167675Y0230387D02*
X0113971Y0230387D01*
X0108529Y0230387D02*
X0097850Y0230387D01*
X0097850Y0228789D02*
X0107191Y0228789D01*
X0106678Y0227190D02*
X0097850Y0227190D01*
X0097850Y0225592D02*
X0106737Y0225592D01*
X0107434Y0223993D02*
X0097850Y0223993D01*
X0097850Y0231986D02*
X0169273Y0231986D01*
X0170872Y0233584D02*
X0097850Y0233584D01*
X0097850Y0235183D02*
X0172470Y0235183D01*
X0174069Y0236781D02*
X0097850Y0236781D01*
X0097850Y0238380D02*
X0168448Y0238380D01*
X0169427Y0237400D02*
X0173073Y0237400D01*
X0175650Y0239977D01*
X0175650Y0243623D01*
X0173073Y0246200D01*
X0169427Y0246200D01*
X0166850Y0243623D01*
X0166850Y0239977D01*
X0169427Y0237400D01*
X0166850Y0239978D02*
X0164055Y0239978D01*
X0164038Y0239937D02*
X0164539Y0241146D01*
X0164539Y0242454D01*
X0164038Y0243663D01*
X0163650Y0244051D01*
X0163650Y0289549D01*
X0164038Y0289937D01*
X0164539Y0291146D01*
X0164539Y0292454D01*
X0164038Y0293663D01*
X0163113Y0294588D01*
X0161904Y0295089D01*
X0160596Y0295089D01*
X0159387Y0294588D01*
X0158462Y0293663D01*
X0157961Y0292454D01*
X0157961Y0291146D01*
X0158462Y0289937D01*
X0158850Y0289549D01*
X0158850Y0244051D01*
X0158462Y0243663D01*
X0157961Y0242454D01*
X0157961Y0241146D01*
X0158462Y0239937D01*
X0159387Y0239012D01*
X0160596Y0238511D01*
X0161904Y0238511D01*
X0163113Y0239012D01*
X0164038Y0239937D01*
X0164539Y0241577D02*
X0166850Y0241577D01*
X0166850Y0243175D02*
X0164240Y0243175D01*
X0163650Y0244774D02*
X0168001Y0244774D01*
X0163650Y0246372D02*
X0183660Y0246372D01*
X0182061Y0244774D02*
X0174499Y0244774D01*
X0175650Y0243175D02*
X0180463Y0243175D01*
X0178864Y0241577D02*
X0175650Y0241577D01*
X0175650Y0239978D02*
X0177266Y0239978D01*
X0175667Y0238380D02*
X0174052Y0238380D01*
X0187250Y0243457D02*
X0187250Y0225587D01*
X0138463Y0176800D01*
X0141250Y0156800D02*
X0141250Y0111800D01*
X0144271Y0110499D02*
X0146052Y0110499D01*
X0145950Y0112097D02*
X0144539Y0112097D01*
X0144006Y0113696D02*
X0146299Y0113696D01*
X0147249Y0115294D02*
X0143650Y0115294D01*
X0142844Y0108900D02*
X0146714Y0108900D01*
X0128361Y0116800D02*
X0128361Y0069689D01*
X0151250Y0046800D01*
X0147961Y0046558D02*
X0097850Y0046558D01*
X0097850Y0044960D02*
X0148452Y0044960D01*
X0146499Y0048157D02*
X0097850Y0048157D01*
X0097850Y0049755D02*
X0144901Y0049755D01*
X0143302Y0051354D02*
X0097850Y0051354D01*
X0097850Y0052952D02*
X0141704Y0052952D01*
X0140105Y0054551D02*
X0097850Y0054551D01*
X0097850Y0056149D02*
X0138506Y0056149D01*
X0136908Y0057748D02*
X0097850Y0057748D01*
X0097850Y0059346D02*
X0135309Y0059346D01*
X0133711Y0060945D02*
X0097850Y0060945D01*
X0097850Y0062543D02*
X0117752Y0062543D01*
X0116432Y0064142D02*
X0097850Y0064142D01*
X0097850Y0065740D02*
X0115849Y0065740D01*
X0115767Y0067339D02*
X0097850Y0067339D01*
X0097850Y0068937D02*
X0116166Y0068937D01*
X0117208Y0070536D02*
X0097850Y0070536D01*
X0097850Y0072134D02*
X0118664Y0072134D01*
X0116822Y0073733D02*
X0097850Y0073733D01*
X0097850Y0075332D02*
X0116122Y0075332D01*
X0115950Y0076930D02*
X0097850Y0076930D01*
X0097850Y0078529D02*
X0116229Y0078529D01*
X0117082Y0080127D02*
X0097850Y0080127D01*
X0097850Y0081726D02*
X0119292Y0081726D01*
X0117231Y0083324D02*
X0097850Y0083324D01*
X0097850Y0084923D02*
X0116291Y0084923D01*
X0115950Y0086521D02*
X0097850Y0086521D01*
X0097850Y0088120D02*
X0116060Y0088120D01*
X0116722Y0089718D02*
X0097850Y0089718D01*
X0097850Y0091317D02*
X0118305Y0091317D01*
X0117640Y0092915D02*
X0097850Y0092915D01*
X0097850Y0094514D02*
X0116460Y0094514D01*
X0115950Y0096112D02*
X0097850Y0096112D01*
X0097850Y0097711D02*
X0115950Y0097711D01*
X0116553Y0099309D02*
X0097850Y0099309D01*
X0097850Y0100908D02*
X0117862Y0100908D01*
X0118048Y0102506D02*
X0097850Y0102506D01*
X0097850Y0104105D02*
X0116630Y0104105D01*
X0115968Y0105703D02*
X0097850Y0105703D01*
X0097850Y0107302D02*
X0115950Y0107302D01*
X0116383Y0108900D02*
X0097850Y0108900D01*
X0097850Y0110499D02*
X0117453Y0110499D01*
X0118754Y0112097D02*
X0097850Y0112097D01*
X0097850Y0113696D02*
X0116859Y0113696D01*
X0116137Y0115294D02*
X0097850Y0115294D01*
X0097850Y0116893D02*
X0115950Y0116893D01*
X0116214Y0118491D02*
X0097850Y0118491D01*
X0097850Y0120090D02*
X0117045Y0120090D01*
X0119202Y0121688D02*
X0097850Y0121688D01*
X0097850Y0129681D02*
X0126353Y0129681D01*
X0128850Y0131279D02*
X0097850Y0131279D01*
X0097850Y0132878D02*
X0128850Y0132878D01*
X0128850Y0134476D02*
X0097850Y0134476D01*
X0097850Y0136075D02*
X0128850Y0136075D01*
X0128850Y0137673D02*
X0097850Y0137673D01*
X0097850Y0139272D02*
X0128850Y0139272D01*
X0128850Y0140870D02*
X0097850Y0140870D01*
X0097850Y0142469D02*
X0128850Y0142469D01*
X0128850Y0144068D02*
X0097850Y0144068D01*
X0097850Y0145666D02*
X0128850Y0145666D01*
X0128850Y0147265D02*
X0097850Y0147265D01*
X0097850Y0148863D02*
X0128850Y0148863D01*
X0128850Y0150462D02*
X0097850Y0150462D01*
X0097850Y0152060D02*
X0128850Y0152060D01*
X0128850Y0153659D02*
X0097850Y0153659D01*
X0097850Y0155257D02*
X0128850Y0155257D01*
X0128850Y0156856D02*
X0097850Y0156856D01*
X0097850Y0158454D02*
X0128850Y0158454D01*
X0161250Y0136800D02*
X0161250Y0031800D01*
X0171250Y0021800D01*
X0169387Y0014588D02*
X0168462Y0013663D01*
X0167961Y0012454D01*
X0167961Y0011391D02*
X0097850Y0011391D01*
X0097850Y0009793D02*
X0168606Y0009793D01*
X0189249Y0008194D02*
X0097850Y0008194D01*
X0097850Y0006596D02*
X0190848Y0006596D01*
X0191150Y0009688D02*
X0191150Y0013912D01*
X0196250Y0019013D01*
X0196250Y0021800D01*
X0191150Y0009688D02*
X0194137Y0006700D01*
X0209359Y0016187D02*
X0212243Y0016187D01*
X0213098Y0017785D02*
X0209730Y0017785D01*
X0210920Y0028975D02*
X0234476Y0028975D01*
X0253650Y0038566D02*
X0255464Y0038566D01*
X0233850Y0048157D02*
X0225102Y0048157D01*
X0226140Y0049755D02*
X0233850Y0049755D01*
X0233850Y0051354D02*
X0226550Y0051354D01*
X0226509Y0052952D02*
X0233850Y0052952D01*
X0233850Y0054551D02*
X0225847Y0054551D01*
X0224396Y0056149D02*
X0233850Y0056149D01*
X0245761Y0078529D02*
X0248850Y0078529D01*
X0248850Y0080127D02*
X0245761Y0080127D01*
X0245761Y0081726D02*
X0248850Y0081726D01*
X0248850Y0083324D02*
X0245761Y0083324D01*
X0245761Y0084923D02*
X0248850Y0084923D01*
X0248850Y0086521D02*
X0245761Y0086521D01*
X0245761Y0088120D02*
X0248850Y0088120D01*
X0248850Y0089718D02*
X0245761Y0089718D01*
X0245761Y0091317D02*
X0248850Y0091317D01*
X0248850Y0092915D02*
X0245761Y0092915D01*
X0248615Y0094514D02*
X0248850Y0094514D01*
X0266250Y0101800D02*
X0273361Y0094689D01*
X0273361Y0090603D01*
X0275053Y0088911D01*
X0277447Y0088911D01*
X0276250Y0091800D02*
X0276250Y0121800D01*
X0261907Y0121800D01*
X0260907Y0122800D01*
X0259593Y0122800D01*
X0261250Y0116800D02*
X0265850Y0116800D01*
X0261250Y0116800D01*
X0261250Y0116800D01*
X0261250Y0112200D01*
X0261250Y0116800D01*
X0261250Y0116800D01*
X0261250Y0115294D02*
X0261250Y0115294D01*
X0261250Y0113696D02*
X0261250Y0113696D01*
X0264651Y0113696D02*
X0273850Y0113696D01*
X0273850Y0115294D02*
X0265850Y0115294D01*
X0265850Y0116893D02*
X0273850Y0116893D01*
X0273850Y0118491D02*
X0265850Y0118491D01*
X0276250Y0121800D02*
X0296250Y0121800D01*
X0303361Y0122997D02*
X0303361Y0118911D01*
X0291250Y0106800D01*
X0273850Y0104105D02*
X0268597Y0104105D01*
X0269517Y0102506D02*
X0273850Y0102506D01*
X0273850Y0100908D02*
X0270536Y0100908D01*
X0272135Y0099309D02*
X0273850Y0099309D01*
X0273850Y0097711D02*
X0273733Y0097711D01*
X0286050Y0081600D02*
X0286450Y0081600D01*
X0286450Y0077300D01*
X0286450Y0072000D01*
X0286050Y0072000D01*
X0286050Y0081600D01*
X0286050Y0080127D02*
X0286450Y0080127D01*
X0286450Y0078529D02*
X0286050Y0078529D01*
X0286050Y0076930D02*
X0286450Y0076930D01*
X0286450Y0075332D02*
X0286050Y0075332D01*
X0286050Y0073733D02*
X0286450Y0073733D01*
X0286450Y0072134D02*
X0286050Y0072134D01*
X0286050Y0071600D02*
X0286450Y0071600D01*
X0286450Y0066300D01*
X0286450Y0062000D01*
X0286050Y0062000D01*
X0286050Y0071600D01*
X0286050Y0070536D02*
X0286450Y0070536D01*
X0286450Y0068937D02*
X0286050Y0068937D01*
X0286050Y0067339D02*
X0286450Y0067339D01*
X0286450Y0065740D02*
X0286050Y0065740D01*
X0286050Y0064142D02*
X0286450Y0064142D01*
X0286450Y0062543D02*
X0286050Y0062543D01*
X0286050Y0061600D02*
X0286450Y0061600D01*
X0286450Y0056300D01*
X0286450Y0052000D01*
X0286050Y0052000D01*
X0286050Y0061600D01*
X0286050Y0060945D02*
X0286450Y0060945D01*
X0286450Y0059346D02*
X0286050Y0059346D01*
X0286050Y0057748D02*
X0286450Y0057748D01*
X0286450Y0056149D02*
X0286050Y0056149D01*
X0286050Y0054551D02*
X0286450Y0054551D01*
X0286450Y0052952D02*
X0286050Y0052952D01*
X0286050Y0051600D02*
X0286450Y0051600D01*
X0286450Y0046300D01*
X0286450Y0042000D01*
X0286050Y0042000D01*
X0286050Y0051600D01*
X0286050Y0051354D02*
X0286450Y0051354D01*
X0286450Y0049755D02*
X0286050Y0049755D01*
X0286050Y0048157D02*
X0286450Y0048157D01*
X0286450Y0046558D02*
X0286050Y0046558D01*
X0286050Y0044960D02*
X0286450Y0044960D01*
X0286450Y0043361D02*
X0286050Y0043361D01*
X0286050Y0041600D02*
X0286450Y0041600D01*
X0286450Y0036300D01*
X0286450Y0032000D01*
X0286050Y0032000D01*
X0286050Y0041600D01*
X0286050Y0040164D02*
X0286450Y0040164D01*
X0286450Y0038566D02*
X0286050Y0038566D01*
X0286050Y0036967D02*
X0286450Y0036967D01*
X0286450Y0035369D02*
X0286050Y0035369D01*
X0286050Y0033770D02*
X0286450Y0033770D01*
X0286450Y0032172D02*
X0286050Y0032172D01*
X0286050Y0031600D02*
X0286450Y0031600D01*
X0286450Y0026300D01*
X0286450Y0022000D01*
X0286050Y0022000D01*
X0286050Y0031600D01*
X0286050Y0030573D02*
X0286450Y0030573D01*
X0286450Y0028975D02*
X0286050Y0028975D01*
X0286050Y0027376D02*
X0286450Y0027376D01*
X0286450Y0025778D02*
X0286050Y0025778D01*
X0286050Y0024179D02*
X0286450Y0024179D01*
X0286450Y0022581D02*
X0286050Y0022581D01*
X0286050Y0021600D02*
X0286450Y0021600D01*
X0286450Y0016300D01*
X0286450Y0012000D01*
X0286050Y0012000D01*
X0286050Y0021600D01*
X0286050Y0020982D02*
X0286450Y0020982D01*
X0286450Y0019384D02*
X0286050Y0019384D01*
X0286050Y0017785D02*
X0286450Y0017785D01*
X0286450Y0016187D02*
X0286050Y0016187D01*
X0286050Y0014588D02*
X0286450Y0014588D01*
X0286450Y0012990D02*
X0286050Y0012990D01*
X0290397Y0005341D02*
X0290397Y0005341D01*
X0290054Y0004997D02*
X0488351Y0004997D01*
X0427361Y0008194D02*
X0425422Y0008194D01*
X0421450Y0008194D02*
X0421050Y0008194D01*
X0421050Y0009793D02*
X0421450Y0009793D01*
X0421450Y0011391D02*
X0421050Y0011391D01*
X0421050Y0012990D02*
X0421450Y0012990D01*
X0421450Y0014588D02*
X0421050Y0014588D01*
X0421050Y0016187D02*
X0421450Y0016187D01*
X0421450Y0017785D02*
X0421050Y0017785D01*
X0421050Y0019384D02*
X0421450Y0019384D01*
X0421450Y0020982D02*
X0421050Y0020982D01*
X0421050Y0022581D02*
X0421450Y0022581D01*
X0421450Y0024179D02*
X0421050Y0024179D01*
X0421050Y0025778D02*
X0421450Y0025778D01*
X0421450Y0027376D02*
X0421050Y0027376D01*
X0421050Y0028975D02*
X0421450Y0028975D01*
X0421450Y0030573D02*
X0421050Y0030573D01*
X0421050Y0032172D02*
X0421450Y0032172D01*
X0421450Y0033770D02*
X0421050Y0033770D01*
X0421050Y0035369D02*
X0421450Y0035369D01*
X0421450Y0036967D02*
X0421050Y0036967D01*
X0421050Y0038566D02*
X0421450Y0038566D01*
X0421450Y0040164D02*
X0421050Y0040164D01*
X0421050Y0041763D02*
X0406550Y0041763D01*
X0406340Y0043361D02*
X0415974Y0043361D01*
X0416747Y0044960D02*
X0405586Y0044960D01*
X0403612Y0046558D02*
X0418474Y0046558D01*
X0417115Y0048157D02*
X0405102Y0048157D01*
X0406140Y0049755D02*
X0416131Y0049755D01*
X0415752Y0051354D02*
X0406550Y0051354D01*
X0406509Y0052952D02*
X0415864Y0052952D01*
X0416479Y0054551D02*
X0405847Y0054551D01*
X0404396Y0056149D02*
X0417879Y0056149D01*
X0417524Y0057748D02*
X0404693Y0057748D01*
X0405970Y0059346D02*
X0416327Y0059346D01*
X0415817Y0060945D02*
X0406550Y0060945D01*
X0406550Y0062543D02*
X0415799Y0062543D01*
X0416270Y0064142D02*
X0406017Y0064142D01*
X0404805Y0065740D02*
X0417412Y0065740D01*
X0418033Y0067339D02*
X0404284Y0067339D01*
X0405801Y0068937D02*
X0416536Y0068937D01*
X0415882Y0070536D02*
X0406463Y0070536D01*
X0406550Y0072134D02*
X0415750Y0072134D01*
X0416095Y0073733D02*
X0406186Y0073733D01*
X0405214Y0075332D02*
X0417017Y0075332D01*
X0418693Y0076930D02*
X0403342Y0076930D01*
X0405474Y0078529D02*
X0416828Y0078529D01*
X0416011Y0080127D02*
X0406294Y0080127D01*
X0406550Y0081726D02*
X0421050Y0081726D01*
X0421050Y0083324D02*
X0421450Y0083324D01*
X0421450Y0084923D02*
X0421050Y0084923D01*
X0421050Y0086521D02*
X0421450Y0086521D01*
X0424099Y0086521D02*
X0428798Y0086521D01*
X0426877Y0084923D02*
X0425780Y0084923D01*
X0421450Y0080127D02*
X0421050Y0080127D01*
X0421050Y0078529D02*
X0421450Y0078529D01*
X0421450Y0076930D02*
X0421050Y0076930D01*
X0421050Y0075332D02*
X0421450Y0075332D01*
X0421450Y0073733D02*
X0421050Y0073733D01*
X0421050Y0072134D02*
X0421450Y0072134D01*
X0421450Y0070536D02*
X0421050Y0070536D01*
X0421050Y0068937D02*
X0421450Y0068937D01*
X0421450Y0067339D02*
X0421050Y0067339D01*
X0421050Y0065740D02*
X0421450Y0065740D01*
X0421450Y0064142D02*
X0421050Y0064142D01*
X0421050Y0062543D02*
X0421450Y0062543D01*
X0421450Y0060945D02*
X0421050Y0060945D01*
X0421050Y0059346D02*
X0421450Y0059346D01*
X0421450Y0057748D02*
X0421050Y0057748D01*
X0421050Y0056149D02*
X0421450Y0056149D01*
X0421450Y0054551D02*
X0421050Y0054551D01*
X0421050Y0052952D02*
X0421450Y0052952D01*
X0421450Y0051354D02*
X0421050Y0051354D01*
X0421050Y0049755D02*
X0421450Y0049755D01*
X0421450Y0048157D02*
X0421050Y0048157D01*
X0421050Y0046558D02*
X0421450Y0046558D01*
X0421450Y0044960D02*
X0421050Y0044960D01*
X0421050Y0043361D02*
X0421450Y0043361D01*
X0415998Y0040164D02*
X0406309Y0040164D01*
X0405511Y0038566D02*
X0416801Y0038566D01*
X0418620Y0036967D02*
X0403432Y0036967D01*
X0405177Y0035369D02*
X0417044Y0035369D01*
X0416107Y0033770D02*
X0406171Y0033770D01*
X0406550Y0032172D02*
X0415750Y0032172D01*
X0415876Y0030573D02*
X0406479Y0030573D01*
X0405816Y0028975D02*
X0416517Y0028975D01*
X0417982Y0027376D02*
X0404322Y0027376D01*
X0404768Y0025778D02*
X0417450Y0025778D01*
X0416289Y0024179D02*
X0406001Y0024179D01*
X0406550Y0022581D02*
X0415805Y0022581D01*
X0415811Y0020982D02*
X0406550Y0020982D01*
X0405986Y0019384D02*
X0416308Y0019384D01*
X0417487Y0017785D02*
X0404730Y0017785D01*
X0404359Y0016187D02*
X0417930Y0016187D01*
X0416498Y0014588D02*
X0405832Y0014588D01*
X0406494Y0012990D02*
X0415870Y0012990D01*
X0415750Y0011391D02*
X0406550Y0011391D01*
X0406155Y0009793D02*
X0416119Y0009793D01*
X0417078Y0008194D02*
X0405139Y0008194D01*
X0397361Y0008194D02*
X0395139Y0008194D01*
X0396155Y0009793D02*
X0396345Y0009793D01*
X0387361Y0008194D02*
X0385139Y0008194D01*
X0386155Y0009793D02*
X0386345Y0009793D01*
X0377361Y0008194D02*
X0375139Y0008194D01*
X0376155Y0009793D02*
X0376345Y0009793D01*
X0367361Y0008194D02*
X0365139Y0008194D01*
X0366155Y0009793D02*
X0366345Y0009793D01*
X0357361Y0008194D02*
X0355139Y0008194D01*
X0356155Y0009793D02*
X0356345Y0009793D01*
X0347361Y0008194D02*
X0345139Y0008194D01*
X0346155Y0009793D02*
X0346345Y0009793D01*
X0337361Y0008194D02*
X0335139Y0008194D01*
X0336155Y0009793D02*
X0336345Y0009793D01*
X0327361Y0008194D02*
X0325139Y0008194D01*
X0326155Y0009793D02*
X0326345Y0009793D01*
X0317361Y0008194D02*
X0315139Y0008194D01*
X0316155Y0009793D02*
X0316345Y0009793D01*
X0274138Y0006700D02*
X0271150Y0009688D01*
X0301852Y0084923D02*
X0306877Y0084923D01*
X0308798Y0086521D02*
X0303451Y0086521D01*
X0313702Y0086521D02*
X0318798Y0086521D01*
X0316877Y0084923D02*
X0315623Y0084923D01*
X0323702Y0086521D02*
X0328798Y0086521D01*
X0326877Y0084923D02*
X0325623Y0084923D01*
X0333702Y0086521D02*
X0338798Y0086521D01*
X0336877Y0084923D02*
X0335623Y0084923D01*
X0343702Y0086521D02*
X0348798Y0086521D01*
X0346877Y0084923D02*
X0345623Y0084923D01*
X0353702Y0086521D02*
X0358798Y0086521D01*
X0356877Y0084923D02*
X0355623Y0084923D01*
X0363702Y0086521D02*
X0368798Y0086521D01*
X0366877Y0084923D02*
X0365623Y0084923D01*
X0373702Y0086521D02*
X0378798Y0086521D01*
X0376877Y0084923D02*
X0375623Y0084923D01*
X0383702Y0086521D02*
X0388798Y0086521D01*
X0386877Y0084923D02*
X0385623Y0084923D01*
X0393702Y0086521D02*
X0398798Y0086521D01*
X0396877Y0084923D02*
X0395623Y0084923D01*
X0403702Y0086521D02*
X0418401Y0086521D01*
X0416720Y0084923D02*
X0405623Y0084923D01*
X0406355Y0083324D02*
X0415962Y0083324D01*
X0409089Y0099309D02*
X0316239Y0099309D01*
X0327837Y0100908D02*
X0408060Y0100908D01*
X0407150Y0102506D02*
X0388179Y0102506D01*
X0388073Y0102400D02*
X0390650Y0104977D01*
X0390650Y0108623D01*
X0388073Y0111200D01*
X0384427Y0111200D01*
X0381850Y0108623D01*
X0381850Y0104977D01*
X0384427Y0102400D01*
X0388073Y0102400D01*
X0389777Y0104105D02*
X0405551Y0104105D01*
X0405250Y0107800D02*
X0399593Y0107800D01*
X0356339Y0151054D01*
X0356339Y0227368D01*
X0352907Y0230800D01*
X0351336Y0230800D01*
X0307447Y0274689D01*
X0218482Y0274689D01*
X0187250Y0243457D01*
X0185258Y0247971D02*
X0163650Y0247971D01*
X0163650Y0249569D02*
X0186857Y0249569D01*
X0188455Y0251168D02*
X0163650Y0251168D01*
X0163650Y0252766D02*
X0190054Y0252766D01*
X0191653Y0254365D02*
X0163650Y0254365D01*
X0163650Y0255963D02*
X0193251Y0255963D01*
X0194850Y0257562D02*
X0163650Y0257562D01*
X0163650Y0259160D02*
X0196448Y0259160D01*
X0198047Y0260759D02*
X0163650Y0260759D01*
X0163650Y0262357D02*
X0199645Y0262357D01*
X0201244Y0263956D02*
X0163650Y0263956D01*
X0163650Y0265554D02*
X0202842Y0265554D01*
X0204441Y0267153D02*
X0163650Y0267153D01*
X0163650Y0268751D02*
X0206039Y0268751D01*
X0207638Y0270350D02*
X0163650Y0270350D01*
X0163650Y0271948D02*
X0209236Y0271948D01*
X0210835Y0273547D02*
X0163650Y0273547D01*
X0163650Y0275145D02*
X0212433Y0275145D01*
X0212356Y0277031D02*
X0214109Y0277757D01*
X0215450Y0279099D01*
X0216176Y0280851D01*
X0216176Y0282749D01*
X0215450Y0284501D01*
X0214109Y0285843D01*
X0212356Y0286568D01*
X0210459Y0286568D01*
X0208706Y0285843D01*
X0207365Y0284501D01*
X0206639Y0282749D01*
X0206639Y0280851D01*
X0207365Y0279099D01*
X0208706Y0277757D01*
X0210459Y0277031D01*
X0212356Y0277031D01*
X0214032Y0276744D02*
X0163650Y0276744D01*
X0163650Y0278342D02*
X0168202Y0278342D01*
X0169345Y0277200D02*
X0166650Y0279895D01*
X0166650Y0281800D01*
X0171250Y0281800D01*
X0171250Y0281800D01*
X0171250Y0286400D01*
X0173155Y0286400D01*
X0175850Y0283705D01*
X0175850Y0281800D01*
X0171250Y0281800D01*
X0171250Y0281800D01*
X0171250Y0281800D01*
X0171250Y0286400D01*
X0169345Y0286400D01*
X0166650Y0283705D01*
X0166650Y0281800D01*
X0171250Y0281800D01*
X0175850Y0281800D01*
X0175850Y0279895D01*
X0173155Y0277200D01*
X0171250Y0277200D01*
X0171250Y0281800D01*
X0171250Y0281800D01*
X0171250Y0277200D01*
X0169345Y0277200D01*
X0171250Y0278342D02*
X0171250Y0278342D01*
X0171250Y0279941D02*
X0171250Y0279941D01*
X0171250Y0281539D02*
X0171250Y0281539D01*
X0171250Y0283138D02*
X0171250Y0283138D01*
X0171250Y0284737D02*
X0171250Y0284737D01*
X0171250Y0286335D02*
X0171250Y0286335D01*
X0173220Y0286335D02*
X0209895Y0286335D01*
X0207600Y0284737D02*
X0194536Y0284737D01*
X0195650Y0283623D02*
X0193073Y0286200D01*
X0189427Y0286200D01*
X0186850Y0283623D01*
X0186850Y0279977D01*
X0189427Y0277400D01*
X0193073Y0277400D01*
X0195650Y0279977D01*
X0195650Y0283623D01*
X0195650Y0283138D02*
X0206800Y0283138D01*
X0206639Y0281539D02*
X0195650Y0281539D01*
X0195613Y0279941D02*
X0207016Y0279941D01*
X0208121Y0278342D02*
X0194015Y0278342D01*
X0188485Y0278342D02*
X0174298Y0278342D01*
X0175850Y0279941D02*
X0186886Y0279941D01*
X0186850Y0281539D02*
X0175850Y0281539D01*
X0175850Y0283138D02*
X0186850Y0283138D01*
X0187964Y0284737D02*
X0174819Y0284737D01*
X0169280Y0286335D02*
X0163650Y0286335D01*
X0163650Y0284737D02*
X0167681Y0284737D01*
X0166650Y0283138D02*
X0163650Y0283138D01*
X0163650Y0281539D02*
X0166650Y0281539D01*
X0166650Y0279941D02*
X0163650Y0279941D01*
X0158850Y0279941D02*
X0121109Y0279941D01*
X0121171Y0280090D02*
X0120365Y0278145D01*
X0118877Y0276657D01*
X0116932Y0275852D01*
X0114827Y0275852D01*
X0112883Y0276657D01*
X0111394Y0278145D01*
X0110589Y0280090D01*
X0110589Y0282195D01*
X0111394Y0284140D01*
X0112883Y0285628D01*
X0114827Y0286433D01*
X0116932Y0286433D01*
X0118877Y0285628D01*
X0120365Y0284140D01*
X0121171Y0282195D01*
X0121171Y0280090D01*
X0121171Y0281539D02*
X0158850Y0281539D01*
X0158850Y0283138D02*
X0120780Y0283138D01*
X0119768Y0284737D02*
X0158850Y0284737D01*
X0158850Y0286335D02*
X0117170Y0286335D01*
X0114590Y0286335D02*
X0111256Y0286335D01*
X0111279Y0286279D02*
X0110361Y0288495D01*
X0108665Y0290191D01*
X0106449Y0291109D01*
X0104051Y0291109D01*
X0101835Y0290191D01*
X0100139Y0288495D01*
X0099221Y0286279D01*
X0099221Y0283880D01*
X0100139Y0281664D01*
X0101835Y0279968D01*
X0104051Y0279050D01*
X0106449Y0279050D01*
X0108665Y0279968D01*
X0110361Y0281664D01*
X0111279Y0283880D01*
X0111279Y0286279D01*
X0111279Y0284737D02*
X0111991Y0284737D01*
X0110980Y0283138D02*
X0110972Y0283138D01*
X0110589Y0281539D02*
X0110236Y0281539D01*
X0110651Y0279941D02*
X0108599Y0279941D01*
X0111313Y0278342D02*
X0097850Y0278342D01*
X0097850Y0276744D02*
X0112796Y0276744D01*
X0118964Y0276744D02*
X0158850Y0276744D01*
X0158850Y0278342D02*
X0120447Y0278342D01*
X0116932Y0266748D02*
X0114827Y0266748D01*
X0112883Y0265943D01*
X0111394Y0264455D01*
X0110589Y0262510D01*
X0110589Y0260405D01*
X0111394Y0258460D01*
X0112883Y0256972D01*
X0114827Y0256167D01*
X0116932Y0256167D01*
X0118877Y0256972D01*
X0120365Y0258460D01*
X0121171Y0260405D01*
X0121171Y0262510D01*
X0120365Y0264455D01*
X0118877Y0265943D01*
X0116932Y0266748D01*
X0119266Y0265554D02*
X0158850Y0265554D01*
X0158850Y0263956D02*
X0120572Y0263956D01*
X0121171Y0262357D02*
X0158850Y0262357D01*
X0158850Y0260759D02*
X0121171Y0260759D01*
X0120655Y0259160D02*
X0158850Y0259160D01*
X0158850Y0257562D02*
X0119467Y0257562D01*
X0112293Y0257562D02*
X0111279Y0257562D01*
X0111279Y0258720D02*
X0110361Y0260936D01*
X0108665Y0262632D01*
X0106449Y0263550D01*
X0104051Y0263550D01*
X0101835Y0262632D01*
X0100139Y0260936D01*
X0099221Y0258720D01*
X0099221Y0256321D01*
X0100139Y0254105D01*
X0101835Y0252409D01*
X0104051Y0251491D01*
X0106449Y0251491D01*
X0108665Y0252409D01*
X0110361Y0254105D01*
X0111279Y0256321D01*
X0111279Y0258720D01*
X0111105Y0259160D02*
X0111097Y0259160D01*
X0110589Y0260759D02*
X0110435Y0260759D01*
X0110589Y0262357D02*
X0108940Y0262357D01*
X0111188Y0263956D02*
X0097850Y0263956D01*
X0097850Y0265554D02*
X0112494Y0265554D01*
X0111131Y0255963D02*
X0158850Y0255963D01*
X0158850Y0254365D02*
X0110469Y0254365D01*
X0109022Y0252766D02*
X0158850Y0252766D01*
X0158850Y0251168D02*
X0097850Y0251168D01*
X0097850Y0252766D02*
X0101478Y0252766D01*
X0100031Y0254365D02*
X0097850Y0254365D01*
X0097850Y0255963D02*
X0099369Y0255963D01*
X0099221Y0257562D02*
X0097850Y0257562D01*
X0097850Y0259160D02*
X0099403Y0259160D01*
X0100065Y0260759D02*
X0097850Y0260759D01*
X0097850Y0262357D02*
X0101560Y0262357D01*
X0097850Y0267153D02*
X0158850Y0267153D01*
X0158850Y0268751D02*
X0097850Y0268751D01*
X0097850Y0270350D02*
X0158850Y0270350D01*
X0158850Y0271948D02*
X0097850Y0271948D01*
X0097850Y0273547D02*
X0158850Y0273547D01*
X0158850Y0275145D02*
X0097850Y0275145D01*
X0097850Y0279941D02*
X0101901Y0279941D01*
X0100264Y0281539D02*
X0097850Y0281539D01*
X0097850Y0283138D02*
X0099528Y0283138D01*
X0099221Y0284737D02*
X0097850Y0284737D01*
X0097850Y0286335D02*
X0099244Y0286335D01*
X0099906Y0287934D02*
X0097850Y0287934D01*
X0097850Y0289532D02*
X0101176Y0289532D01*
X0097850Y0291131D02*
X0131850Y0291131D01*
X0131850Y0289977D02*
X0131850Y0293623D01*
X0134427Y0296200D01*
X0138073Y0296200D01*
X0140650Y0293623D01*
X0140650Y0289977D01*
X0138073Y0287400D01*
X0134427Y0287400D01*
X0131850Y0289977D01*
X0132295Y0289532D02*
X0109324Y0289532D01*
X0110594Y0287934D02*
X0133894Y0287934D01*
X0138606Y0287934D02*
X0143894Y0287934D01*
X0144427Y0287400D02*
X0148073Y0287400D01*
X0150650Y0289977D01*
X0150650Y0293623D01*
X0148073Y0296200D01*
X0144427Y0296200D01*
X0141850Y0293623D01*
X0141850Y0289977D01*
X0144427Y0287400D01*
X0142295Y0289532D02*
X0140205Y0289532D01*
X0140650Y0291131D02*
X0141850Y0291131D01*
X0141850Y0292729D02*
X0140650Y0292729D01*
X0139945Y0294328D02*
X0142555Y0294328D01*
X0144154Y0295926D02*
X0138346Y0295926D01*
X0134154Y0295926D02*
X0097850Y0295926D01*
X0097850Y0294328D02*
X0132555Y0294328D01*
X0131850Y0292729D02*
X0097850Y0292729D01*
X0097850Y0297525D02*
X0260950Y0297525D01*
X0260950Y0297854D02*
X0260950Y0295746D01*
X0261757Y0293798D01*
X0263248Y0292307D01*
X0265196Y0291500D01*
X0267304Y0291500D01*
X0269252Y0292307D01*
X0270743Y0293798D01*
X0271550Y0295746D01*
X0271550Y0297854D01*
X0270743Y0299802D01*
X0269252Y0301293D01*
X0268028Y0301800D01*
X0269252Y0302307D01*
X0270743Y0303798D01*
X0271550Y0305746D01*
X0271550Y0307854D01*
X0270743Y0309802D01*
X0269252Y0311293D01*
X0267304Y0312100D01*
X0265196Y0312100D01*
X0263248Y0311293D01*
X0261757Y0309802D01*
X0260950Y0307854D01*
X0260950Y0305746D01*
X0261757Y0303798D01*
X0263248Y0302307D01*
X0264472Y0301800D01*
X0263248Y0301293D01*
X0261757Y0299802D01*
X0260950Y0297854D01*
X0261476Y0299123D02*
X0097850Y0299123D01*
X0097850Y0300722D02*
X0262676Y0300722D01*
X0263235Y0302320D02*
X0097850Y0302320D01*
X0097850Y0303919D02*
X0261707Y0303919D01*
X0261045Y0305517D02*
X0097850Y0305517D01*
X0097850Y0307116D02*
X0260950Y0307116D01*
X0261306Y0308714D02*
X0097850Y0308714D01*
X0097850Y0310313D02*
X0101636Y0310313D01*
X0101803Y0310145D02*
X0104689Y0308950D01*
X0107811Y0308950D01*
X0110697Y0310145D01*
X0112905Y0312353D01*
X0114100Y0315239D01*
X0114100Y0318361D01*
X0112905Y0321247D01*
X0110697Y0323455D01*
X0107811Y0324650D01*
X0104689Y0324650D01*
X0101803Y0323455D01*
X0099595Y0321247D01*
X0098400Y0318361D01*
X0098400Y0315239D01*
X0099595Y0312353D01*
X0101803Y0310145D01*
X0100037Y0311911D02*
X0097850Y0311911D01*
X0097850Y0313510D02*
X0099116Y0313510D01*
X0098454Y0315108D02*
X0097850Y0315108D01*
X0097850Y0316707D02*
X0098400Y0316707D01*
X0098400Y0318305D02*
X0097850Y0318305D01*
X0097850Y0319904D02*
X0099039Y0319904D01*
X0099851Y0321502D02*
X0097850Y0321502D01*
X0097850Y0323101D02*
X0101449Y0323101D01*
X0097850Y0324699D02*
X0261714Y0324699D01*
X0261757Y0324802D02*
X0260950Y0322854D01*
X0260950Y0320746D01*
X0261757Y0318798D01*
X0263248Y0317307D01*
X0265196Y0316500D01*
X0267304Y0316500D01*
X0269252Y0317307D01*
X0270743Y0318798D01*
X0271550Y0320746D01*
X0271550Y0322854D01*
X0270743Y0324802D01*
X0269252Y0326293D01*
X0268028Y0326800D01*
X0269252Y0327307D01*
X0270743Y0328798D01*
X0271550Y0330746D01*
X0271550Y0332854D01*
X0270743Y0334802D01*
X0269252Y0336293D01*
X0267304Y0337100D01*
X0265196Y0337100D01*
X0263248Y0336293D01*
X0261757Y0334802D01*
X0260950Y0332854D01*
X0260950Y0330746D01*
X0261757Y0328798D01*
X0263248Y0327307D01*
X0264472Y0326800D01*
X0263248Y0326293D01*
X0261757Y0324802D01*
X0261052Y0323101D02*
X0111051Y0323101D01*
X0112649Y0321502D02*
X0260950Y0321502D01*
X0261299Y0319904D02*
X0113461Y0319904D01*
X0114100Y0318305D02*
X0262249Y0318305D01*
X0264697Y0316707D02*
X0114100Y0316707D01*
X0114046Y0315108D02*
X0281214Y0315108D01*
X0280950Y0315746D02*
X0281757Y0313798D01*
X0283248Y0312307D01*
X0284472Y0311800D01*
X0283248Y0311293D01*
X0281757Y0309802D01*
X0280950Y0307854D01*
X0280950Y0305746D01*
X0281757Y0303798D01*
X0283248Y0302307D01*
X0284472Y0301800D01*
X0283248Y0301293D01*
X0281757Y0299802D01*
X0280950Y0297854D01*
X0280950Y0295746D01*
X0281757Y0293798D01*
X0283248Y0292307D01*
X0284472Y0291800D01*
X0283248Y0291293D01*
X0281757Y0289802D01*
X0280950Y0287854D01*
X0280950Y0285746D01*
X0281757Y0283798D01*
X0283248Y0282307D01*
X0285196Y0281500D01*
X0287304Y0281500D01*
X0289252Y0282307D01*
X0290743Y0283798D01*
X0291550Y0285746D01*
X0291550Y0287854D01*
X0290743Y0289802D01*
X0289252Y0291293D01*
X0288028Y0291800D01*
X0289252Y0292307D01*
X0290743Y0293798D01*
X0291550Y0295746D01*
X0291550Y0297854D01*
X0290743Y0299802D01*
X0289252Y0301293D01*
X0288028Y0301800D01*
X0289252Y0302307D01*
X0290743Y0303798D01*
X0291550Y0305746D01*
X0291550Y0307854D01*
X0290743Y0309802D01*
X0289252Y0311293D01*
X0288028Y0311800D01*
X0289252Y0312307D01*
X0290743Y0313798D01*
X0291550Y0315746D01*
X0291550Y0317854D01*
X0290743Y0319802D01*
X0289252Y0321293D01*
X0288028Y0321800D01*
X0289252Y0322307D01*
X0290743Y0323798D01*
X0291550Y0325746D01*
X0291550Y0327854D01*
X0290743Y0329802D01*
X0289252Y0331293D01*
X0288028Y0331800D01*
X0289252Y0332307D01*
X0290743Y0333798D01*
X0291550Y0335746D01*
X0291550Y0337854D01*
X0290743Y0339802D01*
X0289252Y0341293D01*
X0288306Y0341685D01*
X0288361Y0341703D01*
X0289133Y0342096D01*
X0289833Y0342605D01*
X0290445Y0343217D01*
X0290954Y0343917D01*
X0291347Y0344689D01*
X0291615Y0345512D01*
X0291750Y0346367D01*
X0291750Y0346600D01*
X0286450Y0346600D01*
X0286450Y0347000D01*
X0291750Y0347000D01*
X0291750Y0347233D01*
X0291615Y0348088D01*
X0291347Y0348911D01*
X0290954Y0349683D01*
X0290445Y0350383D01*
X0289833Y0350995D01*
X0289133Y0351504D01*
X0288361Y0351897D01*
X0287538Y0352165D01*
X0286683Y0352300D01*
X0286450Y0352300D01*
X0286450Y0347000D01*
X0286050Y0347000D01*
X0286050Y0352300D01*
X0285817Y0352300D01*
X0284962Y0352165D01*
X0284139Y0351897D01*
X0283367Y0351504D01*
X0282667Y0350995D01*
X0282055Y0350383D01*
X0281546Y0349683D01*
X0281153Y0348911D01*
X0280885Y0348088D01*
X0280750Y0347233D01*
X0280750Y0347000D01*
X0286050Y0347000D01*
X0286050Y0346600D01*
X0280750Y0346600D01*
X0280750Y0346367D01*
X0280885Y0345512D01*
X0281153Y0344689D01*
X0281546Y0343917D01*
X0282055Y0343217D01*
X0282667Y0342605D01*
X0283367Y0342096D01*
X0284139Y0341703D01*
X0284194Y0341685D01*
X0283248Y0341293D01*
X0281757Y0339802D01*
X0280950Y0337854D01*
X0280950Y0335746D01*
X0281757Y0333798D01*
X0283248Y0332307D01*
X0284472Y0331800D01*
X0283248Y0331293D01*
X0281757Y0329802D01*
X0280950Y0327854D01*
X0280950Y0325746D01*
X0281757Y0323798D01*
X0283248Y0322307D01*
X0284472Y0321800D01*
X0283248Y0321293D01*
X0281757Y0319802D01*
X0280950Y0317854D01*
X0280950Y0315746D01*
X0280950Y0316707D02*
X0267803Y0316707D01*
X0270251Y0318305D02*
X0281137Y0318305D01*
X0281858Y0319904D02*
X0271201Y0319904D01*
X0271550Y0321502D02*
X0283753Y0321502D01*
X0282454Y0323101D02*
X0271448Y0323101D01*
X0270786Y0324699D02*
X0281383Y0324699D01*
X0280950Y0326298D02*
X0269241Y0326298D01*
X0269842Y0327896D02*
X0280967Y0327896D01*
X0281630Y0329495D02*
X0271032Y0329495D01*
X0271550Y0331093D02*
X0283048Y0331093D01*
X0282863Y0332692D02*
X0271550Y0332692D01*
X0270955Y0334290D02*
X0281553Y0334290D01*
X0280950Y0335889D02*
X0269656Y0335889D01*
X0262844Y0335889D02*
X0097850Y0335889D01*
X0097850Y0337487D02*
X0280950Y0337487D01*
X0281460Y0339086D02*
X0097850Y0339086D01*
X0097850Y0340684D02*
X0282639Y0340684D01*
X0283110Y0342283D02*
X0097850Y0342283D01*
X0097850Y0343881D02*
X0281572Y0343881D01*
X0280896Y0345480D02*
X0097850Y0345480D01*
X0097850Y0347078D02*
X0280750Y0347078D01*
X0281077Y0348677D02*
X0097850Y0348677D01*
X0097850Y0350275D02*
X0281977Y0350275D01*
X0284093Y0351874D02*
X0097850Y0351874D01*
X0097850Y0353472D02*
X0488351Y0353472D01*
X0488351Y0351874D02*
X0318407Y0351874D01*
X0318361Y0351897D02*
X0317538Y0352165D01*
X0316683Y0352300D01*
X0316450Y0352300D01*
X0316450Y0347000D01*
X0321750Y0347000D01*
X0321750Y0347233D01*
X0321615Y0348088D01*
X0321347Y0348911D01*
X0320954Y0349683D01*
X0320445Y0350383D01*
X0319833Y0350995D01*
X0319133Y0351504D01*
X0318361Y0351897D01*
X0316450Y0351874D02*
X0316050Y0351874D01*
X0316050Y0352300D02*
X0315817Y0352300D01*
X0314962Y0352165D01*
X0314139Y0351897D01*
X0313367Y0351504D01*
X0312667Y0350995D01*
X0312055Y0350383D01*
X0311546Y0349683D01*
X0311153Y0348911D01*
X0310885Y0348088D01*
X0310750Y0347233D01*
X0310750Y0347000D01*
X0316050Y0347000D01*
X0316050Y0352300D01*
X0314093Y0351874D02*
X0288407Y0351874D01*
X0286450Y0351874D02*
X0286050Y0351874D01*
X0286050Y0350275D02*
X0286450Y0350275D01*
X0286450Y0348677D02*
X0286050Y0348677D01*
X0286050Y0347078D02*
X0286450Y0347078D01*
X0290523Y0350275D02*
X0311977Y0350275D01*
X0311077Y0348677D02*
X0291423Y0348677D01*
X0291750Y0347078D02*
X0310750Y0347078D01*
X0310750Y0346600D02*
X0310750Y0346367D01*
X0310885Y0345512D01*
X0311153Y0344689D01*
X0311546Y0343917D01*
X0312055Y0343217D01*
X0312667Y0342605D01*
X0313367Y0342096D01*
X0314139Y0341703D01*
X0314194Y0341685D01*
X0313248Y0341293D01*
X0311757Y0339802D01*
X0310950Y0337854D01*
X0310950Y0335746D01*
X0311757Y0333798D01*
X0313248Y0332307D01*
X0314472Y0331800D01*
X0313248Y0331293D01*
X0311757Y0329802D01*
X0310950Y0327854D01*
X0310950Y0325746D01*
X0311757Y0323798D01*
X0313248Y0322307D01*
X0314472Y0321800D01*
X0313248Y0321293D01*
X0311757Y0319802D01*
X0310950Y0317854D01*
X0310950Y0315746D01*
X0311757Y0313798D01*
X0313248Y0312307D01*
X0314472Y0311800D01*
X0313248Y0311293D01*
X0311757Y0309802D01*
X0310950Y0307854D01*
X0310950Y0305746D01*
X0311757Y0303798D01*
X0313248Y0302307D01*
X0314472Y0301800D01*
X0313248Y0301293D01*
X0311757Y0299802D01*
X0310950Y0297854D01*
X0310950Y0295746D01*
X0311757Y0293798D01*
X0313248Y0292307D01*
X0314472Y0291800D01*
X0313248Y0291293D01*
X0311757Y0289802D01*
X0310950Y0287854D01*
X0310950Y0285746D01*
X0311757Y0283798D01*
X0313248Y0282307D01*
X0315196Y0281500D01*
X0317304Y0281500D01*
X0319252Y0282307D01*
X0320743Y0283798D01*
X0321550Y0285746D01*
X0321550Y0287854D01*
X0320743Y0289802D01*
X0319252Y0291293D01*
X0318028Y0291800D01*
X0319252Y0292307D01*
X0320743Y0293798D01*
X0321550Y0295746D01*
X0321550Y0297854D01*
X0320743Y0299802D01*
X0319252Y0301293D01*
X0318028Y0301800D01*
X0319252Y0302307D01*
X0320743Y0303798D01*
X0321550Y0305746D01*
X0321550Y0307854D01*
X0320743Y0309802D01*
X0319252Y0311293D01*
X0318028Y0311800D01*
X0319252Y0312307D01*
X0320743Y0313798D01*
X0321550Y0315746D01*
X0321550Y0317854D01*
X0320743Y0319802D01*
X0319252Y0321293D01*
X0318028Y0321800D01*
X0319252Y0322307D01*
X0320743Y0323798D01*
X0321550Y0325746D01*
X0321550Y0327854D01*
X0320743Y0329802D01*
X0319252Y0331293D01*
X0318028Y0331800D01*
X0319252Y0332307D01*
X0320743Y0333798D01*
X0321550Y0335746D01*
X0321550Y0337854D01*
X0320743Y0339802D01*
X0319252Y0341293D01*
X0318306Y0341685D01*
X0318361Y0341703D01*
X0319133Y0342096D01*
X0319833Y0342605D01*
X0320445Y0343217D01*
X0320954Y0343917D01*
X0321347Y0344689D01*
X0321615Y0345512D01*
X0321750Y0346367D01*
X0321750Y0346600D01*
X0316450Y0346600D01*
X0316450Y0347000D01*
X0316050Y0347000D01*
X0316050Y0346600D01*
X0310750Y0346600D01*
X0310896Y0345480D02*
X0291604Y0345480D01*
X0290928Y0343881D02*
X0311572Y0343881D01*
X0313110Y0342283D02*
X0289390Y0342283D01*
X0289861Y0340684D02*
X0312639Y0340684D01*
X0311460Y0339086D02*
X0291040Y0339086D01*
X0291550Y0337487D02*
X0310950Y0337487D01*
X0310950Y0335889D02*
X0291550Y0335889D01*
X0290947Y0334290D02*
X0311553Y0334290D01*
X0312863Y0332692D02*
X0289637Y0332692D01*
X0289452Y0331093D02*
X0313048Y0331093D01*
X0311630Y0329495D02*
X0290870Y0329495D01*
X0291533Y0327896D02*
X0310967Y0327896D01*
X0310950Y0326298D02*
X0291550Y0326298D01*
X0291117Y0324699D02*
X0311383Y0324699D01*
X0312454Y0323101D02*
X0290046Y0323101D01*
X0288747Y0321502D02*
X0313753Y0321502D01*
X0311858Y0319904D02*
X0290642Y0319904D01*
X0291363Y0318305D02*
X0311137Y0318305D01*
X0310950Y0316707D02*
X0291550Y0316707D01*
X0291286Y0315108D02*
X0311214Y0315108D01*
X0312045Y0313510D02*
X0290455Y0313510D01*
X0288297Y0311911D02*
X0314203Y0311911D01*
X0312267Y0310313D02*
X0290233Y0310313D01*
X0291194Y0308714D02*
X0311306Y0308714D01*
X0310950Y0307116D02*
X0291550Y0307116D01*
X0291455Y0305517D02*
X0311045Y0305517D01*
X0311707Y0303919D02*
X0290793Y0303919D01*
X0289265Y0302320D02*
X0313235Y0302320D01*
X0312676Y0300722D02*
X0289824Y0300722D01*
X0291024Y0299123D02*
X0311476Y0299123D01*
X0310950Y0297525D02*
X0291550Y0297525D01*
X0291550Y0295926D02*
X0310950Y0295926D01*
X0311537Y0294328D02*
X0290963Y0294328D01*
X0289674Y0292729D02*
X0312826Y0292729D01*
X0313085Y0291131D02*
X0289415Y0291131D01*
X0290855Y0289532D02*
X0311645Y0289532D01*
X0310983Y0287934D02*
X0291517Y0287934D01*
X0291550Y0286335D02*
X0310950Y0286335D01*
X0311368Y0284737D02*
X0291132Y0284737D01*
X0290083Y0283138D02*
X0312417Y0283138D01*
X0315100Y0281539D02*
X0287400Y0281539D01*
X0285100Y0281539D02*
X0236061Y0281539D01*
X0235882Y0283138D02*
X0282417Y0283138D01*
X0281368Y0284737D02*
X0235100Y0284737D01*
X0233136Y0286335D02*
X0280950Y0286335D01*
X0280983Y0287934D02*
X0163650Y0287934D01*
X0163650Y0289532D02*
X0281645Y0289532D01*
X0283085Y0291131D02*
X0164533Y0291131D01*
X0164425Y0292729D02*
X0262826Y0292729D01*
X0261537Y0294328D02*
X0163374Y0294328D01*
X0161250Y0291800D02*
X0161250Y0241800D01*
X0158260Y0243175D02*
X0097850Y0243175D01*
X0097850Y0241577D02*
X0157961Y0241577D01*
X0158445Y0239978D02*
X0097850Y0239978D01*
X0097850Y0244774D02*
X0158850Y0244774D01*
X0158850Y0246372D02*
X0097850Y0246372D01*
X0097850Y0247971D02*
X0158850Y0247971D01*
X0158850Y0249569D02*
X0097850Y0249569D01*
X0113549Y0220796D02*
X0133850Y0220796D01*
X0133850Y0219198D02*
X0115205Y0219198D01*
X0115822Y0217599D02*
X0133850Y0217599D01*
X0133850Y0216001D02*
X0115822Y0216001D01*
X0115205Y0214402D02*
X0133850Y0214402D01*
X0133106Y0212803D02*
X0113548Y0212803D01*
X0112942Y0211205D02*
X0132961Y0211205D01*
X0133792Y0209606D02*
X0115066Y0209606D01*
X0139309Y0225592D02*
X0139435Y0225592D01*
X0139539Y0227190D02*
X0141034Y0227190D01*
X0142632Y0228789D02*
X0138913Y0228789D01*
X0148606Y0287934D02*
X0158850Y0287934D01*
X0158850Y0289532D02*
X0150205Y0289532D01*
X0150650Y0291131D02*
X0157967Y0291131D01*
X0158075Y0292729D02*
X0150650Y0292729D01*
X0149945Y0294328D02*
X0159126Y0294328D01*
X0148346Y0295926D02*
X0260950Y0295926D01*
X0269674Y0292729D02*
X0282826Y0292729D01*
X0281537Y0294328D02*
X0270963Y0294328D01*
X0271550Y0295926D02*
X0280950Y0295926D01*
X0280950Y0297525D02*
X0271550Y0297525D01*
X0271024Y0299123D02*
X0281476Y0299123D01*
X0282676Y0300722D02*
X0269824Y0300722D01*
X0269265Y0302320D02*
X0283235Y0302320D01*
X0281707Y0303919D02*
X0270793Y0303919D01*
X0271455Y0305517D02*
X0281045Y0305517D01*
X0280950Y0307116D02*
X0271550Y0307116D01*
X0271194Y0308714D02*
X0281306Y0308714D01*
X0282267Y0310313D02*
X0270233Y0310313D01*
X0267760Y0311911D02*
X0284203Y0311911D01*
X0282045Y0313510D02*
X0113384Y0313510D01*
X0112463Y0311911D02*
X0264740Y0311911D01*
X0262267Y0310313D02*
X0110864Y0310313D01*
X0097850Y0326298D02*
X0263259Y0326298D01*
X0262658Y0327896D02*
X0097850Y0327896D01*
X0097850Y0329495D02*
X0261468Y0329495D01*
X0260950Y0331093D02*
X0097850Y0331093D01*
X0097850Y0332692D02*
X0260950Y0332692D01*
X0261545Y0334290D02*
X0097850Y0334290D01*
X0097850Y0355071D02*
X0488351Y0355071D01*
X0488351Y0356670D02*
X0097850Y0356670D01*
X0097850Y0358268D02*
X0488351Y0358268D01*
X0488351Y0359867D02*
X0097850Y0359867D01*
X0097850Y0361465D02*
X0488351Y0361465D01*
X0488351Y0363064D02*
X0097850Y0363064D01*
X0097850Y0364662D02*
X0488351Y0364662D01*
X0488351Y0366261D02*
X0097850Y0366261D01*
X0097850Y0367859D02*
X0488351Y0367859D01*
X0488351Y0369458D02*
X0097850Y0369458D01*
X0097850Y0371056D02*
X0488351Y0371056D01*
X0488351Y0372655D02*
X0097850Y0372655D01*
X0097850Y0374253D02*
X0488351Y0374253D01*
X0488351Y0375852D02*
X0097850Y0375852D01*
X0097850Y0377450D02*
X0488351Y0377450D01*
X0488351Y0379049D02*
X0478050Y0379049D01*
X0481199Y0380647D02*
X0488351Y0380647D01*
X0488351Y0382246D02*
X0482797Y0382246D01*
X0483522Y0383844D02*
X0488351Y0383844D01*
X0488351Y0385443D02*
X0484100Y0385443D01*
X0484100Y0387041D02*
X0488351Y0387041D01*
X0488351Y0388640D02*
X0483985Y0388640D01*
X0483323Y0390238D02*
X0488351Y0390238D01*
X0488351Y0391837D02*
X0482315Y0391837D01*
X0480716Y0393435D02*
X0488351Y0393435D01*
X0474450Y0379049D02*
X0108050Y0379049D01*
X0111199Y0380647D02*
X0471301Y0380647D01*
X0469703Y0382246D02*
X0112797Y0382246D01*
X0113522Y0383844D02*
X0468978Y0383844D01*
X0468400Y0385443D02*
X0114100Y0385443D01*
X0114100Y0387041D02*
X0468400Y0387041D01*
X0468515Y0388640D02*
X0113985Y0388640D01*
X0113323Y0390238D02*
X0469177Y0390238D01*
X0470185Y0391837D02*
X0112315Y0391837D01*
X0110716Y0393435D02*
X0471784Y0393435D01*
X0488351Y0350275D02*
X0320523Y0350275D01*
X0321423Y0348677D02*
X0488351Y0348677D01*
X0488351Y0347078D02*
X0321750Y0347078D01*
X0321604Y0345480D02*
X0488351Y0345480D01*
X0488351Y0343881D02*
X0320928Y0343881D01*
X0319390Y0342283D02*
X0488351Y0342283D01*
X0488351Y0340684D02*
X0319861Y0340684D01*
X0321040Y0339086D02*
X0488351Y0339086D01*
X0488351Y0337487D02*
X0321550Y0337487D01*
X0321550Y0335889D02*
X0488351Y0335889D01*
X0488351Y0334290D02*
X0320947Y0334290D01*
X0319637Y0332692D02*
X0488351Y0332692D01*
X0488351Y0331093D02*
X0319452Y0331093D01*
X0320870Y0329495D02*
X0474314Y0329495D01*
X0474689Y0329650D02*
X0471803Y0328455D01*
X0469595Y0326247D01*
X0468400Y0323361D01*
X0468400Y0320239D01*
X0469595Y0317353D01*
X0471803Y0315145D01*
X0474689Y0313950D01*
X0477811Y0313950D01*
X0480697Y0315145D01*
X0482905Y0317353D01*
X0484100Y0320239D01*
X0484100Y0323361D01*
X0482905Y0326247D01*
X0480697Y0328455D01*
X0477811Y0329650D01*
X0474689Y0329650D01*
X0478186Y0329495D02*
X0488351Y0329495D01*
X0488351Y0327896D02*
X0481255Y0327896D01*
X0482854Y0326298D02*
X0488351Y0326298D01*
X0488351Y0324699D02*
X0483546Y0324699D01*
X0484100Y0323101D02*
X0488351Y0323101D01*
X0488351Y0321502D02*
X0484100Y0321502D01*
X0483961Y0319904D02*
X0488351Y0319904D01*
X0488351Y0318305D02*
X0483299Y0318305D01*
X0482258Y0316707D02*
X0488351Y0316707D01*
X0488351Y0315108D02*
X0480608Y0315108D01*
X0488351Y0313510D02*
X0424102Y0313510D01*
X0424109Y0315108D02*
X0471892Y0315108D01*
X0470242Y0316707D02*
X0424539Y0316707D01*
X0424186Y0318305D02*
X0469201Y0318305D01*
X0468539Y0319904D02*
X0422351Y0319904D01*
X0420149Y0319904D02*
X0375576Y0319904D01*
X0375650Y0319977D02*
X0373073Y0317400D01*
X0369427Y0317400D01*
X0366850Y0319977D01*
X0366850Y0323623D01*
X0369427Y0326200D01*
X0373073Y0326200D01*
X0375650Y0323623D01*
X0375650Y0319977D01*
X0375650Y0321502D02*
X0468400Y0321502D01*
X0468400Y0323101D02*
X0375650Y0323101D01*
X0374573Y0324699D02*
X0468954Y0324699D01*
X0469646Y0326298D02*
X0321550Y0326298D01*
X0321533Y0327896D02*
X0471245Y0327896D01*
X0488351Y0311911D02*
X0424539Y0311911D01*
X0426131Y0310313D02*
X0488351Y0310313D01*
X0488351Y0308714D02*
X0427730Y0308714D01*
X0429328Y0307116D02*
X0488351Y0307116D01*
X0488351Y0305517D02*
X0430927Y0305517D01*
X0430498Y0305946D02*
X0430498Y0305946D01*
X0431539Y0303919D02*
X0488351Y0303919D01*
X0488351Y0302320D02*
X0431539Y0302320D01*
X0431539Y0300722D02*
X0488351Y0300722D01*
X0488351Y0299123D02*
X0431539Y0299123D01*
X0431539Y0297525D02*
X0488351Y0297525D01*
X0488351Y0295926D02*
X0431539Y0295926D01*
X0431539Y0294328D02*
X0488351Y0294328D01*
X0488351Y0292729D02*
X0431539Y0292729D01*
X0431539Y0291131D02*
X0488351Y0291131D01*
X0488351Y0289532D02*
X0431539Y0289532D01*
X0431539Y0287934D02*
X0488351Y0287934D01*
X0488351Y0286335D02*
X0431539Y0286335D01*
X0431539Y0284737D02*
X0488351Y0284737D01*
X0488351Y0283138D02*
X0431539Y0283138D01*
X0431539Y0281539D02*
X0488351Y0281539D01*
X0488351Y0279941D02*
X0431539Y0279941D01*
X0431539Y0278342D02*
X0488351Y0278342D01*
X0488351Y0276744D02*
X0431539Y0276744D01*
X0431539Y0275145D02*
X0488351Y0275145D01*
X0488351Y0273547D02*
X0431539Y0273547D01*
X0431539Y0271948D02*
X0488351Y0271948D01*
X0488351Y0270350D02*
X0441723Y0270350D01*
X0443004Y0268751D02*
X0488351Y0268751D01*
X0488351Y0267153D02*
X0443450Y0267153D01*
X0443297Y0265554D02*
X0488351Y0265554D01*
X0488351Y0263956D02*
X0442428Y0263956D01*
X0440990Y0260759D02*
X0488351Y0260759D01*
X0488351Y0262357D02*
X0431539Y0262357D01*
X0423850Y0262357D02*
X0420761Y0262357D01*
X0420761Y0260759D02*
X0423850Y0260759D01*
X0423850Y0259160D02*
X0420761Y0259160D01*
X0420761Y0257562D02*
X0423850Y0257562D01*
X0423850Y0255963D02*
X0420761Y0255963D01*
X0420761Y0254365D02*
X0423850Y0254365D01*
X0423850Y0252766D02*
X0420761Y0252766D01*
X0420761Y0251168D02*
X0423850Y0251168D01*
X0423850Y0249569D02*
X0420761Y0249569D01*
X0420761Y0247971D02*
X0423850Y0247971D01*
X0423850Y0246372D02*
X0420761Y0246372D01*
X0420761Y0244774D02*
X0423850Y0244774D01*
X0423850Y0243175D02*
X0420761Y0243175D01*
X0420761Y0241577D02*
X0423850Y0241577D01*
X0423850Y0239978D02*
X0420761Y0239978D01*
X0420761Y0238380D02*
X0423850Y0238380D01*
X0423850Y0236781D02*
X0420761Y0236781D01*
X0420761Y0235183D02*
X0423850Y0235183D01*
X0423429Y0233584D02*
X0420761Y0233584D01*
X0420761Y0231986D02*
X0422961Y0231986D01*
X0423275Y0230387D02*
X0420761Y0230387D01*
X0420761Y0228789D02*
X0424097Y0228789D01*
X0423850Y0227190D02*
X0420761Y0227190D01*
X0420761Y0225592D02*
X0423850Y0225592D01*
X0423792Y0223993D02*
X0420761Y0223993D01*
X0420761Y0222395D02*
X0422961Y0222395D01*
X0423106Y0220796D02*
X0420761Y0220796D01*
X0420761Y0219198D02*
X0424201Y0219198D01*
X0426250Y0221800D02*
X0426250Y0227714D01*
X0429139Y0230603D01*
X0429139Y0303911D01*
X0421250Y0311800D01*
X0418361Y0312997D02*
X0421250Y0315886D01*
X0421250Y0316800D01*
X0417961Y0316707D02*
X0321550Y0316707D01*
X0321363Y0318305D02*
X0328522Y0318305D01*
X0329427Y0317400D02*
X0333073Y0317400D01*
X0335650Y0319977D01*
X0335650Y0323623D01*
X0333073Y0326200D01*
X0329427Y0326200D01*
X0326850Y0323623D01*
X0326850Y0319977D01*
X0329427Y0317400D01*
X0326924Y0319904D02*
X0320642Y0319904D01*
X0318747Y0321502D02*
X0326850Y0321502D01*
X0326850Y0323101D02*
X0320046Y0323101D01*
X0321117Y0324699D02*
X0327927Y0324699D01*
X0334573Y0324699D02*
X0367927Y0324699D01*
X0366850Y0323101D02*
X0335650Y0323101D01*
X0335650Y0321502D02*
X0366850Y0321502D01*
X0366924Y0319904D02*
X0335576Y0319904D01*
X0333978Y0318305D02*
X0368522Y0318305D01*
X0373978Y0318305D02*
X0418314Y0318305D01*
X0417078Y0315108D02*
X0321286Y0315108D01*
X0320455Y0313510D02*
X0415976Y0313510D01*
X0415961Y0311911D02*
X0318297Y0311911D01*
X0320233Y0310313D02*
X0415961Y0310313D01*
X0415961Y0308714D02*
X0321194Y0308714D01*
X0321550Y0307116D02*
X0415961Y0307116D01*
X0415961Y0305517D02*
X0321455Y0305517D01*
X0320793Y0303919D02*
X0415961Y0303919D01*
X0415961Y0302320D02*
X0319265Y0302320D01*
X0319824Y0300722D02*
X0373585Y0300722D01*
X0373706Y0300843D02*
X0372365Y0299501D01*
X0371639Y0297749D01*
X0371639Y0295851D01*
X0372365Y0294099D01*
X0373706Y0292757D01*
X0375459Y0292031D01*
X0377356Y0292031D01*
X0379109Y0292757D01*
X0380450Y0294099D01*
X0381176Y0295851D01*
X0381176Y0297749D01*
X0380450Y0299501D01*
X0379109Y0300843D01*
X0377356Y0301568D01*
X0375459Y0301568D01*
X0373706Y0300843D01*
X0372208Y0299123D02*
X0321024Y0299123D01*
X0321550Y0297525D02*
X0371639Y0297525D01*
X0371639Y0295926D02*
X0321550Y0295926D01*
X0320963Y0294328D02*
X0372270Y0294328D01*
X0373775Y0292729D02*
X0319674Y0292729D01*
X0319415Y0291131D02*
X0415961Y0291131D01*
X0415961Y0292729D02*
X0398942Y0292729D01*
X0398697Y0292551D02*
X0399329Y0293010D01*
X0399882Y0293563D01*
X0400342Y0294196D01*
X0400697Y0294893D01*
X0400939Y0295637D01*
X0401061Y0296409D01*
X0401061Y0296616D01*
X0396277Y0296616D01*
X0396277Y0296984D01*
X0401061Y0296984D01*
X0401061Y0297191D01*
X0400939Y0297963D01*
X0400697Y0298707D01*
X0400342Y0299404D01*
X0399882Y0300037D01*
X0399329Y0300590D01*
X0398697Y0301049D01*
X0398000Y0301404D01*
X0397256Y0301646D01*
X0396484Y0301768D01*
X0396277Y0301768D01*
X0396277Y0296984D01*
X0395908Y0296984D01*
X0395908Y0296616D01*
X0391124Y0296616D01*
X0391124Y0296409D01*
X0391246Y0295637D01*
X0391488Y0294893D01*
X0391843Y0294196D01*
X0392303Y0293563D01*
X0392856Y0293010D01*
X0393488Y0292551D01*
X0394185Y0292196D01*
X0394929Y0291954D01*
X0395701Y0291831D01*
X0395908Y0291831D01*
X0395908Y0296616D01*
X0396277Y0296616D01*
X0396277Y0291831D01*
X0396484Y0291831D01*
X0397256Y0291954D01*
X0398000Y0292196D01*
X0398697Y0292551D01*
X0396277Y0292729D02*
X0395908Y0292729D01*
X0395908Y0294328D02*
X0396277Y0294328D01*
X0396277Y0295926D02*
X0395908Y0295926D01*
X0395908Y0296984D02*
X0391124Y0296984D01*
X0391124Y0297191D01*
X0391246Y0297963D01*
X0391488Y0298707D01*
X0391843Y0299404D01*
X0392303Y0300037D01*
X0392856Y0300590D01*
X0393488Y0301049D01*
X0394185Y0301404D01*
X0394929Y0301646D01*
X0395701Y0301768D01*
X0395908Y0301768D01*
X0395908Y0296984D01*
X0395908Y0297525D02*
X0396277Y0297525D01*
X0396277Y0299123D02*
X0395908Y0299123D01*
X0395908Y0300722D02*
X0396277Y0300722D01*
X0399148Y0300722D02*
X0415961Y0300722D01*
X0415961Y0299123D02*
X0400485Y0299123D01*
X0401008Y0297525D02*
X0415961Y0297525D01*
X0415961Y0295926D02*
X0400985Y0295926D01*
X0400409Y0294328D02*
X0415961Y0294328D01*
X0415961Y0289532D02*
X0320855Y0289532D01*
X0321517Y0287934D02*
X0415961Y0287934D01*
X0415961Y0286335D02*
X0321550Y0286335D01*
X0321132Y0284737D02*
X0415961Y0284737D01*
X0415961Y0283138D02*
X0320083Y0283138D01*
X0317400Y0281539D02*
X0415961Y0281539D01*
X0415961Y0279941D02*
X0235713Y0279941D01*
X0230908Y0281984D02*
X0230908Y0286768D01*
X0230701Y0286768D01*
X0229929Y0286646D01*
X0229185Y0286404D01*
X0228488Y0286049D01*
X0227856Y0285590D01*
X0227303Y0285037D01*
X0226843Y0284404D01*
X0226488Y0283707D01*
X0226246Y0282963D01*
X0226124Y0282191D01*
X0226124Y0281984D01*
X0230908Y0281984D01*
X0230908Y0283138D02*
X0231277Y0283138D01*
X0231277Y0284737D02*
X0230908Y0284737D01*
X0230908Y0286335D02*
X0231277Y0286335D01*
X0229049Y0286335D02*
X0212920Y0286335D01*
X0215215Y0284737D02*
X0227085Y0284737D01*
X0226303Y0283138D02*
X0216015Y0283138D01*
X0216176Y0281539D02*
X0226124Y0281539D01*
X0226472Y0279941D02*
X0215799Y0279941D01*
X0215630Y0278342D02*
X0214694Y0278342D01*
X0318759Y0278342D02*
X0415961Y0278342D01*
X0415961Y0276744D02*
X0320357Y0276744D01*
X0321956Y0275145D02*
X0415961Y0275145D01*
X0415961Y0273547D02*
X0323554Y0273547D01*
X0325153Y0271948D02*
X0415961Y0271948D01*
X0415961Y0270350D02*
X0411723Y0270350D01*
X0411542Y0270530D02*
X0409925Y0271200D01*
X0402575Y0271200D01*
X0400958Y0270530D01*
X0399720Y0269292D01*
X0399050Y0267675D01*
X0399050Y0265925D01*
X0399720Y0264308D01*
X0400958Y0263070D01*
X0402575Y0262400D01*
X0409925Y0262400D01*
X0411542Y0263070D01*
X0412780Y0264308D01*
X0413450Y0265925D01*
X0413450Y0267675D01*
X0412780Y0269292D01*
X0411542Y0270530D01*
X0413004Y0268751D02*
X0415961Y0268751D01*
X0415961Y0267153D02*
X0413450Y0267153D01*
X0413297Y0265554D02*
X0415961Y0265554D01*
X0415961Y0263956D02*
X0412428Y0263956D01*
X0410990Y0260759D02*
X0415961Y0260759D01*
X0415961Y0262357D02*
X0334744Y0262357D01*
X0336342Y0260759D02*
X0387714Y0260759D01*
X0386491Y0259160D02*
X0337941Y0259160D01*
X0339539Y0257562D02*
X0385950Y0257562D01*
X0385950Y0255963D02*
X0341138Y0255963D01*
X0342736Y0254365D02*
X0386522Y0254365D01*
X0387788Y0252766D02*
X0344335Y0252766D01*
X0345933Y0251168D02*
X0388122Y0251168D01*
X0386660Y0249569D02*
X0347532Y0249569D01*
X0349130Y0247971D02*
X0385998Y0247971D01*
X0385950Y0246372D02*
X0350729Y0246372D01*
X0352327Y0244774D02*
X0386353Y0244774D01*
X0387379Y0243175D02*
X0353926Y0243175D01*
X0355524Y0241577D02*
X0388932Y0241577D01*
X0386933Y0239978D02*
X0357123Y0239978D01*
X0358721Y0238380D02*
X0386168Y0238380D01*
X0385950Y0236781D02*
X0360320Y0236781D01*
X0360939Y0235183D02*
X0386183Y0235183D01*
X0386971Y0233584D02*
X0360939Y0233584D01*
X0360939Y0231986D02*
X0389023Y0231986D01*
X0387342Y0230387D02*
X0360939Y0230387D01*
X0360939Y0228789D02*
X0386337Y0228789D01*
X0385950Y0227190D02*
X0360939Y0227190D01*
X0360939Y0225592D02*
X0386014Y0225592D01*
X0386676Y0223993D02*
X0360939Y0223993D01*
X0360939Y0222395D02*
X0388160Y0222395D01*
X0387751Y0220796D02*
X0360939Y0220796D01*
X0360939Y0219198D02*
X0386506Y0219198D01*
X0385950Y0217599D02*
X0360939Y0217599D01*
X0360939Y0216001D02*
X0385950Y0216001D01*
X0386507Y0214402D02*
X0363299Y0214402D01*
X0364394Y0212803D02*
X0387751Y0212803D01*
X0388160Y0211205D02*
X0364539Y0211205D01*
X0363708Y0209606D02*
X0386676Y0209606D01*
X0395824Y0223993D02*
X0400034Y0223993D01*
X0399188Y0225592D02*
X0396486Y0225592D01*
X0396550Y0227190D02*
X0399050Y0227190D01*
X0399511Y0228789D02*
X0396163Y0228789D01*
X0395158Y0230387D02*
X0400815Y0230387D01*
X0402575Y0232400D02*
X0409925Y0232400D01*
X0411542Y0233070D01*
X0412780Y0234308D01*
X0413450Y0235925D01*
X0413450Y0237675D01*
X0412780Y0239292D01*
X0411542Y0240530D01*
X0409925Y0241200D01*
X0402575Y0241200D01*
X0400958Y0240530D01*
X0399720Y0239292D01*
X0399050Y0237675D01*
X0399050Y0235925D01*
X0399720Y0234308D01*
X0400958Y0233070D01*
X0402575Y0232400D01*
X0400443Y0233584D02*
X0395529Y0233584D01*
X0396317Y0235183D02*
X0399357Y0235183D01*
X0399050Y0236781D02*
X0396550Y0236781D01*
X0396332Y0238380D02*
X0399342Y0238380D01*
X0400406Y0239978D02*
X0395567Y0239978D01*
X0393568Y0241577D02*
X0415961Y0241577D01*
X0415961Y0243175D02*
X0411648Y0243175D01*
X0411542Y0243070D02*
X0412780Y0244308D01*
X0413450Y0245925D01*
X0413450Y0247675D01*
X0412780Y0249292D01*
X0411542Y0250530D01*
X0409925Y0251200D01*
X0402575Y0251200D01*
X0400958Y0250530D01*
X0399720Y0249292D01*
X0399050Y0247675D01*
X0399050Y0245925D01*
X0399720Y0244308D01*
X0400958Y0243070D01*
X0402575Y0242400D01*
X0409925Y0242400D01*
X0411542Y0243070D01*
X0412973Y0244774D02*
X0415961Y0244774D01*
X0415961Y0246372D02*
X0413450Y0246372D01*
X0413328Y0247971D02*
X0415961Y0247971D01*
X0415961Y0249569D02*
X0412503Y0249569D01*
X0410003Y0251168D02*
X0415961Y0251168D01*
X0415961Y0252766D02*
X0410809Y0252766D01*
X0411542Y0253070D02*
X0412780Y0254308D01*
X0413450Y0255925D01*
X0413450Y0257675D01*
X0412780Y0259292D01*
X0411542Y0260530D01*
X0409925Y0261200D01*
X0402575Y0261200D01*
X0400958Y0260530D01*
X0399720Y0259292D01*
X0399050Y0257675D01*
X0399050Y0255925D01*
X0399720Y0254308D01*
X0400958Y0253070D01*
X0402575Y0252400D01*
X0409925Y0252400D01*
X0411542Y0253070D01*
X0412804Y0254365D02*
X0415961Y0254365D01*
X0415961Y0255963D02*
X0413450Y0255963D01*
X0413450Y0257562D02*
X0415961Y0257562D01*
X0415961Y0259160D02*
X0412835Y0259160D01*
X0420761Y0263956D02*
X0423850Y0263956D01*
X0423850Y0265554D02*
X0420761Y0265554D01*
X0420761Y0267153D02*
X0423850Y0267153D01*
X0423850Y0268751D02*
X0420761Y0268751D01*
X0420761Y0270350D02*
X0423850Y0270350D01*
X0423850Y0271948D02*
X0420761Y0271948D01*
X0420761Y0273547D02*
X0423850Y0273547D01*
X0423850Y0275145D02*
X0420761Y0275145D01*
X0420761Y0276744D02*
X0423850Y0276744D01*
X0423850Y0278342D02*
X0420761Y0278342D01*
X0420761Y0279941D02*
X0423850Y0279941D01*
X0423850Y0281539D02*
X0420761Y0281539D01*
X0420761Y0283138D02*
X0423850Y0283138D01*
X0423850Y0284737D02*
X0420761Y0284737D01*
X0420761Y0286335D02*
X0423850Y0286335D01*
X0423850Y0287934D02*
X0420761Y0287934D01*
X0420761Y0289532D02*
X0423850Y0289532D01*
X0423850Y0291131D02*
X0420761Y0291131D01*
X0420761Y0292729D02*
X0423850Y0292729D01*
X0423850Y0294328D02*
X0420761Y0294328D01*
X0420761Y0295926D02*
X0423850Y0295926D01*
X0423850Y0297525D02*
X0420761Y0297525D01*
X0420761Y0299123D02*
X0423850Y0299123D01*
X0423850Y0300722D02*
X0420761Y0300722D01*
X0420761Y0302320D02*
X0422336Y0302320D01*
X0426250Y0301800D02*
X0421250Y0306800D01*
X0426250Y0301800D02*
X0426250Y0231800D01*
X0431539Y0231986D02*
X0445950Y0231986D01*
X0446099Y0230387D02*
X0441685Y0230387D01*
X0442989Y0228789D02*
X0446766Y0228789D01*
X0448530Y0227190D02*
X0443450Y0227190D01*
X0443312Y0225592D02*
X0447546Y0225592D01*
X0446422Y0223993D02*
X0442466Y0223993D01*
X0440900Y0220796D02*
X0445950Y0220796D01*
X0445950Y0222395D02*
X0429539Y0222395D01*
X0429394Y0220796D02*
X0431600Y0220796D01*
X0430958Y0220530D02*
X0429720Y0219292D01*
X0429050Y0217675D01*
X0429050Y0215925D01*
X0429720Y0214308D01*
X0430958Y0213070D01*
X0432575Y0212400D01*
X0439925Y0212400D01*
X0441542Y0213070D01*
X0442780Y0214308D01*
X0443450Y0215925D01*
X0443450Y0217675D01*
X0442780Y0219292D01*
X0441542Y0220530D01*
X0439925Y0221200D01*
X0432575Y0221200D01*
X0430958Y0220530D01*
X0429681Y0219198D02*
X0428299Y0219198D01*
X0429050Y0217599D02*
X0420761Y0217599D01*
X0420761Y0216001D02*
X0429050Y0216001D01*
X0429681Y0214402D02*
X0422042Y0214402D01*
X0423641Y0212803D02*
X0431601Y0212803D01*
X0440899Y0212803D02*
X0445950Y0212803D01*
X0446591Y0214402D02*
X0442819Y0214402D01*
X0443450Y0216001D02*
X0447955Y0216001D01*
X0447956Y0217599D02*
X0443450Y0217599D01*
X0442819Y0219198D02*
X0446591Y0219198D01*
X0454544Y0217599D02*
X0488351Y0217599D01*
X0488351Y0216001D02*
X0454545Y0216001D01*
X0455909Y0214402D02*
X0488351Y0214402D01*
X0488351Y0212803D02*
X0456550Y0212803D01*
X0456550Y0211205D02*
X0488351Y0211205D01*
X0488351Y0209606D02*
X0456078Y0209606D01*
X0454953Y0208008D02*
X0488351Y0208008D01*
X0488351Y0200015D02*
X0442057Y0200015D01*
X0443143Y0198417D02*
X0488351Y0198417D01*
X0488351Y0196818D02*
X0443450Y0196818D01*
X0443158Y0195220D02*
X0488351Y0195220D01*
X0488351Y0193621D02*
X0442094Y0193621D01*
X0418361Y0214689D02*
X0418361Y0312997D01*
X0393037Y0300722D02*
X0379230Y0300722D01*
X0380607Y0299123D02*
X0391700Y0299123D01*
X0391177Y0297525D02*
X0381176Y0297525D01*
X0381176Y0295926D02*
X0391200Y0295926D01*
X0391776Y0294328D02*
X0380545Y0294328D01*
X0379040Y0292729D02*
X0393243Y0292729D01*
X0400777Y0270350D02*
X0326751Y0270350D01*
X0328350Y0268751D02*
X0399496Y0268751D01*
X0399050Y0267153D02*
X0329948Y0267153D01*
X0331547Y0265554D02*
X0399203Y0265554D01*
X0400072Y0263956D02*
X0333145Y0263956D01*
X0333968Y0244774D02*
X0328039Y0244774D01*
X0329637Y0243175D02*
X0335566Y0243175D01*
X0337165Y0241577D02*
X0331236Y0241577D01*
X0332834Y0239978D02*
X0338763Y0239978D01*
X0340362Y0238380D02*
X0334433Y0238380D01*
X0336031Y0236781D02*
X0341960Y0236781D01*
X0343559Y0235183D02*
X0337630Y0235183D01*
X0339228Y0233584D02*
X0345157Y0233584D01*
X0346756Y0231986D02*
X0340827Y0231986D01*
X0342425Y0230387D02*
X0348332Y0230387D01*
X0346733Y0228789D02*
X0344024Y0228789D01*
X0345622Y0227190D02*
X0346650Y0227190D01*
X0351250Y0225592D02*
X0351250Y0225592D01*
X0351250Y0223993D02*
X0351250Y0223993D01*
X0351250Y0222395D02*
X0351250Y0222395D01*
X0352016Y0220796D02*
X0353939Y0220796D01*
X0353939Y0219198D02*
X0353615Y0219198D01*
X0353350Y0222395D02*
X0353939Y0222395D01*
X0393477Y0231986D02*
X0415961Y0231986D01*
X0415961Y0233584D02*
X0412057Y0233584D01*
X0413143Y0235183D02*
X0415961Y0235183D01*
X0415961Y0236781D02*
X0413450Y0236781D01*
X0413158Y0238380D02*
X0415961Y0238380D01*
X0415961Y0239978D02*
X0412094Y0239978D01*
X0400852Y0243175D02*
X0395121Y0243175D01*
X0396147Y0244774D02*
X0399527Y0244774D01*
X0399050Y0246372D02*
X0396550Y0246372D01*
X0396502Y0247971D02*
X0399172Y0247971D01*
X0399997Y0249569D02*
X0395840Y0249569D01*
X0394378Y0251168D02*
X0402497Y0251168D01*
X0401691Y0252766D02*
X0394712Y0252766D01*
X0395978Y0254365D02*
X0399696Y0254365D01*
X0399050Y0255963D02*
X0396550Y0255963D01*
X0396550Y0257562D02*
X0399050Y0257562D01*
X0399665Y0259160D02*
X0396009Y0259160D01*
X0394786Y0260759D02*
X0401510Y0260759D01*
X0431539Y0252766D02*
X0431691Y0252766D01*
X0431539Y0251168D02*
X0432497Y0251168D01*
X0440003Y0251168D02*
X0488351Y0251168D01*
X0488351Y0252766D02*
X0440809Y0252766D01*
X0442804Y0254365D02*
X0488351Y0254365D01*
X0488351Y0255963D02*
X0443450Y0255963D01*
X0443450Y0257562D02*
X0488351Y0257562D01*
X0488351Y0259160D02*
X0442835Y0259160D01*
X0442503Y0249569D02*
X0488351Y0249569D01*
X0488351Y0247971D02*
X0443328Y0247971D01*
X0443450Y0246372D02*
X0488351Y0246372D01*
X0488351Y0244774D02*
X0442973Y0244774D01*
X0441648Y0243175D02*
X0488351Y0243175D01*
X0488351Y0241577D02*
X0431539Y0241577D01*
X0442094Y0239978D02*
X0488351Y0239978D01*
X0488351Y0238380D02*
X0443158Y0238380D01*
X0443450Y0236781D02*
X0449426Y0236781D01*
X0447137Y0235183D02*
X0443143Y0235183D01*
X0442057Y0233584D02*
X0446252Y0233584D01*
X0453074Y0236781D02*
X0488351Y0236781D01*
X0488351Y0235183D02*
X0455363Y0235183D01*
X0456248Y0233584D02*
X0488351Y0233584D01*
X0488351Y0231986D02*
X0456550Y0231986D01*
X0456401Y0230387D02*
X0488351Y0230387D01*
X0488351Y0228789D02*
X0455734Y0228789D01*
X0453970Y0227190D02*
X0488351Y0227190D01*
X0488351Y0225592D02*
X0454954Y0225592D01*
X0456078Y0223993D02*
X0488351Y0223993D01*
X0488351Y0222395D02*
X0456550Y0222395D01*
X0456550Y0220796D02*
X0488351Y0220796D01*
X0488351Y0219198D02*
X0455909Y0219198D01*
X0430034Y0223993D02*
X0428708Y0223993D01*
X0428650Y0225592D02*
X0429188Y0225592D01*
X0415961Y0225592D02*
X0413312Y0225592D01*
X0413450Y0227190D02*
X0415961Y0227190D01*
X0415961Y0228789D02*
X0412989Y0228789D01*
X0411685Y0230387D02*
X0415961Y0230387D01*
X0412429Y0169644D02*
X0430071Y0169644D01*
X0429203Y0168045D02*
X0413297Y0168045D01*
X0413450Y0166447D02*
X0429050Y0166447D01*
X0429496Y0164848D02*
X0413004Y0164848D01*
X0411722Y0163250D02*
X0430778Y0163250D01*
X0391902Y0112097D02*
X0344539Y0112097D01*
X0344271Y0110499D02*
X0363726Y0110499D01*
X0364427Y0111200D02*
X0361850Y0108623D01*
X0361850Y0104977D01*
X0364427Y0102400D01*
X0368073Y0102400D01*
X0370650Y0104977D01*
X0370650Y0108623D01*
X0368073Y0111200D01*
X0364427Y0111200D01*
X0362128Y0108900D02*
X0342844Y0108900D01*
X0339656Y0108900D02*
X0335830Y0108900D01*
X0334231Y0107302D02*
X0361850Y0107302D01*
X0361850Y0105703D02*
X0332633Y0105703D01*
X0331034Y0104105D02*
X0362723Y0104105D01*
X0364321Y0102506D02*
X0329436Y0102506D01*
X0337429Y0110499D02*
X0338229Y0110499D01*
X0341250Y0111800D02*
X0341250Y0131800D01*
X0339275Y0134476D02*
X0338739Y0134476D01*
X0331250Y0136800D02*
X0331250Y0111800D01*
X0309139Y0122997D02*
X0307447Y0124689D01*
X0305053Y0124689D01*
X0303361Y0122997D01*
X0311503Y0153659D02*
X0315369Y0153659D01*
X0314327Y0155257D02*
X0313101Y0155257D01*
X0360326Y0150462D02*
X0363689Y0150462D01*
X0362091Y0148863D02*
X0361924Y0148863D01*
X0368774Y0110499D02*
X0383726Y0110499D01*
X0382128Y0108900D02*
X0370372Y0108900D01*
X0370650Y0107302D02*
X0381850Y0107302D01*
X0381850Y0105703D02*
X0370650Y0105703D01*
X0369777Y0104105D02*
X0382723Y0104105D01*
X0384321Y0102506D02*
X0368179Y0102506D01*
X0388774Y0110499D02*
X0393500Y0110499D01*
X0395099Y0108900D02*
X0390372Y0108900D01*
X0390650Y0107302D02*
X0396697Y0107302D01*
X0398384Y0105703D02*
X0390650Y0105703D01*
X0405250Y0107800D02*
X0411250Y0101800D01*
X0155961Y0057748D02*
X0154693Y0057748D01*
X0132112Y0062543D02*
X0124748Y0062543D01*
X0124833Y0062605D02*
X0125445Y0063217D01*
X0125954Y0063917D01*
X0126347Y0064689D01*
X0126615Y0065512D01*
X0126750Y0066367D01*
X0126750Y0066600D01*
X0121450Y0066600D01*
X0121450Y0061300D01*
X0121683Y0061300D01*
X0122538Y0061435D01*
X0123361Y0061703D01*
X0124133Y0062096D01*
X0124833Y0062605D01*
X0126068Y0064142D02*
X0130514Y0064142D01*
X0128915Y0065740D02*
X0126651Y0065740D01*
X0126733Y0067339D02*
X0127317Y0067339D01*
X0121450Y0065740D02*
X0121050Y0065740D01*
X0121050Y0064142D02*
X0121450Y0064142D01*
X0121450Y0062543D02*
X0121050Y0062543D01*
X0316050Y0347078D02*
X0316450Y0347078D01*
X0316450Y0348677D02*
X0316050Y0348677D01*
X0316050Y0350275D02*
X0316450Y0350275D01*
X0104450Y0379049D02*
X0097850Y0379049D01*
X0097850Y0380647D02*
X0101301Y0380647D01*
X0099703Y0382246D02*
X0097850Y0382246D01*
X0097850Y0383844D02*
X0098978Y0383844D01*
X0098400Y0385443D02*
X0097850Y0385443D01*
X0097850Y0387041D02*
X0098400Y0387041D01*
X0098515Y0388640D02*
X0097850Y0388640D01*
X0097850Y0390238D02*
X0099177Y0390238D01*
X0100185Y0391837D02*
X0097850Y0391837D01*
X0097850Y0393435D02*
X0101784Y0393435D01*
D20*
X0161250Y0291800D03*
X0126250Y0261800D03*
X0161250Y0241800D03*
X0136250Y0226800D03*
X0136250Y0211800D03*
X0126250Y0176800D03*
X0131250Y0166800D03*
X0141250Y0156800D03*
X0161250Y0136800D03*
X0186250Y0146800D03*
X0191250Y0146800D03*
X0201250Y0141800D03*
X0221250Y0156800D03*
X0216250Y0166800D03*
X0231250Y0181800D03*
X0211250Y0196800D03*
X0206250Y0206800D03*
X0211250Y0211800D03*
X0206250Y0216800D03*
X0211250Y0226800D03*
X0196250Y0211800D03*
X0221250Y0206800D03*
X0221250Y0206800D03*
X0186250Y0176800D03*
X0181250Y0166800D03*
X0128361Y0127038D03*
X0128361Y0116800D03*
X0141250Y0111800D03*
X0171250Y0081800D03*
X0166250Y0071800D03*
X0186250Y0061800D03*
X0181250Y0041800D03*
X0171250Y0021800D03*
X0181250Y0016800D03*
X0171250Y0011800D03*
X0151250Y0046800D03*
X0181250Y0091800D03*
X0186250Y0121800D03*
X0216250Y0121800D03*
X0216250Y0111800D03*
X0231250Y0101800D03*
X0240472Y0091800D03*
X0246250Y0096800D03*
X0266250Y0101800D03*
X0276250Y0091800D03*
X0276250Y0091800D03*
X0281250Y0096800D03*
X0286250Y0091800D03*
X0281250Y0086800D03*
X0296250Y0086800D03*
X0296250Y0094689D03*
X0281250Y0111800D03*
X0296250Y0121800D03*
X0306250Y0121800D03*
X0321250Y0141800D03*
X0331250Y0136800D03*
X0341250Y0131800D03*
X0341250Y0111800D03*
X0331250Y0111800D03*
X0301250Y0146800D03*
X0301250Y0146800D03*
X0301664Y0151386D03*
X0271250Y0131800D03*
X0261250Y0139689D03*
X0239972Y0143300D03*
X0246250Y0161800D03*
X0261250Y0176800D03*
X0266250Y0196800D03*
X0266250Y0206800D03*
X0281250Y0186800D03*
X0306250Y0186800D03*
X0331250Y0176800D03*
X0341250Y0186800D03*
X0351250Y0191800D03*
X0341250Y0196800D03*
X0341250Y0206800D03*
X0336250Y0216800D03*
X0361250Y0211800D03*
X0426250Y0206800D03*
X0426250Y0221800D03*
X0426250Y0231800D03*
X0421250Y0306800D03*
X0421250Y0311800D03*
X0421250Y0316800D03*
X0306250Y0271800D03*
X0221250Y0256800D03*
X0376250Y0156800D03*
X0396250Y0151800D03*
X0376250Y0136800D03*
X0396250Y0131800D03*
X0411250Y0101800D03*
X0270461Y0071800D03*
X0261250Y0061800D03*
X0256250Y0041800D03*
X0241250Y0026800D03*
X0236250Y0031800D03*
X0251250Y0021800D03*
X0216250Y0016800D03*
M02*
