G75*
%MOIN*%
%OFA0B0*%
%FSLAX25Y25*%
%IPPOS*%
%LPD*%
%AMOC8*
5,1,8,0,0,1.08239X$1,22.5*
%
%ADD10C,0.13300*%
%ADD11C,0.06400*%
%ADD12C,0.08182*%
%ADD13C,0.09658*%
%ADD14C,0.08200*%
%ADD15C,0.06743*%
%ADD16OC8,0.06400*%
%ADD17C,0.07137*%
%ADD18C,0.06400*%
%ADD19OC8,0.08200*%
D10*
X0106250Y0316800D03*
X0106250Y0386800D03*
X0476250Y0386800D03*
X0476250Y0321800D03*
D11*
X0439050Y0266800D02*
X0433450Y0266800D01*
X0433450Y0256800D02*
X0439050Y0256800D01*
X0439050Y0246800D02*
X0433450Y0246800D01*
X0433450Y0236800D02*
X0439050Y0236800D01*
X0439050Y0226800D02*
X0433450Y0226800D01*
X0433450Y0216800D02*
X0439050Y0216800D01*
X0439050Y0206800D02*
X0433450Y0206800D01*
X0433450Y0196800D02*
X0439050Y0196800D01*
X0439050Y0186800D02*
X0433450Y0186800D01*
X0433450Y0176800D02*
X0439050Y0176800D01*
X0439050Y0166800D02*
X0433450Y0166800D01*
X0433450Y0156800D02*
X0439050Y0156800D01*
X0439050Y0146800D02*
X0433450Y0146800D01*
X0433450Y0136800D02*
X0439050Y0136800D01*
X0409050Y0136800D02*
X0403450Y0136800D01*
X0403450Y0146800D02*
X0409050Y0146800D01*
X0409050Y0156800D02*
X0403450Y0156800D01*
X0403450Y0166800D02*
X0409050Y0166800D01*
X0409050Y0176800D02*
X0403450Y0176800D01*
X0403450Y0186800D02*
X0409050Y0186800D01*
X0409050Y0196800D02*
X0403450Y0196800D01*
X0403450Y0206800D02*
X0409050Y0206800D01*
X0409050Y0216800D02*
X0403450Y0216800D01*
X0403450Y0226800D02*
X0409050Y0226800D01*
X0409050Y0236800D02*
X0403450Y0236800D01*
X0403450Y0246800D02*
X0409050Y0246800D01*
X0409050Y0256800D02*
X0403450Y0256800D01*
X0403450Y0266800D02*
X0409050Y0266800D01*
X0324050Y0236800D02*
X0318450Y0236800D01*
X0318450Y0226800D02*
X0324050Y0226800D01*
X0324050Y0216800D02*
X0318450Y0216800D01*
X0318450Y0206800D02*
X0324050Y0206800D01*
X0324050Y0196800D02*
X0318450Y0196800D01*
X0318450Y0186800D02*
X0324050Y0186800D01*
X0324050Y0176800D02*
X0318450Y0176800D01*
X0318450Y0166800D02*
X0324050Y0166800D01*
X0324050Y0156800D02*
X0318450Y0156800D01*
X0318450Y0146800D02*
X0324050Y0146800D01*
X0324050Y0136800D02*
X0318450Y0136800D01*
X0318450Y0126800D02*
X0324050Y0126800D01*
X0324050Y0116800D02*
X0318450Y0116800D01*
X0318450Y0106800D02*
X0324050Y0106800D01*
X0294050Y0106800D02*
X0288450Y0106800D01*
X0288450Y0116800D02*
X0294050Y0116800D01*
X0294050Y0126800D02*
X0288450Y0126800D01*
X0288450Y0136800D02*
X0294050Y0136800D01*
X0294050Y0146800D02*
X0288450Y0146800D01*
X0288450Y0156800D02*
X0294050Y0156800D01*
X0294050Y0166800D02*
X0288450Y0166800D01*
X0288450Y0176800D02*
X0294050Y0176800D01*
X0294050Y0186800D02*
X0288450Y0186800D01*
X0288450Y0196800D02*
X0294050Y0196800D01*
X0294050Y0206800D02*
X0288450Y0206800D01*
X0288450Y0216800D02*
X0294050Y0216800D01*
X0294050Y0226800D02*
X0288450Y0226800D01*
X0288450Y0236800D02*
X0294050Y0236800D01*
D12*
X0115880Y0261457D03*
X0115880Y0281143D03*
D13*
X0105250Y0285080D03*
X0105250Y0257520D03*
D14*
X0121250Y0066800D03*
X0121250Y0076800D03*
X0121250Y0086800D03*
X0121250Y0096800D03*
X0121250Y0106800D03*
X0121250Y0116800D03*
X0151250Y0111800D03*
X0151250Y0121800D03*
X0151250Y0101800D03*
X0151250Y0091800D03*
X0151250Y0081800D03*
X0151250Y0071800D03*
X0151250Y0061800D03*
X0181250Y0101800D03*
X0221250Y0081800D03*
X0221250Y0051800D03*
X0276250Y0051800D03*
X0276250Y0041800D03*
X0286250Y0041800D03*
X0286250Y0051800D03*
X0286250Y0061800D03*
X0276250Y0061800D03*
X0276250Y0071800D03*
X0276250Y0081800D03*
X0286250Y0081800D03*
X0286250Y0071800D03*
X0311250Y0071800D03*
X0311250Y0081800D03*
X0321250Y0081800D03*
X0321250Y0071800D03*
X0331250Y0071800D03*
X0331250Y0081800D03*
X0341250Y0081800D03*
X0341250Y0071800D03*
X0351250Y0071800D03*
X0351250Y0081800D03*
X0361250Y0081800D03*
X0361250Y0071800D03*
X0371250Y0071800D03*
X0371250Y0081800D03*
X0381250Y0081800D03*
X0381250Y0071800D03*
X0391250Y0071800D03*
X0391250Y0081800D03*
X0401250Y0081800D03*
X0401250Y0071800D03*
X0401250Y0061800D03*
X0391250Y0061800D03*
X0381250Y0061800D03*
X0371250Y0061800D03*
X0361250Y0061800D03*
X0351250Y0061800D03*
X0341250Y0061800D03*
X0331250Y0061800D03*
X0321250Y0061800D03*
X0311250Y0061800D03*
X0311250Y0051800D03*
X0311250Y0041800D03*
X0321250Y0041800D03*
X0321250Y0051800D03*
X0331250Y0051800D03*
X0331250Y0041800D03*
X0341250Y0041800D03*
X0341250Y0051800D03*
X0351250Y0051800D03*
X0351250Y0041800D03*
X0361250Y0041800D03*
X0361250Y0051800D03*
X0371250Y0051800D03*
X0371250Y0041800D03*
X0381250Y0041800D03*
X0381250Y0051800D03*
X0391250Y0051800D03*
X0391250Y0041800D03*
X0401250Y0041800D03*
X0401250Y0051800D03*
X0421250Y0051800D03*
X0421250Y0041800D03*
X0431250Y0041800D03*
X0431250Y0051800D03*
X0431250Y0061800D03*
X0421250Y0061800D03*
X0421250Y0071800D03*
X0421250Y0081800D03*
X0431250Y0081800D03*
X0431250Y0071800D03*
X0431250Y0031800D03*
X0431250Y0021800D03*
X0421250Y0021800D03*
X0421250Y0031800D03*
X0401250Y0031800D03*
X0401250Y0021800D03*
X0391250Y0021800D03*
X0391250Y0031800D03*
X0381250Y0031800D03*
X0381250Y0021800D03*
X0371250Y0021800D03*
X0371250Y0031800D03*
X0361250Y0031800D03*
X0361250Y0021800D03*
X0351250Y0021800D03*
X0351250Y0031800D03*
X0341250Y0031800D03*
X0341250Y0021800D03*
X0331250Y0021800D03*
X0331250Y0031800D03*
X0321250Y0031800D03*
X0321250Y0021800D03*
X0311250Y0021800D03*
X0311250Y0031800D03*
X0311250Y0011800D03*
X0321250Y0011800D03*
X0331250Y0011800D03*
X0341250Y0011800D03*
X0351250Y0011800D03*
X0361250Y0011800D03*
X0371250Y0011800D03*
X0381250Y0011800D03*
X0391250Y0011800D03*
X0401250Y0011800D03*
X0421250Y0011800D03*
X0431250Y0011800D03*
X0286250Y0011800D03*
X0276250Y0011800D03*
X0276250Y0021800D03*
X0276250Y0031800D03*
X0286250Y0031800D03*
X0286250Y0021800D03*
X0111250Y0166800D03*
X0111250Y0176800D03*
X0146250Y0221800D03*
X0156250Y0221800D03*
X0166250Y0221800D03*
X0176250Y0221800D03*
X0221250Y0216800D03*
X0221250Y0226800D03*
X0221250Y0236800D03*
X0221250Y0206800D03*
X0221250Y0196800D03*
X0286250Y0286800D03*
X0286250Y0296800D03*
X0286250Y0306800D03*
X0286250Y0316800D03*
X0286250Y0326800D03*
X0286250Y0336800D03*
X0286250Y0346800D03*
X0266250Y0331800D03*
X0266250Y0321800D03*
X0266250Y0306800D03*
X0266250Y0296800D03*
X0316250Y0296800D03*
X0316250Y0306800D03*
X0316250Y0316800D03*
X0316250Y0326800D03*
X0316250Y0336800D03*
X0316250Y0346800D03*
X0316250Y0286800D03*
X0391250Y0256800D03*
X0391250Y0246800D03*
X0391250Y0236800D03*
X0391250Y0226800D03*
X0391250Y0216800D03*
X0391250Y0206800D03*
X0391250Y0196800D03*
X0451250Y0211800D03*
X0451250Y0221800D03*
X0451250Y0231800D03*
D15*
X0111250Y0226643D03*
X0111250Y0216800D03*
X0111250Y0206957D03*
D16*
X0171250Y0241800D03*
X0191250Y0241800D03*
X0191250Y0281800D03*
X0171250Y0281800D03*
X0146250Y0291800D03*
X0136250Y0291800D03*
X0171250Y0156800D03*
X0171250Y0136800D03*
X0211250Y0136800D03*
X0211250Y0156800D03*
X0261250Y0126800D03*
X0261250Y0116800D03*
X0346250Y0156800D03*
X0366250Y0146800D03*
X0386250Y0146800D03*
X0371250Y0171800D03*
X0371250Y0181800D03*
X0351250Y0226800D03*
X0351250Y0236800D03*
X0331250Y0321800D03*
X0371250Y0321800D03*
X0401250Y0111800D03*
X0386250Y0106800D03*
X0366250Y0106800D03*
X0441250Y0111800D03*
X0441250Y0111800D03*
X0451250Y0111800D03*
D17*
X0231093Y0281800D03*
X0211407Y0281800D03*
X0376407Y0296800D03*
X0396093Y0296800D03*
D18*
X0346250Y0176800D03*
D19*
X0206250Y0111800D03*
X0196250Y0111800D03*
X0196250Y0101800D03*
X0196250Y0091800D03*
X0206250Y0091800D03*
X0206250Y0101800D03*
X0206250Y0081800D03*
X0206250Y0071800D03*
X0196250Y0071800D03*
X0196250Y0081800D03*
X0196250Y0061800D03*
X0206250Y0061800D03*
X0206250Y0051800D03*
X0206250Y0041800D03*
X0196250Y0041800D03*
X0196250Y0051800D03*
X0196250Y0031800D03*
X0196250Y0021800D03*
X0206250Y0021800D03*
X0206250Y0031800D03*
X0206250Y0011800D03*
X0196250Y0011800D03*
M02*
