%
M48
M72
T01C0.01378
T02C0.03200
T03C0.03543
T04C0.03937
T05C0.04000
T06C0.04921
T07C0.05906
T08C0.12500
%
T01
X141250Y111800
X128361Y116800
X128361Y127038
X161250Y136800
X186250Y146800
X191250Y146800
X201250Y141800
X221250Y156800
X216250Y166800
X231250Y181800
X211250Y196800
X206250Y206800
X211250Y211800
X206250Y216800
X211250Y226800
X196250Y211800
X221250Y206800
X221250Y206800
X186250Y176800
X181250Y166800
X141250Y156800
X131250Y166800
X126250Y176800
X136250Y211800
X136250Y226800
X161250Y241800
X126250Y261800
X161250Y291800
X221250Y256800
X266250Y206800
X266250Y196800
X281250Y186800
X261250Y176800
X246250Y161800
X239972Y143300
X261250Y139689
X271250Y131800
X281250Y111800
X266250Y101800
X276250Y91800
X276250Y91800
X281250Y96800
X286250Y91800
X281250Y86800
X296250Y86800
X296250Y94689
X270461Y71800
X261250Y61800
X256250Y41800
X241250Y26800
X236250Y31800
X251250Y21800
X216250Y16800
X181250Y16800
X171250Y11800
X171250Y21800
X181250Y41800
X186250Y61800
X166250Y71800
X171250Y81800
X181250Y91800
X186250Y121800
X216250Y121800
X216250Y111800
X231250Y101800
X240472Y91800
X246250Y96800
X296250Y121800
X306250Y121800
X321250Y141800
X331250Y136800
X341250Y131800
X341250Y111800
X331250Y111800
X301250Y146800
X301250Y146800
X301664Y151386
X331250Y176800
X341250Y186800
X351250Y191800
X341250Y196800
X341250Y206800
X336250Y216800
X361250Y211800
X306250Y186800
X376250Y156800
X396250Y151800
X376250Y136800
X396250Y131800
X411250Y101800
X426250Y206800
X426250Y221800
X426250Y231800
X421250Y306800
X421250Y311800
X421250Y316800
X306250Y271800
X151250Y46800
T02
X261250Y116800
X261250Y126800
X291250Y126800
X291250Y116800
X291250Y106800
X321250Y106800
X321250Y116800
X321250Y126800
X321250Y136800
X321250Y146800
X321250Y156800
X321250Y166800
X321250Y176800
X321250Y186800
X321250Y196800
X321250Y206800
X321250Y216800
X321250Y226800
X321250Y236800
X291250Y236800
X291250Y226800
X291250Y216800
X291250Y206800
X291250Y196800
X291250Y186800
X291250Y176800
X291250Y166800
X291250Y156800
X291250Y146800
X291250Y136800
X346250Y156800
X366250Y146800
X386250Y146800
X406250Y146800
X406250Y136800
X406250Y156800
X406250Y166800
X406250Y176800
X406250Y186800
X406250Y196800
X406250Y206800
X406250Y216800
X406250Y226800
X406250Y236800
X406250Y246800
X406250Y256800
X406250Y266800
X436250Y266800
X436250Y256800
X436250Y246800
X436250Y236800
X436250Y226800
X436250Y216800
X436250Y206800
X436250Y196800
X436250Y186800
X436250Y176800
X436250Y166800
X436250Y156800
X436250Y146800
X436250Y136800
X441250Y111800
X441250Y111800
X451250Y111800
X401250Y111800
X386250Y106800
X366250Y106800
X371250Y171800
X371250Y181800
X346250Y176800
X351250Y226800
X351250Y236800
X331250Y321800
X371250Y321800
X191250Y281800
X171250Y281800
X146250Y291800
X136250Y291800
X171250Y241800
X191250Y241800
X171250Y156800
X171250Y136800
X211250Y136800
X211250Y156800
T03
X111250Y206957
X111250Y216800
X111250Y226643
T04
X211407Y281800
X231093Y281800
X376407Y296800
X396093Y296800
T05
X121250Y66800
X121250Y76800
X121250Y86800
X121250Y96800
X121250Y106800
X121250Y116800
X151250Y111800
X151250Y121800
X151250Y101800
X151250Y91800
X151250Y81800
X151250Y71800
X151250Y61800
X196250Y61800
X206250Y61800
X206250Y51800
X206250Y41800
X196250Y41800
X196250Y51800
X196250Y31800
X196250Y21800
X206250Y21800
X206250Y31800
X206250Y11800
X196250Y11800
X221250Y51800
X206250Y71800
X206250Y81800
X196250Y81800
X196250Y71800
X196250Y91800
X196250Y101800
X206250Y101800
X206250Y91800
X221250Y81800
X206250Y111800
X196250Y111800
X181250Y101800
X111250Y166800
X111250Y176800
X146250Y221800
X156250Y221800
X166250Y221800
X176250Y221800
X221250Y216800
X221250Y226800
X221250Y236800
X221250Y206800
X221250Y196800
X286250Y286800
X286250Y296800
X286250Y306800
X286250Y316800
X286250Y326800
X286250Y336800
X286250Y346800
X266250Y331800
X266250Y321800
X266250Y306800
X266250Y296800
X316250Y296800
X316250Y306800
X316250Y316800
X316250Y326800
X316250Y336800
X316250Y346800
X316250Y286800
X391250Y256800
X391250Y246800
X391250Y236800
X391250Y226800
X391250Y216800
X391250Y206800
X391250Y196800
X451250Y211800
X451250Y221800
X451250Y231800
X431250Y81800
X431250Y71800
X421250Y71800
X421250Y81800
X401250Y81800
X401250Y71800
X391250Y71800
X391250Y81800
X381250Y81800
X381250Y71800
X371250Y71800
X371250Y81800
X361250Y81800
X361250Y71800
X351250Y71800
X351250Y81800
X341250Y81800
X341250Y71800
X331250Y71800
X331250Y81800
X321250Y81800
X321250Y71800
X311250Y71800
X311250Y81800
X311250Y61800
X321250Y61800
X331250Y61800
X341250Y61800
X351250Y61800
X361250Y61800
X371250Y61800
X381250Y61800
X391250Y61800
X401250Y61800
X401250Y51800
X401250Y41800
X391250Y41800
X391250Y51800
X381250Y51800
X381250Y41800
X371250Y41800
X371250Y51800
X361250Y51800
X361250Y41800
X351250Y41800
X351250Y51800
X341250Y51800
X341250Y41800
X331250Y41800
X331250Y51800
X321250Y51800
X321250Y41800
X311250Y41800
X311250Y51800
X311250Y31800
X311250Y21800
X321250Y21800
X321250Y31800
X331250Y31800
X331250Y21800
X341250Y21800
X341250Y31800
X351250Y31800
X351250Y21800
X361250Y21800
X361250Y31800
X371250Y31800
X371250Y21800
X381250Y21800
X381250Y31800
X391250Y31800
X391250Y21800
X401250Y21800
X401250Y31800
X421250Y31800
X421250Y21800
X431250Y21800
X431250Y31800
X431250Y41800
X431250Y51800
X421250Y51800
X421250Y41800
X421250Y61800
X431250Y61800
X431250Y11800
X421250Y11800
X401250Y11800
X391250Y11800
X381250Y11800
X371250Y11800
X361250Y11800
X351250Y11800
X341250Y11800
X331250Y11800
X321250Y11800
X311250Y11800
X286250Y11800
X276250Y11800
X276250Y21800
X276250Y31800
X286250Y31800
X286250Y21800
X286250Y41800
X286250Y51800
X276250Y51800
X276250Y41800
X276250Y61800
X286250Y61800
X286250Y71800
X286250Y81800
X276250Y81800
X276250Y71800
T06
X115880Y261457
X115880Y281143
T07
X105250Y285080
X105250Y257520
T08
X106250Y316800
X106250Y386800
X476250Y386800
X476250Y321800
M30
